<svg xmlns="http://www.w3.org/2000/svg" xmlns:xlink="http://www.w3.org/1999/xlink" version="1.2" width="130.00mm" height="71.60mm" viewBox="0 0 98.6362 54.3220">
<!-- Page: 1/1 -->
<text transform="translate(0.0000, -0.0000)" font-family="serif" font-size="2.1999" text-anchor="start" fill="currentColor">
<tspan/>
</text>
<rect transform="translate(98.4046, 7.5280)" x="0.0000" y="-2.0000" width="0.2316" height="4.0000" ry="0.0000" fill="currentColor"/>
<rect transform="translate(0.0000, 3.5280)" x="86.6769" y="-0.1110" width="2.5834" height="0.2219" ry="0.1110" fill="currentColor"/>
<rect transform="translate(0.0000, 4.5280)" x="86.3702" y="-0.1110" width="2.8901" height="0.2219" ry="0.1110" fill="currentColor"/>
<rect transform="translate(0.0000, 3.5280)" x="74.9075" y="-0.1110" width="2.8001" height="0.2219" ry="0.1110" fill="currentColor"/>
<rect transform="translate(0.0000, 4.5280)" x="74.8175" y="-0.1110" width="2.8901" height="0.2219" ry="0.1110" fill="currentColor"/>
<rect transform="translate(0.0000, 2.5280)" x="63.2648" y="-0.1110" width="2.8901" height="0.2219" ry="0.1110" fill="currentColor"/>
<rect transform="translate(0.0000, 3.5280)" x="63.2648" y="-0.1110" width="2.8901" height="0.2219" ry="0.1110" fill="currentColor"/>
<rect transform="translate(0.0000, 4.5280)" x="63.2648" y="-0.1110" width="2.8901" height="0.2219" ry="0.1110" fill="currentColor"/>
<rect transform="translate(0.0000, 3.5280)" x="52.0188" y="-0.1110" width="2.5834" height="0.2219" ry="0.1110" fill="currentColor"/>
<rect transform="translate(0.0000, 4.5280)" x="51.7121" y="-0.1110" width="2.8901" height="0.2219" ry="0.1110" fill="currentColor"/>
<rect transform="translate(0.0000, 3.5280)" x="40.2494" y="-0.1110" width="2.8001" height="0.2219" ry="0.1110" fill="currentColor"/>
<rect transform="translate(0.0000, 4.5280)" x="40.1594" y="-0.1110" width="2.8901" height="0.2219" ry="0.1110" fill="currentColor"/>
<rect transform="translate(0.0000, 10.5280)" x="28.9134" y="-0.1110" width="2.5834" height="0.2219" ry="0.1110" fill="currentColor"/>
<rect transform="translate(0.0000, 10.5280)" x="17.1440" y="-0.1110" width="2.8001" height="0.2219" ry="0.1110" fill="currentColor"/>
<rect transform="translate(0.0000, 10.5280)" x="5.5013" y="-0.1110" width="2.8901" height="0.2219" ry="0.1110" fill="currentColor"/>
<rect transform="translate(0.0000, 11.5280)" x="5.5013" y="-0.1110" width="2.8901" height="0.2219" ry="0.1110" fill="currentColor"/>
<rect transform="translate(0.0000, 12.5280)" x="5.5013" y="-0.1110" width="2.8901" height="0.2219" ry="0.1110" fill="currentColor"/>
<line transform="translate(0.0000, 9.5280)" stroke-linejoin="round" stroke-linecap="round" stroke-width="0.1219" stroke="currentColor" x1="0.0610" y1="-0.0000" x2="98.5753" y2="-0.0000"/>
<line transform="translate(0.0000, 8.5280)" stroke-linejoin="round" stroke-linecap="round" stroke-width="0.1219" stroke="currentColor" x1="0.0610" y1="-0.0000" x2="98.5753" y2="-0.0000"/>
<line transform="translate(0.0000, 7.5280)" stroke-linejoin="round" stroke-linecap="round" stroke-width="0.1219" stroke="currentColor" x1="0.0610" y1="-0.0000" x2="98.5753" y2="-0.0000"/>
<line transform="translate(0.0000, 6.5280)" stroke-linejoin="round" stroke-linecap="round" stroke-width="0.1219" stroke="currentColor" x1="0.0610" y1="-0.0000" x2="98.5753" y2="-0.0000"/>
<line transform="translate(0.0000, 5.5280)" stroke-linejoin="round" stroke-linecap="round" stroke-width="0.1219" stroke="currentColor" x1="0.0610" y1="-0.0000" x2="98.5753" y2="-0.0000"/>
<a style="color:inherit;" xlink:href="textedit://C:/Users/trocado/OneDrive/Documents/Practice-log/assets/014-rotations.ly:40:6:7">
<path transform="translate(75.2992, 7.0280) scale(0.0040, -0.0040)" d="M210 110c-49 0 -67 -43 -67 -88c0 -74 56 -132 129 -132c49 0 67 43 67 88c0 74 -56 132 -129 132zM482 0c0 -43 -33 -76 -71 -98c-51 -30 -111 -40 -170 -40s-119 10 -170 40c-38 22 -71 55 -71 98s33 76 71 98c51 30 111 40 170 40s119 -10 170 -40
c38 -22 71 -55 71 -98z" fill="currentColor"/>
</a>
<path transform="translate(62.2965, 7.0280) scale(0.0040, -0.0040)" d="M198 -329c-12 0 -21 9 -21 21v138l-79 -30v-154c0 -12 -9 -21 -21 -21s-21 9 -21 21v138l-22 -8c-3 -1 -6 -2 -9 -2c-13 0 -25 11 -25 25v54c0 10 6 20 16 24l40 15v155l-22 -9c-3 -1 -6 -1 -9 -1c-13 0 -25 11 -25 25v54c0 10 6 19 16 23l40 15v154c0 12 9 21 21 21
s21 -9 21 -21v-138l79 30v154c0 12 9 21 21 21s21 -9 21 -21v-138l22 8c3 1 6 2 9 2c13 0 25 -11 25 -25v-54c0 -10 -6 -20 -16 -24l-40 -15v-155l22 9c3 1 6 1 9 1c13 0 25 -11 25 -25v-54c0 -10 -6 -19 -16 -23l-40 -15v-154c0 -12 -9 -21 -21 -21zM98 62v-154l79 30v154z
" fill="currentColor"/>
<path transform="translate(62.2965, 3.5280) scale(0.0040, -0.0040)" d="M-8 375c8 5 18 7 27 7s18 -2 26 -7l-3 -192l102 23h4c10 0 19 -8 19 -18l8 -563c-8 -5 -18 -7 -27 -7s-18 2 -26 7l2 192l-101 -23h-4c-10 0 -19 8 -19 18zM128 110l-87 -19l-3 -201l88 19z" fill="currentColor"/>
<path transform="translate(61.3837, 2.5280) scale(0.0040, -0.0040)" d="M-8 375c8 5 18 7 27 7s18 -2 26 -7l-3 -192l102 23h4c10 0 19 -8 19 -18l8 -563c-8 -5 -18 -7 -27 -7s-18 2 -26 7l2 192l-101 -23h-4c-10 0 -19 8 -19 18zM128 110l-87 -19l-3 -201l88 19z" fill="currentColor"/>
<a style="color:inherit;" xlink:href="textedit://C:/Users/trocado/OneDrive/Documents/Practice-log/assets/014-rotations.ly:40:2:3">
<path transform="translate(75.2992, 9.5280) scale(0.0040, -0.0040)" d="M210 110c-49 0 -67 -43 -67 -88c0 -74 56 -132 129 -132c49 0 67 43 67 88c0 74 -56 132 -129 132zM482 0c0 -43 -33 -76 -71 -98c-51 -30 -111 -40 -170 -40s-119 10 -170 40c-38 22 -71 55 -71 98s33 76 71 98c51 30 111 40 170 40s119 -10 170 -40
c38 -22 71 -55 71 -98z" fill="currentColor"/>
</a>
<a style="color:inherit;" xlink:href="textedit://C:/Users/trocado/OneDrive/Documents/Practice-log/assets/014-rotations.ly:37:2:3">
<path transform="translate(52.1938, 7.0280) scale(0.0040, -0.0040)" d="M210 110c-49 0 -67 -43 -67 -88c0 -74 56 -132 129 -132c49 0 67 43 67 88c0 74 -56 132 -129 132zM482 0c0 -43 -33 -76 -71 -98c-51 -30 -111 -40 -170 -40s-119 10 -170 40c-38 22 -71 55 -71 98s33 76 71 98c51 30 111 40 170 40s119 -10 170 -40
c38 -22 71 -55 71 -98z" fill="currentColor"/>
</a>
<text transform="translate(74.4992, 2.2127)" font-family="serif" font-style="italic" font-size="2.1999" text-anchor="start" fill="currentColor">
<tspan>
8va</tspan>
</text>
<line transform="translate(89.3786, 1.5070)" stroke-linejoin="round" stroke-linecap="round" stroke-width="0.1219" stroke="currentColor" x1="0" y1="0" x2="0.0000" y2="0.8000" stroke-dasharray="1.0,0.0"/>
<line transform="translate(77.9404, 1.5070)" stroke-linejoin="round" stroke-linecap="round" stroke-width="0.1219" stroke="currentColor" x1="0" y1="0" x2="0.0000" y2="-0.0000" stroke-dasharray="1.0,0.0"/>
<line transform="translate(77.9404, 1.5070)" stroke-linejoin="round" stroke-linecap="round" stroke-width="0.1219" stroke="currentColor" x1="0" y1="0" x2="11.4382" y2="-0.0000" stroke-dasharray="0.303669775160597,0.70856280870806"/>
<a style="color:inherit;" xlink:href="textedit://C:/Users/trocado/OneDrive/Documents/Practice-log/assets/014-rotations.ly:37:6:7">
<path transform="translate(52.1938, 6.0280) scale(0.0040, -0.0040)" d="M210 110c-49 0 -67 -43 -67 -88c0 -74 56 -132 129 -132c49 0 67 43 67 88c0 74 -56 132 -129 132zM482 0c0 -43 -33 -76 -71 -98c-51 -30 -111 -40 -170 -40s-119 10 -170 40c-38 22 -71 55 -71 98s33 76 71 98c51 30 111 40 170 40s119 -10 170 -40
c38 -22 71 -55 71 -98z" fill="currentColor"/>
</a>
<a style="color:inherit;" xlink:href="textedit://C:/Users/trocado/OneDrive/Documents/Practice-log/assets/014-rotations.ly:37:10:11">
<path transform="translate(52.1938, 3.5280) scale(0.0040, -0.0040)" d="M210 110c-49 0 -67 -43 -67 -88c0 -74 56 -132 129 -132c49 0 67 43 67 88c0 74 -56 132 -129 132zM482 0c0 -43 -33 -76 -71 -98c-51 -30 -111 -40 -170 -40s-119 10 -170 40c-38 22 -71 55 -71 98s33 76 71 98c51 30 111 40 170 40s119 -10 170 -40
c38 -22 71 -55 71 -98z" fill="currentColor"/>
</a>
<path transform="translate(50.7438, 7.0280) scale(0.0040, -0.0040)" d="M-8 375c8 5 18 7 27 7s18 -2 26 -7l-3 -192l102 23h4c10 0 19 -8 19 -18l8 -563c-8 -5 -18 -7 -27 -7s-18 2 -26 7l2 192l-101 -23h-4c-10 0 -19 8 -19 18zM128 110l-87 -19l-3 -201l88 19z" fill="currentColor"/>
<path transform="translate(50.7438, 3.5280) scale(0.0040, -0.0040)" d="M198 -329c-12 0 -21 9 -21 21v138l-79 -30v-154c0 -12 -9 -21 -21 -21s-21 9 -21 21v138l-22 -8c-3 -1 -6 -2 -9 -2c-13 0 -25 11 -25 25v54c0 10 6 20 16 24l40 15v155l-22 -9c-3 -1 -6 -1 -9 -1c-13 0 -25 11 -25 25v54c0 10 6 19 16 23l40 15v154c0 12 9 21 21 21
s21 -9 21 -21v-138l79 30v154c0 12 9 21 21 21s21 -9 21 -21v-138l22 8c3 1 6 2 9 2c13 0 25 -11 25 -25v-54c0 -10 -6 -20 -16 -24l-40 -15v-155l22 9c3 1 6 1 9 1c13 0 25 -11 25 -25v-54c0 -10 -6 -19 -16 -23l-40 -15v-154c0 -12 -9 -21 -21 -21zM98 62v-154l79 30v154z
" fill="currentColor"/>
<a style="color:inherit;" xlink:href="textedit://C:/Users/trocado/OneDrive/Documents/Practice-log/assets/014-rotations.ly:38:2:3">
<path transform="translate(63.7465, 7.0280) scale(0.0040, -0.0040)" d="M210 110c-49 0 -67 -43 -67 -88c0 -74 56 -132 129 -132c49 0 67 43 67 88c0 74 -56 132 -129 132zM482 0c0 -43 -33 -76 -71 -98c-51 -30 -111 -40 -170 -40s-119 10 -170 40c-38 22 -71 55 -71 98s33 76 71 98c51 30 111 40 170 40s119 -10 170 -40
c38 -22 71 -55 71 -98z" fill="currentColor"/>
</a>
<a style="color:inherit;" xlink:href="textedit://C:/Users/trocado/OneDrive/Documents/Practice-log/assets/014-rotations.ly:38:8:9">
<path transform="translate(63.7465, 3.5280) scale(0.0040, -0.0040)" d="M210 110c-49 0 -67 -43 -67 -88c0 -74 56 -132 129 -132c49 0 67 43 67 88c0 74 -56 132 -129 132zM482 0c0 -43 -33 -76 -71 -98c-51 -30 -111 -40 -170 -40s-119 10 -170 40c-38 22 -71 55 -71 98s33 76 71 98c51 30 111 40 170 40s119 -10 170 -40
c38 -22 71 -55 71 -98z" fill="currentColor"/>
</a>
<a style="color:inherit;" xlink:href="textedit://C:/Users/trocado/OneDrive/Documents/Practice-log/assets/014-rotations.ly:38:13:14">
<path transform="translate(63.7465, 2.5280) scale(0.0040, -0.0040)" d="M210 110c-49 0 -67 -43 -67 -88c0 -74 56 -132 129 -132c49 0 67 43 67 88c0 74 -56 132 -129 132zM482 0c0 -43 -33 -76 -71 -98c-51 -30 -111 -40 -170 -40s-119 10 -170 40c-38 22 -71 55 -71 98s33 76 71 98c51 30 111 40 170 40s119 -10 170 -40
c38 -22 71 -55 71 -98z" fill="currentColor"/>
</a>
<path transform="translate(85.4019, 7.0280) scale(0.0040, -0.0040)" d="M-8 375c8 5 18 7 27 7s18 -2 26 -7l-3 -192l102 23h4c10 0 19 -8 19 -18l8 -563c-8 -5 -18 -7 -27 -7s-18 2 -26 7l2 192l-101 -23h-4c-10 0 -19 8 -19 18zM128 110l-87 -19l-3 -201l88 19z" fill="currentColor"/>
<path transform="translate(85.4019, 3.5280) scale(0.0040, -0.0040)" d="M198 -329c-12 0 -21 9 -21 21v138l-79 -30v-154c0 -12 -9 -21 -21 -21s-21 9 -21 21v138l-22 -8c-3 -1 -6 -2 -9 -2c-13 0 -25 11 -25 25v54c0 10 6 20 16 24l40 15v155l-22 -9c-3 -1 -6 -1 -9 -1c-13 0 -25 11 -25 25v54c0 10 6 19 16 23l40 15v154c0 12 9 21 21 21
s21 -9 21 -21v-138l79 30v154c0 12 9 21 21 21s21 -9 21 -21v-138l22 8c3 1 6 2 9 2c13 0 25 -11 25 -25v-54c0 -10 -6 -20 -16 -24l-40 -15v-155l22 9c3 1 6 1 9 1c13 0 25 -11 25 -25v-54c0 -10 -6 -19 -16 -23l-40 -15v-154c0 -12 -9 -21 -21 -21zM98 62v-154l79 30v154z
" fill="currentColor"/>
<path transform="translate(73.8492, 7.0280) scale(0.0040, -0.0040)" d="M198 -329c-12 0 -21 9 -21 21v138l-79 -30v-154c0 -12 -9 -21 -21 -21s-21 9 -21 21v138l-22 -8c-3 -1 -6 -2 -9 -2c-13 0 -25 11 -25 25v54c0 10 6 20 16 24l40 15v155l-22 -9c-3 -1 -6 -1 -9 -1c-13 0 -25 11 -25 25v54c0 10 6 19 16 23l40 15v154c0 12 9 21 21 21
s21 -9 21 -21v-138l79 30v154c0 12 9 21 21 21s21 -9 21 -21v-138l22 8c3 1 6 2 9 2c13 0 25 -11 25 -25v-54c0 -10 -6 -20 -16 -24l-40 -15v-155l22 9c3 1 6 1 9 1c13 0 25 -11 25 -25v-54c0 -10 -6 -19 -16 -23l-40 -15v-154c0 -12 -9 -21 -21 -21zM98 62v-154l79 30v154z
" fill="currentColor"/>
<path transform="translate(73.8492, 3.5280) scale(0.0040, -0.0040)" d="M-8 375c8 5 18 7 27 7s18 -2 26 -7l-3 -192l102 23h4c10 0 19 -8 19 -18l8 -563c-8 -5 -18 -7 -27 -7s-18 2 -26 7l2 192l-101 -23h-4c-10 0 -19 8 -19 18zM128 110l-87 -19l-3 -201l88 19z" fill="currentColor"/>
<a style="color:inherit;" xlink:href="textedit://C:/Users/trocado/OneDrive/Documents/Practice-log/assets/014-rotations.ly:40:13:14">
<path transform="translate(75.2992, 3.5280) scale(0.0040, -0.0040)" d="M210 110c-49 0 -67 -43 -67 -88c0 -74 56 -132 129 -132c49 0 67 43 67 88c0 74 -56 132 -129 132zM482 0c0 -43 -33 -76 -71 -98c-51 -30 -111 -40 -170 -40s-119 10 -170 40c-38 22 -71 55 -71 98s33 76 71 98c51 30 111 40 170 40s119 -10 170 -40
c38 -22 71 -55 71 -98z" fill="currentColor"/>
</a>
<a style="color:inherit;" xlink:href="textedit://C:/Users/trocado/OneDrive/Documents/Practice-log/assets/014-rotations.ly:41:2:3">
<path transform="translate(86.8519, 7.0280) scale(0.0040, -0.0040)" d="M210 110c-49 0 -67 -43 -67 -88c0 -74 56 -132 129 -132c49 0 67 43 67 88c0 74 -56 132 -129 132zM482 0c0 -43 -33 -76 -71 -98c-51 -30 -111 -40 -170 -40s-119 10 -170 40c-38 22 -71 55 -71 98s33 76 71 98c51 30 111 40 170 40s119 -10 170 -40
c38 -22 71 -55 71 -98z" fill="currentColor"/>
</a>
<a style="color:inherit;" xlink:href="textedit://C:/Users/trocado/OneDrive/Documents/Practice-log/assets/014-rotations.ly:41:7:8">
<path transform="translate(86.8519, 6.0280) scale(0.0040, -0.0040)" d="M210 110c-49 0 -67 -43 -67 -88c0 -74 56 -132 129 -132c49 0 67 43 67 88c0 74 -56 132 -129 132zM482 0c0 -43 -33 -76 -71 -98c-51 -30 -111 -40 -170 -40s-119 10 -170 40c-38 22 -71 55 -71 98s33 76 71 98c51 30 111 40 170 40s119 -10 170 -40
c38 -22 71 -55 71 -98z" fill="currentColor"/>
</a>
<a style="color:inherit;" xlink:href="textedit://C:/Users/trocado/OneDrive/Documents/Practice-log/assets/014-rotations.ly:41:12:13">
<path transform="translate(86.8519, 3.5280) scale(0.0040, -0.0040)" d="M210 110c-49 0 -67 -43 -67 -88c0 -74 56 -132 129 -132c49 0 67 43 67 88c0 74 -56 132 -129 132zM482 0c0 -43 -33 -76 -71 -98c-51 -30 -111 -40 -170 -40s-119 10 -170 40c-38 22 -71 55 -71 98s33 76 71 98c51 30 111 40 170 40s119 -10 170 -40
c38 -22 71 -55 71 -98z" fill="currentColor"/>
</a>
<path transform="translate(16.0857, 10.5280) scale(0.0040, -0.0040)" d="M-8 375c8 5 18 7 27 7s18 -2 26 -7l-3 -192l102 23h4c10 0 19 -8 19 -18l8 -563c-8 -5 -18 -7 -27 -7s-18 2 -26 7l2 192l-101 -23h-4c-10 0 -19 8 -19 18zM128 110l-87 -19l-3 -201l88 19z" fill="currentColor"/>
<a style="color:inherit;" xlink:href="textedit://C:/Users/trocado/OneDrive/Documents/Practice-log/assets/014-rotations.ly:34:2:3">
<path transform="translate(17.5357, 10.5280) scale(0.0040, -0.0040)" d="M210 110c-49 0 -67 -43 -67 -88c0 -74 56 -132 129 -132c49 0 67 43 67 88c0 74 -56 132 -129 132zM482 0c0 -43 -33 -76 -71 -98c-51 -30 -111 -40 -170 -40s-119 10 -170 40c-38 22 -71 55 -71 98s33 76 71 98c51 30 111 40 170 40s119 -10 170 -40
c38 -22 71 -55 71 -98z" fill="currentColor"/>
</a>
<a style="color:inherit;" xlink:href="textedit://C:/Users/trocado/OneDrive/Documents/Practice-log/assets/014-rotations.ly:34:5:6">
<path transform="translate(17.5357, 9.5280) scale(0.0040, -0.0040)" d="M210 110c-49 0 -67 -43 -67 -88c0 -74 56 -132 129 -132c49 0 67 43 67 88c0 74 -56 132 -129 132zM482 0c0 -43 -33 -76 -71 -98c-51 -30 -111 -40 -170 -40s-119 10 -170 40c-38 22 -71 55 -71 98s33 76 71 98c51 30 111 40 170 40s119 -10 170 -40
c38 -22 71 -55 71 -98z" fill="currentColor"/>
</a>
<a style="color:inherit;" xlink:href="textedit://C:/Users/trocado/OneDrive/Documents/Practice-log/assets/014-rotations.ly:34:8:9">
<path transform="translate(17.5357, 7.0280) scale(0.0040, -0.0040)" d="M210 110c-49 0 -67 -43 -67 -88c0 -74 56 -132 129 -132c49 0 67 43 67 88c0 74 -56 132 -129 132zM482 0c0 -43 -33 -76 -71 -98c-51 -30 -111 -40 -170 -40s-119 10 -170 40c-38 22 -71 55 -71 98s33 76 71 98c51 30 111 40 170 40s119 -10 170 -40
c38 -22 71 -55 71 -98z" fill="currentColor"/>
</a>
<path transform="translate(15.1729, 9.5280) scale(0.0040, -0.0040)" d="M-8 375c8 5 18 7 27 7s18 -2 26 -7l-3 -192l102 23h4c10 0 19 -8 19 -18l8 -563c-8 -5 -18 -7 -27 -7s-18 2 -26 7l2 192l-101 -23h-4c-10 0 -19 8 -19 18zM128 110l-87 -19l-3 -201l88 19z" fill="currentColor"/>
<path transform="translate(16.0857, 7.0280) scale(0.0040, -0.0040)" d="M198 -329c-12 0 -21 9 -21 21v138l-79 -30v-154c0 -12 -9 -21 -21 -21s-21 9 -21 21v138l-22 -8c-3 -1 -6 -2 -9 -2c-13 0 -25 11 -25 25v54c0 10 6 20 16 24l40 15v155l-22 -9c-3 -1 -6 -1 -9 -1c-13 0 -25 11 -25 25v54c0 10 6 19 16 23l40 15v154c0 12 9 21 21 21
s21 -9 21 -21v-138l79 30v154c0 12 9 21 21 21s21 -9 21 -21v-138l22 8c3 1 6 2 9 2c13 0 25 -11 25 -25v-54c0 -10 -6 -20 -16 -24l-40 -15v-155l22 9c3 1 6 1 9 1c13 0 25 -11 25 -25v-54c0 -10 -6 -19 -16 -23l-40 -15v-154c0 -12 -9 -21 -21 -21zM98 62v-154l79 30v154z
" fill="currentColor"/>
<a style="color:inherit;" xlink:href="textedit://C:/Users/trocado/OneDrive/Documents/Practice-log/assets/014-rotations.ly:35:2:3">
<path transform="translate(29.0884, 10.5280) scale(0.0040, -0.0040)" d="M210 110c-49 0 -67 -43 -67 -88c0 -74 56 -132 129 -132c49 0 67 43 67 88c0 74 -56 132 -129 132zM482 0c0 -43 -33 -76 -71 -98c-51 -30 -111 -40 -170 -40s-119 10 -170 40c-38 22 -71 55 -71 98s33 76 71 98c51 30 111 40 170 40s119 -10 170 -40
c38 -22 71 -55 71 -98z" fill="currentColor"/>
</a>
<a style="color:inherit;" xlink:href="textedit://C:/Users/trocado/OneDrive/Documents/Practice-log/assets/014-rotations.ly:35:7:8">
<path transform="translate(29.0884, 7.0280) scale(0.0040, -0.0040)" d="M210 110c-49 0 -67 -43 -67 -88c0 -74 56 -132 129 -132c49 0 67 43 67 88c0 74 -56 132 -129 132zM482 0c0 -43 -33 -76 -71 -98c-51 -30 -111 -40 -170 -40s-119 10 -170 40c-38 22 -71 55 -71 98s33 76 71 98c51 30 111 40 170 40s119 -10 170 -40
c38 -22 71 -55 71 -98z" fill="currentColor"/>
</a>
<a style="color:inherit;" xlink:href="textedit://C:/Users/trocado/OneDrive/Documents/Practice-log/assets/014-rotations.ly:33:2:3">
<path transform="translate(5.9830, 13.0280) scale(0.0040, -0.0040)" d="M210 110c-49 0 -67 -43 -67 -88c0 -74 56 -132 129 -132c49 0 67 43 67 88c0 74 -56 132 -129 132zM482 0c0 -43 -33 -76 -71 -98c-51 -30 -111 -40 -170 -40s-119 10 -170 40c-38 22 -71 55 -71 98s33 76 71 98c51 30 111 40 170 40s119 -10 170 -40
c38 -22 71 -55 71 -98z" fill="currentColor"/>
</a>
<a style="color:inherit;" xlink:href="textedit://C:/Users/trocado/OneDrive/Documents/Practice-log/assets/014-rotations.ly:33:4:5">
<path transform="translate(5.9830, 10.5280) scale(0.0040, -0.0040)" d="M210 110c-49 0 -67 -43 -67 -88c0 -74 56 -132 129 -132c49 0 67 43 67 88c0 74 -56 132 -129 132zM482 0c0 -43 -33 -76 -71 -98c-51 -30 -111 -40 -170 -40s-119 10 -170 40c-38 22 -71 55 -71 98s33 76 71 98c51 30 111 40 170 40s119 -10 170 -40
c38 -22 71 -55 71 -98z" fill="currentColor"/>
</a>
<a style="color:inherit;" xlink:href="textedit://C:/Users/trocado/OneDrive/Documents/Practice-log/assets/014-rotations.ly:33:9:10">
<path transform="translate(5.9830, 7.0280) scale(0.0040, -0.0040)" d="M210 110c-49 0 -67 -43 -67 -88c0 -74 56 -132 129 -132c49 0 67 43 67 88c0 74 -56 132 -129 132zM482 0c0 -43 -33 -76 -71 -98c-51 -30 -111 -40 -170 -40s-119 10 -170 40c-38 22 -71 55 -71 98s33 76 71 98c51 30 111 40 170 40s119 -10 170 -40
c38 -22 71 -55 71 -98z" fill="currentColor"/>
</a>
<path transform="translate(0.8000, 8.5280) scale(0.0040, -0.0040)" d="M379 264c3 0 7 1 10 1c157 0 258 -129 258 -263c0 -77 -33 -155 -108 -211c-22 -16 -46 -29 -72 -37c3 -33 4 -66 4 -99c0 -21 0 -41 -1 -62c-7 -121 -91 -229 -211 -229c-108 0 -196 88 -196 197c0 58 54 103 113 103c54 0 95 -47 95 -103c0 -52 -43 -95 -95 -95
c-9 0 -18 1 -27 4c25 -37 66 -61 113 -61c95 0 156 93 162 191c1 19 2 38 2 57c0 29 -1 58 -3 87c-29 -5 -58 -8 -88 -8c-189 0 -333 173 -333 376c0 177 129 308 244 443c-20 62 -40 124 -48 189c-7 52 -7 105 -7 158c0 114 54 221 147 288c4 3 8 4 12 4c5 0 9 -2 13 -5
c72 -83 135 -243 135 -356c0 -142 -84 -255 -176 -364c21 -68 40 -136 57 -205zM463 -201c65 24 110 94 110 161c0 88 -64 175 -167 188c24 -114 44 -227 57 -349zM77 25c0 -133 128 -243 261 -243c27 0 55 1 81 5c-13 126 -35 244 -60 362c-79 -8 -124 -60 -124 -118
c0 -43 25 -88 80 -120c5 -5 7 -11 7 -17c0 -12 -10 -23 -23 -23c-3 0 -7 1 -10 2c-81 43 -118 115 -118 186c0 89 60 177 163 200c-14 57 -30 113 -47 169c-105 -122 -210 -243 -210 -403zM403 1038c-99 -46 -161 -145 -161 -254c0 -71 21 -130 39 -188
c78 97 142 199 142 324c0 51 -4 72 -20 118z" fill="currentColor"/>
<path transform="translate(3.9650, 13.0280) scale(0.0040, -0.0040)" d="M-8 375c8 5 18 7 27 7s18 -2 26 -7l-3 -192l102 23h4c10 0 19 -8 19 -18l8 -563c-8 -5 -18 -7 -27 -7s-18 2 -26 7l2 192l-101 -23h-4c-10 0 -19 8 -19 18zM128 110l-87 -19l-3 -201l88 19z" fill="currentColor"/>
<path transform="translate(4.5330, 10.5280) scale(0.0040, -0.0040)" d="M198 -329c-12 0 -21 9 -21 21v138l-79 -30v-154c0 -12 -9 -21 -21 -21s-21 9 -21 21v138l-22 -8c-3 -1 -6 -2 -9 -2c-13 0 -25 11 -25 25v54c0 10 6 20 16 24l40 15v155l-22 -9c-3 -1 -6 -1 -9 -1c-13 0 -25 11 -25 25v54c0 10 6 19 16 23l40 15v154c0 12 9 21 21 21
s21 -9 21 -21v-138l79 30v154c0 12 9 21 21 21s21 -9 21 -21v-138l22 8c3 1 6 2 9 2c13 0 25 -11 25 -25v-54c0 -10 -6 -20 -16 -24l-40 -15v-155l22 9c3 1 6 1 9 1c13 0 25 -11 25 -25v-54c0 -10 -6 -19 -16 -23l-40 -15v-154c0 -12 -9 -21 -21 -21zM98 62v-154l79 30v154z
" fill="currentColor"/>
<path transform="translate(4.5330, 7.0280) scale(0.0040, -0.0040)" d="M-8 375c8 5 18 7 27 7s18 -2 26 -7l-3 -192l102 23h4c10 0 19 -8 19 -18l8 -563c-8 -5 -18 -7 -27 -7s-18 2 -26 7l2 192l-101 -23h-4c-10 0 -19 8 -19 18zM128 110l-87 -19l-3 -201l88 19z" fill="currentColor"/>
<a style="color:inherit;" xlink:href="textedit://C:/Users/trocado/OneDrive/Documents/Practice-log/assets/014-rotations.ly:36:2:3">
<path transform="translate(40.6411, 9.5280) scale(0.0040, -0.0040)" d="M210 110c-49 0 -67 -43 -67 -88c0 -74 56 -132 129 -132c49 0 67 43 67 88c0 74 -56 132 -129 132zM482 0c0 -43 -33 -76 -71 -98c-51 -30 -111 -40 -170 -40s-119 10 -170 40c-38 22 -71 55 -71 98s33 76 71 98c51 30 111 40 170 40s119 -10 170 -40
c38 -22 71 -55 71 -98z" fill="currentColor"/>
</a>
<path transform="translate(39.1911, 3.5280) scale(0.0040, -0.0040)" d="M-8 375c8 5 18 7 27 7s18 -2 26 -7l-3 -192l102 23h4c10 0 19 -8 19 -18l8 -563c-8 -5 -18 -7 -27 -7s-18 2 -26 7l2 192l-101 -23h-4c-10 0 -19 8 -19 18zM128 110l-87 -19l-3 -201l88 19z" fill="currentColor"/>
<a style="color:inherit;" xlink:href="textedit://C:/Users/trocado/OneDrive/Documents/Practice-log/assets/014-rotations.ly:36:5:6">
<path transform="translate(40.6411, 7.0280) scale(0.0040, -0.0040)" d="M210 110c-49 0 -67 -43 -67 -88c0 -74 56 -132 129 -132c49 0 67 43 67 88c0 74 -56 132 -129 132zM482 0c0 -43 -33 -76 -71 -98c-51 -30 -111 -40 -170 -40s-119 10 -170 40c-38 22 -71 55 -71 98s33 76 71 98c51 30 111 40 170 40s119 -10 170 -40
c38 -22 71 -55 71 -98z" fill="currentColor"/>
</a>
<a style="color:inherit;" xlink:href="textedit://C:/Users/trocado/OneDrive/Documents/Practice-log/assets/014-rotations.ly:36:11:12">
<path transform="translate(40.6411, 3.5280) scale(0.0040, -0.0040)" d="M210 110c-49 0 -67 -43 -67 -88c0 -74 56 -132 129 -132c49 0 67 43 67 88c0 74 -56 132 -129 132zM482 0c0 -43 -33 -76 -71 -98c-51 -30 -111 -40 -170 -40s-119 10 -170 40c-38 22 -71 55 -71 98s33 76 71 98c51 30 111 40 170 40s119 -10 170 -40
c38 -22 71 -55 71 -98z" fill="currentColor"/>
</a>
<path transform="translate(39.1911, 7.0280) scale(0.0040, -0.0040)" d="M198 -329c-12 0 -21 9 -21 21v138l-79 -30v-154c0 -12 -9 -21 -21 -21s-21 9 -21 21v138l-22 -8c-3 -1 -6 -2 -9 -2c-13 0 -25 11 -25 25v54c0 10 6 20 16 24l40 15v155l-22 -9c-3 -1 -6 -1 -9 -1c-13 0 -25 11 -25 25v54c0 10 6 19 16 23l40 15v154c0 12 9 21 21 21
s21 -9 21 -21v-138l79 30v154c0 12 9 21 21 21s21 -9 21 -21v-138l22 8c3 1 6 2 9 2c13 0 25 -11 25 -25v-54c0 -10 -6 -20 -16 -24l-40 -15v-155l22 9c3 1 6 1 9 1c13 0 25 -11 25 -25v-54c0 -10 -6 -19 -16 -23l-40 -15v-154c0 -12 -9 -21 -21 -21zM98 62v-154l79 30v154z
" fill="currentColor"/>
<a style="color:inherit;" xlink:href="textedit://C:/Users/trocado/OneDrive/Documents/Practice-log/assets/014-rotations.ly:35:11:12">
<path transform="translate(29.0884, 6.0280) scale(0.0040, -0.0040)" d="M210 110c-49 0 -67 -43 -67 -88c0 -74 56 -132 129 -132c49 0 67 43 67 88c0 74 -56 132 -129 132zM482 0c0 -43 -33 -76 -71 -98c-51 -30 -111 -40 -170 -40s-119 10 -170 40c-38 22 -71 55 -71 98s33 76 71 98c51 30 111 40 170 40s119 -10 170 -40
c38 -22 71 -55 71 -98z" fill="currentColor"/>
</a>
<path transform="translate(27.6384, 10.5280) scale(0.0040, -0.0040)" d="M198 -329c-12 0 -21 9 -21 21v138l-79 -30v-154c0 -12 -9 -21 -21 -21s-21 9 -21 21v138l-22 -8c-3 -1 -6 -2 -9 -2c-13 0 -25 11 -25 25v54c0 10 6 20 16 24l40 15v155l-22 -9c-3 -1 -6 -1 -9 -1c-13 0 -25 11 -25 25v54c0 10 6 19 16 23l40 15v154c0 12 9 21 21 21
s21 -9 21 -21v-138l79 30v154c0 12 9 21 21 21s21 -9 21 -21v-138l22 8c3 1 6 2 9 2c13 0 25 -11 25 -25v-54c0 -10 -6 -20 -16 -24l-40 -15v-155l22 9c3 1 6 1 9 1c13 0 25 -11 25 -25v-54c0 -10 -6 -19 -16 -23l-40 -15v-154c0 -12 -9 -21 -21 -21zM98 62v-154l79 30v154z
" fill="currentColor"/>
<path transform="translate(27.6384, 7.0280) scale(0.0040, -0.0040)" d="M-8 375c8 5 18 7 27 7s18 -2 26 -7l-3 -192l102 23h4c10 0 19 -8 19 -18l8 -563c-8 -5 -18 -7 -27 -7s-18 2 -26 7l2 192l-101 -23h-4c-10 0 -19 8 -19 18zM128 110l-87 -19l-3 -201l88 19z" fill="currentColor"/>
<path transform="translate(26.7256, 6.0280) scale(0.0040, -0.0040)" d="M-8 375c8 5 18 7 27 7s18 -2 26 -7l-3 -192l102 23h4c10 0 19 -8 19 -18l8 -563c-8 -5 -18 -7 -27 -7s-18 2 -26 7l2 192l-101 -23h-4c-10 0 -19 8 -19 18zM128 110l-87 -19l-3 -201l88 19z" fill="currentColor"/>
<line transform="translate(0.0000, 23.1843)" stroke-linejoin="round" stroke-linecap="round" stroke-width="0.1219" stroke="currentColor" x1="0.0610" y1="-0.0000" x2="98.5753" y2="-0.0000"/>
<line transform="translate(0.0000, 22.1843)" stroke-linejoin="round" stroke-linecap="round" stroke-width="0.1219" stroke="currentColor" x1="0.0610" y1="-0.0000" x2="98.5753" y2="-0.0000"/>
<line transform="translate(0.0000, 21.1843)" stroke-linejoin="round" stroke-linecap="round" stroke-width="0.1219" stroke="currentColor" x1="0.0610" y1="-0.0000" x2="98.5753" y2="-0.0000"/>
<line transform="translate(0.0000, 20.1843)" stroke-linejoin="round" stroke-linecap="round" stroke-width="0.1219" stroke="currentColor" x1="0.0610" y1="-0.0000" x2="98.5753" y2="-0.0000"/>
<line transform="translate(0.0000, 19.1843)" stroke-linejoin="round" stroke-linecap="round" stroke-width="0.1219" stroke="currentColor" x1="0.0610" y1="-0.0000" x2="98.5753" y2="-0.0000"/>
<rect transform="translate(98.4046, 21.1843)" x="0.0000" y="-2.0000" width="0.2316" height="4.0000" ry="0.0000" fill="currentColor"/>
<rect transform="translate(0.0000, 18.1843)" x="86.7140" y="-0.1110" width="2.5834" height="0.2219" ry="0.1110" fill="currentColor"/>
<rect transform="translate(0.0000, 16.1843)" x="63.6827" y="-0.1110" width="2.5834" height="0.2219" ry="0.1110" fill="currentColor"/>
<rect transform="translate(0.0000, 17.1843)" x="63.3760" y="-0.1110" width="2.8901" height="0.2219" ry="0.1110" fill="currentColor"/>
<rect transform="translate(0.0000, 18.1843)" x="63.3760" y="-0.1110" width="2.8901" height="0.2219" ry="0.1110" fill="currentColor"/>
<rect transform="translate(0.0000, 18.1843)" x="52.1671" y="-0.1110" width="2.5834" height="0.2219" ry="0.1110" fill="currentColor"/>
<rect transform="translate(0.0000, 24.1843)" x="28.8291" y="-0.1110" width="2.8901" height="0.2219" ry="0.1110" fill="currentColor"/>
<rect transform="translate(0.0000, 24.1843)" x="17.3135" y="-0.1110" width="2.8901" height="0.2219" ry="0.1110" fill="currentColor"/>
<rect transform="translate(0.0000, 25.1843)" x="17.6067" y="-0.1110" width="2.5969" height="0.2219" ry="0.1110" fill="currentColor"/>
<rect transform="translate(0.0000, 24.1843)" x="5.7979" y="-0.1110" width="2.8901" height="0.2219" ry="0.1110" fill="currentColor"/>
<rect transform="translate(0.0000, 25.1843)" x="5.7979" y="-0.1110" width="2.8901" height="0.2219" ry="0.1110" fill="currentColor"/>
<rect transform="translate(0.0000, 26.1843)" x="6.1045" y="-0.1110" width="2.5834" height="0.2219" ry="0.1110" fill="currentColor"/>
<a style="color:inherit;" xlink:href="textedit://C:/Users/trocado/OneDrive/Documents/Practice-log/assets/014-rotations.ly:53:2:3">
<path transform="translate(86.8890, 22.1843) scale(0.0040, -0.0040)" d="M210 110c-49 0 -67 -43 -67 -88c0 -74 56 -132 129 -132c49 0 67 43 67 88c0 74 -56 132 -129 132zM482 0c0 -43 -33 -76 -71 -98c-51 -30 -111 -40 -170 -40s-119 10 -170 40c-38 22 -71 55 -71 98s33 76 71 98c51 30 111 40 170 40s119 -10 170 -40
c38 -22 71 -55 71 -98z" fill="currentColor"/>
</a>
<a style="color:inherit;" xlink:href="textedit://C:/Users/trocado/OneDrive/Documents/Practice-log/assets/014-rotations.ly:52:14:15">
<path transform="translate(75.3733, 18.6843) scale(0.0040, -0.0040)" d="M210 110c-49 0 -67 -43 -67 -88c0 -74 56 -132 129 -132c49 0 67 43 67 88c0 74 -56 132 -129 132zM482 0c0 -43 -33 -76 -71 -98c-51 -30 -111 -40 -170 -40s-119 10 -170 40c-38 22 -71 55 -71 98s33 76 71 98c51 30 111 40 170 40s119 -10 170 -40
c38 -22 71 -55 71 -98z" fill="currentColor"/>
</a>
<path transform="translate(74.3297, 18.6843) scale(0.0040, -0.0040)" d="M-8 375c8 5 18 7 27 7s18 -2 26 -7l-3 -192l102 23h4c10 0 19 -8 19 -18l8 -563c-8 -5 -18 -7 -27 -7s-18 2 -26 7l2 192l-101 -23h-4c-10 0 -19 8 -19 18zM128 110l-87 -19l-3 -201l88 19z" fill="currentColor"/>
<text transform="translate(74.5733, 16.0370)" font-family="serif" font-style="italic" font-size="2.1999" text-anchor="start" fill="currentColor">
<tspan>
8va</tspan>
</text>
<line transform="translate(89.4157, 15.3313)" stroke-linejoin="round" stroke-linecap="round" stroke-width="0.1219" stroke="currentColor" x1="0" y1="0" x2="0.0000" y2="0.8000" stroke-dasharray="1.0,0.0"/>
<line transform="translate(78.0145, 15.3313)" stroke-linejoin="round" stroke-linecap="round" stroke-width="0.1219" stroke="currentColor" x1="0" y1="0" x2="0.0000" y2="-0.0000" stroke-dasharray="1.0,0.0"/>
<line transform="translate(78.0145, 15.3313)" stroke-linejoin="round" stroke-linecap="round" stroke-width="0.1219" stroke="currentColor" x1="0" y1="0" x2="11.4012" y2="-0.0000" stroke-dasharray="0.302685726111632,0.706266694260474"/>
<a style="color:inherit;" xlink:href="textedit://C:/Users/trocado/OneDrive/Documents/Practice-log/assets/014-rotations.ly:50:2:3">
<path transform="translate(63.8577, 21.1843) scale(0.0040, -0.0040)" d="M210 110c-49 0 -67 -43 -67 -88c0 -74 56 -132 129 -132c49 0 67 43 67 88c0 74 -56 132 -129 132zM482 0c0 -43 -33 -76 -71 -98c-51 -30 -111 -40 -170 -40s-119 10 -170 40c-38 22 -71 55 -71 98s33 76 71 98c51 30 111 40 170 40s119 -10 170 -40
c38 -22 71 -55 71 -98z" fill="currentColor"/>
</a>
<a style="color:inherit;" xlink:href="textedit://C:/Users/trocado/OneDrive/Documents/Practice-log/assets/014-rotations.ly:50:7:8">
<path transform="translate(63.8577, 18.6843) scale(0.0040, -0.0040)" d="M210 110c-49 0 -67 -43 -67 -88c0 -74 56 -132 129 -132c49 0 67 43 67 88c0 74 -56 132 -129 132zM482 0c0 -43 -33 -76 -71 -98c-51 -30 -111 -40 -170 -40s-119 10 -170 40c-38 22 -71 55 -71 98s33 76 71 98c51 30 111 40 170 40s119 -10 170 -40
c38 -22 71 -55 71 -98z" fill="currentColor"/>
</a>
<a style="color:inherit;" xlink:href="textedit://C:/Users/trocado/OneDrive/Documents/Practice-log/assets/014-rotations.ly:50:11:12">
<path transform="translate(63.8577, 15.6843) scale(0.0040, -0.0040)" d="M210 110c-49 0 -67 -43 -67 -88c0 -74 56 -132 129 -132c49 0 67 43 67 88c0 74 -56 132 -129 132zM482 0c0 -43 -33 -76 -71 -98c-51 -30 -111 -40 -170 -40s-119 10 -170 40c-38 22 -71 55 -71 98s33 76 71 98c51 30 111 40 170 40s119 -10 170 -40
c38 -22 71 -55 71 -98z" fill="currentColor"/>
</a>
<a style="color:inherit;" xlink:href="textedit://C:/Users/trocado/OneDrive/Documents/Practice-log/assets/014-rotations.ly:52:8:9">
<path transform="translate(75.3733, 21.1843) scale(0.0040, -0.0040)" d="M210 110c-49 0 -67 -43 -67 -88c0 -74 56 -132 129 -132c49 0 67 43 67 88c0 74 -56 132 -129 132zM482 0c0 -43 -33 -76 -71 -98c-51 -30 -111 -40 -170 -40s-119 10 -170 40c-38 22 -71 55 -71 98s33 76 71 98c51 30 111 40 170 40s119 -10 170 -40
c38 -22 71 -55 71 -98z" fill="currentColor"/>
</a>
<path transform="translate(62.4077, 15.6843) scale(0.0040, -0.0040)" d="M198 -329c-12 0 -21 9 -21 21v138l-79 -30v-154c0 -12 -9 -21 -21 -21s-21 9 -21 21v138l-22 -8c-3 -1 -6 -2 -9 -2c-13 0 -25 11 -25 25v54c0 10 6 20 16 24l40 15v155l-22 -9c-3 -1 -6 -1 -9 -1c-13 0 -25 11 -25 25v54c0 10 6 19 16 23l40 15v154c0 12 9 21 21 21
s21 -9 21 -21v-138l79 30v154c0 12 9 21 21 21s21 -9 21 -21v-138l22 8c3 1 6 2 9 2c13 0 25 -11 25 -25v-54c0 -10 -6 -20 -16 -24l-40 -15v-155l22 9c3 1 6 1 9 1c13 0 25 -11 25 -25v-54c0 -10 -6 -19 -16 -23l-40 -15v-154c0 -12 -9 -21 -21 -21zM98 62v-154l79 30v154z
" fill="currentColor"/>
<a style="color:inherit;" xlink:href="textedit://C:/Users/trocado/OneDrive/Documents/Practice-log/assets/014-rotations.ly:52:2:3">
<path transform="translate(75.3733, 22.6843) scale(0.0040, -0.0040)" d="M210 110c-49 0 -67 -43 -67 -88c0 -74 56 -132 129 -132c49 0 67 43 67 88c0 74 -56 132 -129 132zM482 0c0 -43 -33 -76 -71 -98c-51 -30 -111 -40 -170 -40s-119 10 -170 40c-38 22 -71 55 -71 98s33 76 71 98c51 30 111 40 170 40s119 -10 170 -40
c38 -22 71 -55 71 -98z" fill="currentColor"/>
</a>
<path transform="translate(5.2359, 22.1843) scale(0.0040, -0.0040)" d="M-8 375c8 5 18 7 27 7s18 -2 26 -7l-3 -192l102 23h4c10 0 19 -8 19 -18l8 -563c-8 -5 -18 -7 -27 -7s-18 2 -26 7l2 192l-101 -23h-4c-10 0 -19 8 -19 18zM128 110l-87 -19l-3 -201l88 19z" fill="currentColor"/>
<a style="color:inherit;" xlink:href="textedit://C:/Users/trocado/OneDrive/Documents/Practice-log/assets/014-rotations.ly:46:9:10">
<path transform="translate(17.7952, 21.1843) scale(0.0040, -0.0040)" d="M210 110c-49 0 -67 -43 -67 -88c0 -74 56 -132 129 -132c49 0 67 43 67 88c0 74 -56 132 -129 132zM482 0c0 -43 -33 -76 -71 -98c-51 -30 -111 -40 -170 -40s-119 10 -170 40c-38 22 -71 55 -71 98s33 76 71 98c51 30 111 40 170 40s119 -10 170 -40
c38 -22 71 -55 71 -98z" fill="currentColor"/>
</a>
<a style="color:inherit;" xlink:href="textedit://C:/Users/trocado/OneDrive/Documents/Practice-log/assets/014-rotations.ly:46:4:5">
<path transform="translate(17.7952, 22.6843) scale(0.0040, -0.0040)" d="M210 110c-49 0 -67 -43 -67 -88c0 -74 56 -132 129 -132c49 0 67 43 67 88c0 74 -56 132 -129 132zM482 0c0 -43 -33 -76 -71 -98c-51 -30 -111 -40 -170 -40s-119 10 -170 40c-38 22 -71 55 -71 98s33 76 71 98c51 30 111 40 170 40s119 -10 170 -40
c38 -22 71 -55 71 -98z" fill="currentColor"/>
</a>
<a style="color:inherit;" xlink:href="textedit://C:/Users/trocado/OneDrive/Documents/Practice-log/assets/014-rotations.ly:46:2:3">
<path transform="translate(17.7952, 25.6843) scale(0.0040, -0.0040)" d="M210 110c-49 0 -67 -43 -67 -88c0 -74 56 -132 129 -132c49 0 67 43 67 88c0 74 -56 132 -129 132zM482 0c0 -43 -33 -76 -71 -98c-51 -30 -111 -40 -170 -40s-119 10 -170 40c-38 22 -71 55 -71 98s33 76 71 98c51 30 111 40 170 40s119 -10 170 -40
c38 -22 71 -55 71 -98z" fill="currentColor"/>
</a>
<path transform="translate(4.1055, 24.6843) scale(0.0040, -0.0040)" d="M31 37l-2 -62v-11c0 -22 2 -43 5 -64c43 38 89 80 89 137c0 32 -14 65 -42 65c-31 0 -49 -32 -50 -65zM-16 -140l-14 590c9 5 20 8 30 8s21 -3 30 -8l-8 -340c25 24 59 38 94 38c50 0 84 -50 84 -104c0 -78 -83 -117 -141 -169c-17 -15 -25 -44 -49 -44
c-15 0 -26 13 -26 29z" fill="currentColor"/>
<path transform="translate(4.8295, 26.1843) scale(0.0040, -0.0040)" d="M198 -329c-12 0 -21 9 -21 21v138l-79 -30v-154c0 -12 -9 -21 -21 -21s-21 9 -21 21v138l-22 -8c-3 -1 -6 -2 -9 -2c-13 0 -25 11 -25 25v54c0 10 6 20 16 24l40 15v155l-22 -9c-3 -1 -6 -1 -9 -1c-13 0 -25 11 -25 25v54c0 10 6 19 16 23l40 15v154c0 12 9 21 21 21
s21 -9 21 -21v-138l79 30v154c0 12 9 21 21 21s21 -9 21 -21v-138l22 8c3 1 6 2 9 2c13 0 25 -11 25 -25v-54c0 -10 -6 -20 -16 -24l-40 -15v-155l22 9c3 1 6 1 9 1c13 0 25 -11 25 -25v-54c0 -10 -6 -19 -16 -23l-40 -15v-154c0 -12 -9 -21 -21 -21zM98 62v-154l79 30v154z
" fill="currentColor"/>
<a style="color:inherit;" xlink:href="textedit://C:/Users/trocado/OneDrive/Documents/Practice-log/assets/014-rotations.ly:45:10:11">
<path transform="translate(6.2795, 22.1843) scale(0.0040, -0.0040)" d="M210 110c-49 0 -67 -43 -67 -88c0 -74 56 -132 129 -132c49 0 67 43 67 88c0 74 -56 132 -129 132zM482 0c0 -43 -33 -76 -71 -98c-51 -30 -111 -40 -170 -40s-119 10 -170 40c-38 22 -71 55 -71 98s33 76 71 98c51 30 111 40 170 40s119 -10 170 -40
c38 -22 71 -55 71 -98z" fill="currentColor"/>
</a>
<a style="color:inherit;" xlink:href="textedit://C:/Users/trocado/OneDrive/Documents/Practice-log/assets/014-rotations.ly:45:6:7">
<path transform="translate(6.2795, 24.6843) scale(0.0040, -0.0040)" d="M210 110c-49 0 -67 -43 -67 -88c0 -74 56 -132 129 -132c49 0 67 43 67 88c0 74 -56 132 -129 132zM482 0c0 -43 -33 -76 -71 -98c-51 -30 -111 -40 -170 -40s-119 10 -170 40c-38 22 -71 55 -71 98s33 76 71 98c51 30 111 40 170 40s119 -10 170 -40
c38 -22 71 -55 71 -98z" fill="currentColor"/>
</a>
<a style="color:inherit;" xlink:href="textedit://C:/Users/trocado/OneDrive/Documents/Practice-log/assets/014-rotations.ly:45:2:3">
<path transform="translate(6.2795, 26.1843) scale(0.0040, -0.0040)" d="M210 110c-49 0 -67 -43 -67 -88c0 -74 56 -132 129 -132c49 0 67 43 67 88c0 74 -56 132 -129 132zM482 0c0 -43 -33 -76 -71 -98c-51 -30 -111 -40 -170 -40s-119 10 -170 40c-38 22 -71 55 -71 98s33 76 71 98c51 30 111 40 170 40s119 -10 170 -40
c38 -22 71 -55 71 -98z" fill="currentColor"/>
</a>
<a style="color:inherit;" xlink:href="textedit://C:/Users/trocado/OneDrive/Documents/Practice-log/assets/014-rotations.ly:53:13:14">
<path transform="translate(86.8890, 17.6843) scale(0.0040, -0.0040)" d="M210 110c-49 0 -67 -43 -67 -88c0 -74 56 -132 129 -132c49 0 67 43 67 88c0 74 -56 132 -129 132zM482 0c0 -43 -33 -76 -71 -98c-51 -30 -111 -40 -170 -40s-119 10 -170 40c-38 22 -71 55 -71 98s33 76 71 98c51 30 111 40 170 40s119 -10 170 -40
c38 -22 71 -55 71 -98z" fill="currentColor"/>
</a>
<path transform="translate(85.7390, 17.6843) scale(0.0040, -0.0040)" d="M31 37l-2 -62v-11c0 -22 2 -43 5 -64c43 38 89 80 89 137c0 32 -14 65 -42 65c-31 0 -49 -32 -50 -65zM-16 -140l-14 590c9 5 20 8 30 8s21 -3 30 -8l-8 -340c25 24 59 38 94 38c50 0 84 -50 84 -104c0 -78 -83 -117 -141 -169c-17 -15 -25 -44 -49 -44
c-15 0 -26 13 -26 29z" fill="currentColor"/>
<a style="color:inherit;" xlink:href="textedit://C:/Users/trocado/OneDrive/Documents/Practice-log/assets/014-rotations.ly:53:6:7">
<path transform="translate(86.8890, 19.1843) scale(0.0040, -0.0040)" d="M210 110c-49 0 -67 -43 -67 -88c0 -74 56 -132 129 -132c49 0 67 43 67 88c0 74 -56 132 -129 132zM482 0c0 -43 -33 -76 -71 -98c-51 -30 -111 -40 -170 -40s-119 10 -170 40c-38 22 -71 55 -71 98s33 76 71 98c51 30 111 40 170 40s119 -10 170 -40
c38 -22 71 -55 71 -98z" fill="currentColor"/>
</a>
<a style="color:inherit;" xlink:href="textedit://C:/Users/trocado/OneDrive/Documents/Practice-log/assets/014-rotations.ly:47:2:3">
<path transform="translate(29.3108, 24.6843) scale(0.0040, -0.0040)" d="M210 110c-49 0 -67 -43 -67 -88c0 -74 56 -132 129 -132c49 0 67 43 67 88c0 74 -56 132 -129 132zM482 0c0 -43 -33 -76 -71 -98c-51 -30 -111 -40 -170 -40s-119 10 -170 40c-38 22 -71 55 -71 98s33 76 71 98c51 30 111 40 170 40s119 -10 170 -40
c38 -22 71 -55 71 -98z" fill="currentColor"/>
</a>
<a style="color:inherit;" xlink:href="textedit://C:/Users/trocado/OneDrive/Documents/Practice-log/assets/014-rotations.ly:47:6:7">
<path transform="translate(29.3108, 22.1843) scale(0.0040, -0.0040)" d="M210 110c-49 0 -67 -43 -67 -88c0 -74 56 -132 129 -132c49 0 67 43 67 88c0 74 -56 132 -129 132zM482 0c0 -43 -33 -76 -71 -98c-51 -30 -111 -40 -170 -40s-119 10 -170 40c-38 22 -71 55 -71 98s33 76 71 98c51 30 111 40 170 40s119 -10 170 -40
c38 -22 71 -55 71 -98z" fill="currentColor"/>
</a>
<a style="color:inherit;" xlink:href="textedit://C:/Users/trocado/OneDrive/Documents/Practice-log/assets/014-rotations.ly:47:9:10">
<path transform="translate(29.3108, 19.1843) scale(0.0040, -0.0040)" d="M210 110c-49 0 -67 -43 -67 -88c0 -74 56 -132 129 -132c49 0 67 43 67 88c0 74 -56 132 -129 132zM482 0c0 -43 -33 -76 -71 -98c-51 -30 -111 -40 -170 -40s-119 10 -170 40c-38 22 -71 55 -71 98s33 76 71 98c51 30 111 40 170 40s119 -10 170 -40
c38 -22 71 -55 71 -98z" fill="currentColor"/>
</a>
<path transform="translate(16.6452, 21.1843) scale(0.0040, -0.0040)" d="M31 37l-2 -62v-11c0 -22 2 -43 5 -64c43 38 89 80 89 137c0 32 -14 65 -42 65c-31 0 -49 -32 -50 -65zM-16 -140l-14 590c9 5 20 8 30 8s21 -3 30 -8l-8 -340c25 24 59 38 94 38c50 0 84 -50 84 -104c0 -78 -83 -117 -141 -169c-17 -15 -25 -44 -49 -44
c-15 0 -26 13 -26 29z" fill="currentColor"/>
<path transform="translate(27.8608, 19.1843) scale(0.0040, -0.0040)" d="M198 -329c-12 0 -21 9 -21 21v138l-79 -30v-154c0 -12 -9 -21 -21 -21s-21 9 -21 21v138l-22 -8c-3 -1 -6 -2 -9 -2c-13 0 -25 11 -25 25v54c0 10 6 20 16 24l40 15v155l-22 -9c-3 -1 -6 -1 -9 -1c-13 0 -25 11 -25 25v54c0 10 6 19 16 23l40 15v154c0 12 9 21 21 21
s21 -9 21 -21v-138l79 30v154c0 12 9 21 21 21s21 -9 21 -21v-138l22 8c3 1 6 2 9 2c13 0 25 -11 25 -25v-54c0 -10 -6 -20 -16 -24l-40 -15v-155l22 9c3 1 6 1 9 1c13 0 25 -11 25 -25v-54c0 -10 -6 -19 -16 -23l-40 -15v-154c0 -12 -9 -21 -21 -21zM98 62v-154l79 30v154z
" fill="currentColor"/>
<path transform="translate(0.8000, 22.1843) scale(0.0040, -0.0040)" d="M379 264c3 0 7 1 10 1c157 0 258 -129 258 -263c0 -77 -33 -155 -108 -211c-22 -16 -46 -29 -72 -37c3 -33 4 -66 4 -99c0 -21 0 -41 -1 -62c-7 -121 -91 -229 -211 -229c-108 0 -196 88 -196 197c0 58 54 103 113 103c54 0 95 -47 95 -103c0 -52 -43 -95 -95 -95
c-9 0 -18 1 -27 4c25 -37 66 -61 113 -61c95 0 156 93 162 191c1 19 2 38 2 57c0 29 -1 58 -3 87c-29 -5 -58 -8 -88 -8c-189 0 -333 173 -333 376c0 177 129 308 244 443c-20 62 -40 124 -48 189c-7 52 -7 105 -7 158c0 114 54 221 147 288c4 3 8 4 12 4c5 0 9 -2 13 -5
c72 -83 135 -243 135 -356c0 -142 -84 -255 -176 -364c21 -68 40 -136 57 -205zM463 -201c65 24 110 94 110 161c0 88 -64 175 -167 188c24 -114 44 -227 57 -349zM77 25c0 -133 128 -243 261 -243c27 0 55 1 81 5c-13 126 -35 244 -60 362c-79 -8 -124 -60 -124 -118
c0 -43 25 -88 80 -120c5 -5 7 -11 7 -17c0 -12 -10 -23 -23 -23c-3 0 -7 1 -10 2c-81 43 -118 115 -118 186c0 89 60 177 163 200c-14 57 -30 113 -47 169c-105 -122 -210 -243 -210 -403zM403 1038c-99 -46 -161 -145 -161 -254c0 -71 21 -130 39 -188
c78 97 142 199 142 324c0 51 -4 72 -20 118z" fill="currentColor"/>
<path transform="translate(16.7516, 25.6843) scale(0.0040, -0.0040)" d="M-8 375c8 5 18 7 27 7s18 -2 26 -7l-3 -192l102 23h4c10 0 19 -8 19 -18l8 -563c-8 -5 -18 -7 -27 -7s-18 2 -26 7l2 192l-101 -23h-4c-10 0 -19 8 -19 18zM128 110l-87 -19l-3 -201l88 19z" fill="currentColor"/>
<path transform="translate(15.2812, 22.6843) scale(0.0040, -0.0040)" d="M198 -329c-12 0 -21 9 -21 21v138l-79 -30v-154c0 -12 -9 -21 -21 -21s-21 9 -21 21v138l-22 -8c-3 -1 -6 -2 -9 -2c-13 0 -25 11 -25 25v54c0 10 6 20 16 24l40 15v155l-22 -9c-3 -1 -6 -1 -9 -1c-13 0 -25 11 -25 25v54c0 10 6 19 16 23l40 15v154c0 12 9 21 21 21
s21 -9 21 -21v-138l79 30v154c0 12 9 21 21 21s21 -9 21 -21v-138l22 8c3 1 6 2 9 2c13 0 25 -11 25 -25v-54c0 -10 -6 -20 -16 -24l-40 -15v-155l22 9c3 1 6 1 9 1c13 0 25 -11 25 -25v-54c0 -10 -6 -19 -16 -23l-40 -15v-154c0 -12 -9 -21 -21 -21zM98 62v-154l79 30v154z
" fill="currentColor"/>
<a style="color:inherit;" xlink:href="textedit://C:/Users/trocado/OneDrive/Documents/Practice-log/assets/014-rotations.ly:49:2:3">
<path transform="translate(52.3421, 22.1843) scale(0.0040, -0.0040)" d="M210 110c-49 0 -67 -43 -67 -88c0 -74 56 -132 129 -132c49 0 67 43 67 88c0 74 -56 132 -129 132zM482 0c0 -43 -33 -76 -71 -98c-51 -30 -111 -40 -170 -40s-119 10 -170 40c-38 22 -71 55 -71 98s33 76 71 98c51 30 111 40 170 40s119 -10 170 -40
c38 -22 71 -55 71 -98z" fill="currentColor"/>
</a>
<a style="color:inherit;" xlink:href="textedit://C:/Users/trocado/OneDrive/Documents/Practice-log/assets/014-rotations.ly:49:5:6">
<path transform="translate(52.3421, 19.1843) scale(0.0040, -0.0040)" d="M210 110c-49 0 -67 -43 -67 -88c0 -74 56 -132 129 -132c49 0 67 43 67 88c0 74 -56 132 -129 132zM482 0c0 -43 -33 -76 -71 -98c-51 -30 -111 -40 -170 -40s-119 10 -170 40c-38 22 -71 55 -71 98s33 76 71 98c51 30 111 40 170 40s119 -10 170 -40
c38 -22 71 -55 71 -98z" fill="currentColor"/>
</a>
<a style="color:inherit;" xlink:href="textedit://C:/Users/trocado/OneDrive/Documents/Practice-log/assets/014-rotations.ly:49:11:12">
<path transform="translate(52.3421, 17.6843) scale(0.0040, -0.0040)" d="M210 110c-49 0 -67 -43 -67 -88c0 -74 56 -132 129 -132c49 0 67 43 67 88c0 74 -56 132 -129 132zM482 0c0 -43 -33 -76 -71 -98c-51 -30 -111 -40 -170 -40s-119 10 -170 40c-38 22 -71 55 -71 98s33 76 71 98c51 30 111 40 170 40s119 -10 170 -40
c38 -22 71 -55 71 -98z" fill="currentColor"/>
</a>
<path transform="translate(51.1921, 17.6843) scale(0.0040, -0.0040)" d="M31 37l-2 -62v-11c0 -22 2 -43 5 -64c43 38 89 80 89 137c0 32 -14 65 -42 65c-31 0 -49 -32 -50 -65zM-16 -140l-14 590c9 5 20 8 30 8s21 -3 30 -8l-8 -340c25 24 59 38 94 38c50 0 84 -50 84 -104c0 -78 -83 -117 -141 -169c-17 -15 -25 -44 -49 -44
c-15 0 -26 13 -26 29z" fill="currentColor"/>
<a style="color:inherit;" xlink:href="textedit://C:/Users/trocado/OneDrive/Documents/Practice-log/assets/014-rotations.ly:48:2:3">
<path transform="translate(40.8264, 22.6843) scale(0.0040, -0.0040)" d="M210 110c-49 0 -67 -43 -67 -88c0 -74 56 -132 129 -132c49 0 67 43 67 88c0 74 -56 132 -129 132zM482 0c0 -43 -33 -76 -71 -98c-51 -30 -111 -40 -170 -40s-119 10 -170 40c-38 22 -71 55 -71 98s33 76 71 98c51 30 111 40 170 40s119 -10 170 -40
c38 -22 71 -55 71 -98z" fill="currentColor"/>
</a>
<a style="color:inherit;" xlink:href="textedit://C:/Users/trocado/OneDrive/Documents/Practice-log/assets/014-rotations.ly:48:7:8">
<path transform="translate(40.8264, 21.1843) scale(0.0040, -0.0040)" d="M210 110c-49 0 -67 -43 -67 -88c0 -74 56 -132 129 -132c49 0 67 43 67 88c0 74 -56 132 -129 132zM482 0c0 -43 -33 -76 -71 -98c-51 -30 -111 -40 -170 -40s-119 10 -170 40c-38 22 -71 55 -71 98s33 76 71 98c51 30 111 40 170 40s119 -10 170 -40
c38 -22 71 -55 71 -98z" fill="currentColor"/>
</a>
<a style="color:inherit;" xlink:href="textedit://C:/Users/trocado/OneDrive/Documents/Practice-log/assets/014-rotations.ly:48:12:13">
<path transform="translate(40.8264, 18.6843) scale(0.0040, -0.0040)" d="M210 110c-49 0 -67 -43 -67 -88c0 -74 56 -132 129 -132c49 0 67 43 67 88c0 74 -56 132 -129 132zM482 0c0 -43 -33 -76 -71 -98c-51 -30 -111 -40 -170 -40s-119 10 -170 40c-38 22 -71 55 -71 98s33 76 71 98c51 30 111 40 170 40s119 -10 170 -40
c38 -22 71 -55 71 -98z" fill="currentColor"/>
</a>
<path transform="translate(39.7828, 18.6843) scale(0.0040, -0.0040)" d="M-8 375c8 5 18 7 27 7s18 -2 26 -7l-3 -192l102 23h4c10 0 19 -8 19 -18l8 -563c-8 -5 -18 -7 -27 -7s-18 2 -26 7l2 192l-101 -23h-4c-10 0 -19 8 -19 18zM128 110l-87 -19l-3 -201l88 19z" fill="currentColor"/>
<rect transform="translate(98.4046, 34.2732)" x="0.0000" y="-2.0000" width="0.2316" height="4.0000" ry="0.0000" fill="currentColor"/>
<line transform="translate(0.0000, 36.2732)" stroke-linejoin="round" stroke-linecap="round" stroke-width="0.1219" stroke="currentColor" x1="0.0610" y1="-0.0000" x2="98.5753" y2="-0.0000"/>
<line transform="translate(0.0000, 35.2732)" stroke-linejoin="round" stroke-linecap="round" stroke-width="0.1219" stroke="currentColor" x1="0.0610" y1="-0.0000" x2="98.5753" y2="-0.0000"/>
<line transform="translate(0.0000, 34.2732)" stroke-linejoin="round" stroke-linecap="round" stroke-width="0.1219" stroke="currentColor" x1="0.0610" y1="-0.0000" x2="98.5753" y2="-0.0000"/>
<line transform="translate(0.0000, 33.2732)" stroke-linejoin="round" stroke-linecap="round" stroke-width="0.1219" stroke="currentColor" x1="0.0610" y1="-0.0000" x2="98.5753" y2="-0.0000"/>
<line transform="translate(0.0000, 32.2732)" stroke-linejoin="round" stroke-linecap="round" stroke-width="0.1219" stroke="currentColor" x1="0.0610" y1="-0.0000" x2="98.5753" y2="-0.0000"/>
<rect transform="translate(0.0000, 31.2732)" x="86.6126" y="-0.1110" width="2.6501" height="0.2219" ry="0.1110" fill="currentColor"/>
<rect transform="translate(0.0000, 31.2732)" x="75.1290" y="-0.1110" width="2.5834" height="0.2219" ry="0.1110" fill="currentColor"/>
<rect transform="translate(0.0000, 29.2732)" x="63.2720" y="-0.1110" width="2.8901" height="0.2219" ry="0.1110" fill="currentColor"/>
<rect transform="translate(0.0000, 30.2732)" x="63.2720" y="-0.1110" width="2.8901" height="0.2219" ry="0.1110" fill="currentColor"/>
<rect transform="translate(0.0000, 31.2732)" x="63.2720" y="-0.1110" width="2.8901" height="0.2219" ry="0.1110" fill="currentColor"/>
<rect transform="translate(0.0000, 31.2732)" x="51.9617" y="-0.1110" width="2.6501" height="0.2219" ry="0.1110" fill="currentColor"/>
<rect transform="translate(0.0000, 31.2732)" x="40.4781" y="-0.1110" width="2.5834" height="0.2219" ry="0.1110" fill="currentColor"/>
<rect transform="translate(0.0000, 37.2732)" x="28.6211" y="-0.1110" width="2.8901" height="0.2219" ry="0.1110" fill="currentColor"/>
<rect transform="translate(0.0000, 38.2732)" x="28.8611" y="-0.1110" width="2.6501" height="0.2219" ry="0.1110" fill="currentColor"/>
<rect transform="translate(0.0000, 37.2732)" x="17.0708" y="-0.1110" width="2.8901" height="0.2219" ry="0.1110" fill="currentColor"/>
<rect transform="translate(0.0000, 38.2732)" x="17.3775" y="-0.1110" width="2.5834" height="0.2219" ry="0.1110" fill="currentColor"/>
<rect transform="translate(0.0000, 37.2732)" x="5.5205" y="-0.1110" width="2.8901" height="0.2219" ry="0.1110" fill="currentColor"/>
<rect transform="translate(0.0000, 38.2732)" x="5.5205" y="-0.1110" width="2.8901" height="0.2219" ry="0.1110" fill="currentColor"/>
<rect transform="translate(0.0000, 39.2732)" x="5.5205" y="-0.1110" width="2.8901" height="0.2219" ry="0.1110" fill="currentColor"/>
<path transform="translate(62.6037, 34.7732) scale(0.0040, -0.0040)" d="M-8 375c8 5 18 7 27 7s18 -2 26 -7l-3 -192l102 23h4c10 0 19 -8 19 -18l8 -563c-8 -5 -18 -7 -27 -7s-18 2 -26 7l2 192l-101 -23h-4c-10 0 -19 8 -19 18zM128 110l-87 -19l-3 -201l88 19z" fill="currentColor"/>
<a style="color:inherit;" xlink:href="textedit://C:/Users/trocado/OneDrive/Documents/Practice-log/assets/014-rotations.ly:61:2:3">
<path transform="translate(52.2034, 34.7732) scale(0.0040, -0.0040)" d="M210 110c-49 0 -67 -43 -67 -88c0 -74 56 -132 129 -132c49 0 67 43 67 88c0 74 -56 132 -129 132zM482 0c0 -43 -33 -76 -71 -98c-51 -30 -111 -40 -170 -40s-119 10 -170 40c-38 22 -71 55 -71 98s33 76 71 98c51 30 111 40 170 40s119 -10 170 -40
c38 -22 71 -55 71 -98z" fill="currentColor"/>
</a>
<path transform="translate(62.6037, 31.2732) scale(0.0040, -0.0040)" d="M31 37l-2 -62v-11c0 -22 2 -43 5 -64c43 38 89 80 89 137c0 32 -14 65 -42 65c-31 0 -49 -32 -50 -65zM-16 -140l-14 590c9 5 20 8 30 8s21 -3 30 -8l-8 -340c25 24 59 38 94 38c50 0 84 -50 84 -104c0 -78 -83 -117 -141 -169c-17 -15 -25 -44 -49 -44
c-15 0 -26 13 -26 29z" fill="currentColor"/>
<a style="color:inherit;" xlink:href="textedit://C:/Users/trocado/OneDrive/Documents/Practice-log/assets/014-rotations.ly:64:2:3">
<path transform="translate(75.3040, 35.7732) scale(0.0040, -0.0040)" d="M210 110c-49 0 -67 -43 -67 -88c0 -74 56 -132 129 -132c49 0 67 43 67 88c0 74 -56 132 -129 132zM482 0c0 -43 -33 -76 -71 -98c-51 -30 -111 -40 -170 -40s-119 10 -170 40c-38 22 -71 55 -71 98s33 76 71 98c51 30 111 40 170 40s119 -10 170 -40
c38 -22 71 -55 71 -98z" fill="currentColor"/>
</a>
<a style="color:inherit;" xlink:href="textedit://C:/Users/trocado/OneDrive/Documents/Practice-log/assets/014-rotations.ly:64:6:7">
<path transform="translate(75.3040, 34.7732) scale(0.0040, -0.0040)" d="M210 110c-49 0 -67 -43 -67 -88c0 -74 56 -132 129 -132c49 0 67 43 67 88c0 74 -56 132 -129 132zM482 0c0 -43 -33 -76 -71 -98c-51 -30 -111 -40 -170 -40s-119 10 -170 40c-38 22 -71 55 -71 98s33 76 71 98c51 30 111 40 170 40s119 -10 170 -40
c38 -22 71 -55 71 -98z" fill="currentColor"/>
</a>
<path transform="translate(61.5837, 28.7732) scale(0.0040, -0.0040)" d="M-8 375c8 5 18 7 27 7s18 -2 26 -7l-3 -192l102 23h4c10 0 19 -8 19 -18l8 -563c-8 -5 -18 -7 -27 -7s-18 2 -26 7l2 192l-101 -23h-4c-10 0 -19 8 -19 18zM128 110l-87 -19l-3 -201l88 19z" fill="currentColor"/>
<text transform="translate(74.5040, 29.9299)" font-family="serif" font-style="italic" font-size="2.1999" text-anchor="start" fill="currentColor">
<tspan>
8va</tspan>
</text>
<line transform="translate(89.3810, 29.2243)" stroke-linejoin="round" stroke-linecap="round" stroke-width="0.1219" stroke="currentColor" x1="0" y1="0" x2="0.0000" y2="0.8000" stroke-dasharray="1.0,0.0"/>
<line transform="translate(77.9452, 29.2243)" stroke-linejoin="round" stroke-linecap="round" stroke-width="0.1219" stroke="currentColor" x1="0" y1="0" x2="0.0000" y2="-0.0000" stroke-dasharray="1.0,0.0"/>
<line transform="translate(77.9452, 29.2243)" stroke-linejoin="round" stroke-linecap="round" stroke-width="0.1219" stroke="currentColor" x1="0" y1="0" x2="11.4358" y2="-0.0000" stroke-dasharray="0.303606058346438,0.708414136141688"/>
<a style="color:inherit;" xlink:href="textedit://C:/Users/trocado/OneDrive/Documents/Practice-log/assets/014-rotations.ly:61:7:8">
<path transform="translate(52.2034, 32.2732) scale(0.0040, -0.0040)" d="M210 110c-49 0 -67 -43 -67 -88c0 -74 56 -132 129 -132c49 0 67 43 67 88c0 74 -56 132 -129 132zM482 0c0 -43 -33 -76 -71 -98c-51 -30 -111 -40 -170 -40s-119 10 -170 40c-38 22 -71 55 -71 98s33 76 71 98c51 30 111 40 170 40s119 -10 170 -40
c38 -22 71 -55 71 -98z" fill="currentColor"/>
</a>
<a style="color:inherit;" xlink:href="textedit://C:/Users/trocado/OneDrive/Documents/Practice-log/assets/014-rotations.ly:61:11:12">
<path transform="translate(52.2034, 31.2732) scale(0.0040, -0.0040)" d="M210 110c-49 0 -67 -43 -67 -88c0 -74 56 -132 129 -132c49 0 67 43 67 88c0 74 -56 132 -129 132zM482 0c0 -43 -33 -76 -71 -98c-51 -30 -111 -40 -170 -40s-119 10 -170 40c-38 22 -71 55 -71 98s33 76 71 98c51 30 111 40 170 40s119 -10 170 -40
c38 -22 71 -55 71 -98z" fill="currentColor"/>
</a>
<path transform="translate(51.0534, 34.7732) scale(0.0040, -0.0040)" d="M31 37l-2 -62v-11c0 -22 2 -43 5 -64c43 38 89 80 89 137c0 32 -14 65 -42 65c-31 0 -49 -32 -50 -65zM-16 -140l-14 590c9 5 20 8 30 8s21 -3 30 -8l-8 -340c25 24 59 38 94 38c50 0 84 -50 84 -104c0 -78 -83 -117 -141 -169c-17 -15 -25 -44 -49 -44
c-15 0 -26 13 -26 29z" fill="currentColor"/>
<path transform="translate(51.0534, 31.2732) scale(0.0040, -0.0040)" d="M-8 375c8 5 18 7 27 7s18 -2 26 -7l-3 -192l102 23h4c10 0 19 -8 19 -18l8 -563c-8 -5 -18 -7 -27 -7s-18 2 -26 7l2 192l-101 -23h-4c-10 0 -19 8 -19 18zM128 110l-87 -19l-3 -201l88 19z" fill="currentColor"/>
<a style="color:inherit;" xlink:href="textedit://C:/Users/trocado/OneDrive/Documents/Practice-log/assets/014-rotations.ly:62:2:3">
<path transform="translate(63.7537, 34.7732) scale(0.0040, -0.0040)" d="M210 110c-49 0 -67 -43 -67 -88c0 -74 56 -132 129 -132c49 0 67 43 67 88c0 74 -56 132 -129 132zM482 0c0 -43 -33 -76 -71 -98c-51 -30 -111 -40 -170 -40s-119 10 -170 40c-38 22 -71 55 -71 98s33 76 71 98c51 30 111 40 170 40s119 -10 170 -40
c38 -22 71 -55 71 -98z" fill="currentColor"/>
</a>
<a style="color:inherit;" xlink:href="textedit://C:/Users/trocado/OneDrive/Documents/Practice-log/assets/014-rotations.ly:62:5:6">
<path transform="translate(63.7537, 31.2732) scale(0.0040, -0.0040)" d="M210 110c-49 0 -67 -43 -67 -88c0 -74 56 -132 129 -132c49 0 67 43 67 88c0 74 -56 132 -129 132zM482 0c0 -43 -33 -76 -71 -98c-51 -30 -111 -40 -170 -40s-119 10 -170 40c-38 22 -71 55 -71 98s33 76 71 98c51 30 111 40 170 40s119 -10 170 -40
c38 -22 71 -55 71 -98z" fill="currentColor"/>
</a>
<a style="color:inherit;" xlink:href="textedit://C:/Users/trocado/OneDrive/Documents/Practice-log/assets/014-rotations.ly:62:11:12">
<path transform="translate(63.7537, 28.7732) scale(0.0040, -0.0040)" d="M210 110c-49 0 -67 -43 -67 -88c0 -74 56 -132 129 -132c49 0 67 43 67 88c0 74 -56 132 -129 132zM482 0c0 -43 -33 -76 -71 -98c-51 -30 -111 -40 -170 -40s-119 10 -170 40c-38 22 -71 55 -71 98s33 76 71 98c51 30 111 40 170 40s119 -10 170 -40
c38 -22 71 -55 71 -98z" fill="currentColor"/>
</a>
<path transform="translate(85.7043, 31.2732) scale(0.0040, -0.0040)" d="M-8 375c8 5 18 7 27 7s18 -2 26 -7l-3 -192l102 23h4c10 0 19 -8 19 -18l8 -563c-8 -5 -18 -7 -27 -7s-18 2 -26 7l2 192l-101 -23h-4c-10 0 -19 8 -19 18zM128 110l-87 -19l-3 -201l88 19z" fill="currentColor"/>
<path transform="translate(85.7043, 34.7732) scale(0.0040, -0.0040)" d="M31 37l-2 -62v-11c0 -22 2 -43 5 -64c43 38 89 80 89 137c0 32 -14 65 -42 65c-31 0 -49 -32 -50 -65zM-16 -140l-14 590c9 5 20 8 30 8s21 -3 30 -8l-8 -340c25 24 59 38 94 38c50 0 84 -50 84 -104c0 -78 -83 -117 -141 -169c-17 -15 -25 -44 -49 -44
c-15 0 -26 13 -26 29z" fill="currentColor"/>
<a style="color:inherit;" xlink:href="textedit://C:/Users/trocado/OneDrive/Documents/Practice-log/assets/014-rotations.ly:65:13:14">
<path transform="translate(86.8543, 31.2732) scale(0.0040, -0.0040)" d="M210 110c-49 0 -67 -43 -67 -88c0 -74 56 -132 129 -132c49 0 67 43 67 88c0 74 -56 132 -129 132zM482 0c0 -43 -33 -76 -71 -98c-51 -30 -111 -40 -170 -40s-119 10 -170 40c-38 22 -71 55 -71 98s33 76 71 98c51 30 111 40 170 40s119 -10 170 -40
c38 -22 71 -55 71 -98z" fill="currentColor"/>
</a>
<a style="color:inherit;" xlink:href="textedit://C:/Users/trocado/OneDrive/Documents/Practice-log/assets/014-rotations.ly:65:8:9">
<path transform="translate(86.8543, 32.2732) scale(0.0040, -0.0040)" d="M210 110c-49 0 -67 -43 -67 -88c0 -74 56 -132 129 -132c49 0 67 43 67 88c0 74 -56 132 -129 132zM482 0c0 -43 -33 -76 -71 -98c-51 -30 -111 -40 -170 -40s-119 10 -170 40c-38 22 -71 55 -71 98s33 76 71 98c51 30 111 40 170 40s119 -10 170 -40
c38 -22 71 -55 71 -98z" fill="currentColor"/>
</a>
<a style="color:inherit;" xlink:href="textedit://C:/Users/trocado/OneDrive/Documents/Practice-log/assets/014-rotations.ly:65:2:3">
<path transform="translate(86.8543, 34.7732) scale(0.0040, -0.0040)" d="M210 110c-49 0 -67 -43 -67 -88c0 -74 56 -132 129 -132c49 0 67 43 67 88c0 74 -56 132 -129 132zM482 0c0 -43 -33 -76 -71 -98c-51 -30 -111 -40 -170 -40s-119 10 -170 40c-38 22 -71 55 -71 98s33 76 71 98c51 30 111 40 170 40s119 -10 170 -40
c38 -22 71 -55 71 -98z" fill="currentColor"/>
</a>
<a style="color:inherit;" xlink:href="textedit://C:/Users/trocado/OneDrive/Documents/Practice-log/assets/014-rotations.ly:64:10:11">
<path transform="translate(75.3040, 31.2732) scale(0.0040, -0.0040)" d="M210 110c-49 0 -67 -43 -67 -88c0 -74 56 -132 129 -132c49 0 67 43 67 88c0 74 -56 132 -129 132zM482 0c0 -43 -33 -76 -71 -98c-51 -30 -111 -40 -170 -40s-119 10 -170 40c-38 22 -71 55 -71 98s33 76 71 98c51 30 111 40 170 40s119 -10 170 -40
c38 -22 71 -55 71 -98z" fill="currentColor"/>
</a>
<path transform="translate(74.1540, 34.7732) scale(0.0040, -0.0040)" d="M-8 375c8 5 18 7 27 7s18 -2 26 -7l-3 -192l102 23h4c10 0 19 -8 19 -18l8 -563c-8 -5 -18 -7 -27 -7s-18 2 -26 7l2 192l-101 -23h-4c-10 0 -19 8 -19 18zM128 110l-87 -19l-3 -201l88 19z" fill="currentColor"/>
<path transform="translate(74.1540, 31.2732) scale(0.0040, -0.0040)" d="M31 37l-2 -62v-11c0 -22 2 -43 5 -64c43 38 89 80 89 137c0 32 -14 65 -42 65c-31 0 -49 -32 -50 -65zM-16 -140l-14 590c9 5 20 8 30 8s21 -3 30 -8l-8 -340c25 24 59 38 94 38c50 0 84 -50 84 -104c0 -78 -83 -117 -141 -169c-17 -15 -25 -44 -49 -44
c-15 0 -26 13 -26 29z" fill="currentColor"/>
<path transform="translate(4.8522, 38.2732) scale(0.0040, -0.0040)" d="M-8 375c8 5 18 7 27 7s18 -2 26 -7l-3 -192l102 23h4c10 0 19 -8 19 -18l8 -563c-8 -5 -18 -7 -27 -7s-18 2 -26 7l2 192l-101 -23h-4c-10 0 -19 8 -19 18zM128 110l-87 -19l-3 -201l88 19z" fill="currentColor"/>
<path transform="translate(4.8522, 34.7732) scale(0.0040, -0.0040)" d="M31 37l-2 -62v-11c0 -22 2 -43 5 -64c43 38 89 80 89 137c0 32 -14 65 -42 65c-31 0 -49 -32 -50 -65zM-16 -140l-14 590c9 5 20 8 30 8s21 -3 30 -8l-8 -340c25 24 59 38 94 38c50 0 84 -50 84 -104c0 -78 -83 -117 -141 -169c-17 -15 -25 -44 -49 -44
c-15 0 -26 13 -26 29z" fill="currentColor"/>
<a style="color:inherit;" xlink:href="textedit://C:/Users/trocado/OneDrive/Documents/Practice-log/assets/014-rotations.ly:58:2:3">
<path transform="translate(17.5525, 38.2732) scale(0.0040, -0.0040)" d="M210 110c-49 0 -67 -43 -67 -88c0 -74 56 -132 129 -132c49 0 67 43 67 88c0 74 -56 132 -129 132zM482 0c0 -43 -33 -76 -71 -98c-51 -30 -111 -40 -170 -40s-119 10 -170 40c-38 22 -71 55 -71 98s33 76 71 98c51 30 111 40 170 40s119 -10 170 -40
c38 -22 71 -55 71 -98z" fill="currentColor"/>
</a>
<a style="color:inherit;" xlink:href="textedit://C:/Users/trocado/OneDrive/Documents/Practice-log/assets/014-rotations.ly:58:6:7">
<path transform="translate(17.5525, 35.7732) scale(0.0040, -0.0040)" d="M210 110c-49 0 -67 -43 -67 -88c0 -74 56 -132 129 -132c49 0 67 43 67 88c0 74 -56 132 -129 132zM482 0c0 -43 -33 -76 -71 -98c-51 -30 -111 -40 -170 -40s-119 10 -170 40c-38 22 -71 55 -71 98s33 76 71 98c51 30 111 40 170 40s119 -10 170 -40
c38 -22 71 -55 71 -98z" fill="currentColor"/>
</a>
<a style="color:inherit;" xlink:href="textedit://C:/Users/trocado/OneDrive/Documents/Practice-log/assets/014-rotations.ly:58:9:10">
<path transform="translate(17.5525, 34.7732) scale(0.0040, -0.0040)" d="M210 110c-49 0 -67 -43 -67 -88c0 -74 56 -132 129 -132c49 0 67 43 67 88c0 74 -56 132 -129 132zM482 0c0 -43 -33 -76 -71 -98c-51 -30 -111 -40 -170 -40s-119 10 -170 40c-38 22 -71 55 -71 98s33 76 71 98c51 30 111 40 170 40s119 -10 170 -40
c38 -22 71 -55 71 -98z" fill="currentColor"/>
</a>
<path transform="translate(3.9650, 39.2732) scale(0.0040, -0.0040)" d="M-8 375c8 5 18 7 27 7s18 -2 26 -7l-3 -192l102 23h4c10 0 19 -8 19 -18l8 -563c-8 -5 -18 -7 -27 -7s-18 2 -26 7l2 192l-101 -23h-4c-10 0 -19 8 -19 18zM128 110l-87 -19l-3 -201l88 19z" fill="currentColor"/>
<path transform="translate(16.4025, 38.2732) scale(0.0040, -0.0040)" d="M31 37l-2 -62v-11c0 -22 2 -43 5 -64c43 38 89 80 89 137c0 32 -14 65 -42 65c-31 0 -49 -32 -50 -65zM-16 -140l-14 590c9 5 20 8 30 8s21 -3 30 -8l-8 -340c25 24 59 38 94 38c50 0 84 -50 84 -104c0 -78 -83 -117 -141 -169c-17 -15 -25 -44 -49 -44
c-15 0 -26 13 -26 29z" fill="currentColor"/>
<path transform="translate(15.3825, 35.7732) scale(0.0040, -0.0040)" d="M-8 375c8 5 18 7 27 7s18 -2 26 -7l-3 -192l102 23h4c10 0 19 -8 19 -18l8 -563c-8 -5 -18 -7 -27 -7s-18 2 -26 7l2 192l-101 -23h-4c-10 0 -19 8 -19 18zM128 110l-87 -19l-3 -201l88 19z" fill="currentColor"/>
<path transform="translate(16.4025, 34.7732) scale(0.0040, -0.0040)" d="M-8 375c8 5 18 7 27 7s18 -2 26 -7l-3 -192l102 23h4c10 0 19 -8 19 -18l8 -563c-8 -5 -18 -7 -27 -7s-18 2 -26 7l2 192l-101 -23h-4c-10 0 -19 8 -19 18zM128 110l-87 -19l-3 -201l88 19z" fill="currentColor"/>
<path transform="translate(0.8000, 35.2732) scale(0.0040, -0.0040)" d="M379 264c3 0 7 1 10 1c157 0 258 -129 258 -263c0 -77 -33 -155 -108 -211c-22 -16 -46 -29 -72 -37c3 -33 4 -66 4 -99c0 -21 0 -41 -1 -62c-7 -121 -91 -229 -211 -229c-108 0 -196 88 -196 197c0 58 54 103 113 103c54 0 95 -47 95 -103c0 -52 -43 -95 -95 -95
c-9 0 -18 1 -27 4c25 -37 66 -61 113 -61c95 0 156 93 162 191c1 19 2 38 2 57c0 29 -1 58 -3 87c-29 -5 -58 -8 -88 -8c-189 0 -333 173 -333 376c0 177 129 308 244 443c-20 62 -40 124 -48 189c-7 52 -7 105 -7 158c0 114 54 221 147 288c4 3 8 4 12 4c5 0 9 -2 13 -5
c72 -83 135 -243 135 -356c0 -142 -84 -255 -176 -364c21 -68 40 -136 57 -205zM463 -201c65 24 110 94 110 161c0 88 -64 175 -167 188c24 -114 44 -227 57 -349zM77 25c0 -133 128 -243 261 -243c27 0 55 1 81 5c-13 126 -35 244 -60 362c-79 -8 -124 -60 -124 -118
c0 -43 25 -88 80 -120c5 -5 7 -11 7 -17c0 -12 -10 -23 -23 -23c-3 0 -7 1 -10 2c-81 43 -118 115 -118 186c0 89 60 177 163 200c-14 57 -30 113 -47 169c-105 -122 -210 -243 -210 -403zM403 1038c-99 -46 -161 -145 -161 -254c0 -71 21 -130 39 -188
c78 97 142 199 142 324c0 51 -4 72 -20 118z" fill="currentColor"/>
<a style="color:inherit;" xlink:href="textedit://C:/Users/trocado/OneDrive/Documents/Practice-log/assets/014-rotations.ly:57:2:3">
<path transform="translate(6.0022, 39.2732) scale(0.0040, -0.0040)" d="M210 110c-49 0 -67 -43 -67 -88c0 -74 56 -132 129 -132c49 0 67 43 67 88c0 74 -56 132 -129 132zM482 0c0 -43 -33 -76 -71 -98c-51 -30 -111 -40 -170 -40s-119 10 -170 40c-38 22 -71 55 -71 98s33 76 71 98c51 30 111 40 170 40s119 -10 170 -40
c38 -22 71 -55 71 -98z" fill="currentColor"/>
</a>
<a style="color:inherit;" xlink:href="textedit://C:/Users/trocado/OneDrive/Documents/Practice-log/assets/014-rotations.ly:57:4:5">
<path transform="translate(6.0022, 38.2732) scale(0.0040, -0.0040)" d="M210 110c-49 0 -67 -43 -67 -88c0 -74 56 -132 129 -132c49 0 67 43 67 88c0 74 -56 132 -129 132zM482 0c0 -43 -33 -76 -71 -98c-51 -30 -111 -40 -170 -40s-119 10 -170 40c-38 22 -71 55 -71 98s33 76 71 98c51 30 111 40 170 40s119 -10 170 -40
c38 -22 71 -55 71 -98z" fill="currentColor"/>
</a>
<a style="color:inherit;" xlink:href="textedit://C:/Users/trocado/OneDrive/Documents/Practice-log/assets/014-rotations.ly:57:6:7">
<path transform="translate(6.0022, 34.7732) scale(0.0040, -0.0040)" d="M210 110c-49 0 -67 -43 -67 -88c0 -74 56 -132 129 -132c49 0 67 43 67 88c0 74 -56 132 -129 132zM482 0c0 -43 -33 -76 -71 -98c-51 -30 -111 -40 -170 -40s-119 10 -170 40c-38 22 -71 55 -71 98s33 76 71 98c51 30 111 40 170 40s119 -10 170 -40
c38 -22 71 -55 71 -98z" fill="currentColor"/>
</a>
<a style="color:inherit;" xlink:href="textedit://C:/Users/trocado/OneDrive/Documents/Practice-log/assets/014-rotations.ly:60:8:9">
<path transform="translate(40.6531, 31.2732) scale(0.0040, -0.0040)" d="M210 110c-49 0 -67 -43 -67 -88c0 -74 56 -132 129 -132c49 0 67 43 67 88c0 74 -56 132 -129 132zM482 0c0 -43 -33 -76 -71 -98c-51 -30 -111 -40 -170 -40s-119 10 -170 40c-38 22 -71 55 -71 98s33 76 71 98c51 30 111 40 170 40s119 -10 170 -40
c38 -22 71 -55 71 -98z" fill="currentColor"/>
</a>
<path transform="translate(39.5031, 31.2732) scale(0.0040, -0.0040)" d="M31 37l-2 -62v-11c0 -22 2 -43 5 -64c43 38 89 80 89 137c0 32 -14 65 -42 65c-31 0 -49 -32 -50 -65zM-16 -140l-14 590c9 5 20 8 30 8s21 -3 30 -8l-8 -340c25 24 59 38 94 38c50 0 84 -50 84 -104c0 -78 -83 -117 -141 -169c-17 -15 -25 -44 -49 -44
c-15 0 -26 13 -26 29z" fill="currentColor"/>
<a style="color:inherit;" xlink:href="textedit://C:/Users/trocado/OneDrive/Documents/Practice-log/assets/014-rotations.ly:60:2:3">
<path transform="translate(40.6531, 35.7732) scale(0.0040, -0.0040)" d="M210 110c-49 0 -67 -43 -67 -88c0 -74 56 -132 129 -132c49 0 67 43 67 88c0 74 -56 132 -129 132zM482 0c0 -43 -33 -76 -71 -98c-51 -30 -111 -40 -170 -40s-119 10 -170 40c-38 22 -71 55 -71 98s33 76 71 98c51 30 111 40 170 40s119 -10 170 -40
c38 -22 71 -55 71 -98z" fill="currentColor"/>
</a>
<a style="color:inherit;" xlink:href="textedit://C:/Users/trocado/OneDrive/Documents/Practice-log/assets/014-rotations.ly:60:5:6">
<path transform="translate(40.6531, 34.7732) scale(0.0040, -0.0040)" d="M210 110c-49 0 -67 -43 -67 -88c0 -74 56 -132 129 -132c49 0 67 43 67 88c0 74 -56 132 -129 132zM482 0c0 -43 -33 -76 -71 -98c-51 -30 -111 -40 -170 -40s-119 10 -170 40c-38 22 -71 55 -71 98s33 76 71 98c51 30 111 40 170 40s119 -10 170 -40
c38 -22 71 -55 71 -98z" fill="currentColor"/>
</a>
<path transform="translate(39.5031, 34.7732) scale(0.0040, -0.0040)" d="M-8 375c8 5 18 7 27 7s18 -2 26 -7l-3 -192l102 23h4c10 0 19 -8 19 -18l8 -563c-8 -5 -18 -7 -27 -7s-18 2 -26 7l2 192l-101 -23h-4c-10 0 -19 8 -19 18zM128 110l-87 -19l-3 -201l88 19z" fill="currentColor"/>
<a style="color:inherit;" xlink:href="textedit://C:/Users/trocado/OneDrive/Documents/Practice-log/assets/014-rotations.ly:59:2:3">
<path transform="translate(29.1028, 38.2732) scale(0.0040, -0.0040)" d="M210 110c-49 0 -67 -43 -67 -88c0 -74 56 -132 129 -132c49 0 67 43 67 88c0 74 -56 132 -129 132zM482 0c0 -43 -33 -76 -71 -98c-51 -30 -111 -40 -170 -40s-119 10 -170 40c-38 22 -71 55 -71 98s33 76 71 98c51 30 111 40 170 40s119 -10 170 -40
c38 -22 71 -55 71 -98z" fill="currentColor"/>
</a>
<a style="color:inherit;" xlink:href="textedit://C:/Users/trocado/OneDrive/Documents/Practice-log/assets/014-rotations.ly:59:4:5">
<path transform="translate(29.1028, 34.7732) scale(0.0040, -0.0040)" d="M210 110c-49 0 -67 -43 -67 -88c0 -74 56 -132 129 -132c49 0 67 43 67 88c0 74 -56 132 -129 132zM482 0c0 -43 -33 -76 -71 -98c-51 -30 -111 -40 -170 -40s-119 10 -170 40c-38 22 -71 55 -71 98s33 76 71 98c51 30 111 40 170 40s119 -10 170 -40
c38 -22 71 -55 71 -98z" fill="currentColor"/>
</a>
<a style="color:inherit;" xlink:href="textedit://C:/Users/trocado/OneDrive/Documents/Practice-log/assets/014-rotations.ly:59:9:10">
<path transform="translate(29.1028, 32.2732) scale(0.0040, -0.0040)" d="M210 110c-49 0 -67 -43 -67 -88c0 -74 56 -132 129 -132c49 0 67 43 67 88c0 74 -56 132 -129 132zM482 0c0 -43 -33 -76 -71 -98c-51 -30 -111 -40 -170 -40s-119 10 -170 40c-38 22 -71 55 -71 98s33 76 71 98c51 30 111 40 170 40s119 -10 170 -40
c38 -22 71 -55 71 -98z" fill="currentColor"/>
</a>
<path transform="translate(27.9528, 38.2732) scale(0.0040, -0.0040)" d="M-8 375c8 5 18 7 27 7s18 -2 26 -7l-3 -192l102 23h4c10 0 19 -8 19 -18l8 -563c-8 -5 -18 -7 -27 -7s-18 2 -26 7l2 192l-101 -23h-4c-10 0 -19 8 -19 18zM128 110l-87 -19l-3 -201l88 19z" fill="currentColor"/>
<path transform="translate(27.9528, 34.7732) scale(0.0040, -0.0040)" d="M31 37l-2 -62v-11c0 -22 2 -43 5 -64c43 38 89 80 89 137c0 32 -14 65 -42 65c-31 0 -49 -32 -50 -65zM-16 -140l-14 590c9 5 20 8 30 8s21 -3 30 -8l-8 -340c25 24 59 38 94 38c50 0 84 -50 84 -104c0 -78 -83 -117 -141 -169c-17 -15 -25 -44 -49 -44
c-15 0 -26 13 -26 29z" fill="currentColor"/>
<path transform="translate(26.9328, 32.2732) scale(0.0040, -0.0040)" d="M-8 375c8 5 18 7 27 7s18 -2 26 -7l-3 -192l102 23h4c10 0 19 -8 19 -18l8 -563c-8 -5 -18 -7 -27 -7s-18 2 -26 7l2 192l-101 -23h-4c-10 0 -19 8 -19 18zM128 110l-87 -19l-3 -201l88 19z" fill="currentColor"/>
<line transform="translate(0.0000, 49.8539)" stroke-linejoin="round" stroke-linecap="round" stroke-width="0.1219" stroke="currentColor" x1="0.0610" y1="-0.0000" x2="98.5753" y2="-0.0000"/>
<line transform="translate(0.0000, 48.8539)" stroke-linejoin="round" stroke-linecap="round" stroke-width="0.1219" stroke="currentColor" x1="0.0610" y1="-0.0000" x2="98.5753" y2="-0.0000"/>
<line transform="translate(0.0000, 47.8539)" stroke-linejoin="round" stroke-linecap="round" stroke-width="0.1219" stroke="currentColor" x1="0.0610" y1="-0.0000" x2="98.5753" y2="-0.0000"/>
<line transform="translate(0.0000, 46.8539)" stroke-linejoin="round" stroke-linecap="round" stroke-width="0.1219" stroke="currentColor" x1="0.0610" y1="-0.0000" x2="98.5753" y2="-0.0000"/>
<line transform="translate(0.0000, 45.8539)" stroke-linejoin="round" stroke-linecap="round" stroke-width="0.1219" stroke="currentColor" x1="0.0610" y1="-0.0000" x2="98.5753" y2="-0.0000"/>
<rect transform="translate(97.9048, 47.8539)" x="0.0000" y="-2.0000" width="0.7314" height="4.0000" ry="0.0000" fill="currentColor"/>
<rect transform="translate(97.3075, 47.8539)" x="0.0000" y="-2.0000" width="0.2316" height="4.0000" ry="0.0000" fill="currentColor"/>
<rect transform="translate(0.0000, 43.8539)" x="84.1009" y="-0.1110" width="2.5969" height="0.2219" ry="0.1110" fill="currentColor"/>
<rect transform="translate(0.0000, 44.8539)" x="83.8077" y="-0.1110" width="2.8901" height="0.2219" ry="0.1110" fill="currentColor"/>
<rect transform="translate(0.0000, 44.8539)" x="71.0829" y="-0.1110" width="2.5969" height="0.2219" ry="0.1110" fill="currentColor"/>
<rect transform="translate(0.0000, 42.8539)" x="58.0783" y="-0.1110" width="2.5834" height="0.2219" ry="0.1110" fill="currentColor"/>
<rect transform="translate(0.0000, 43.8539)" x="57.7716" y="-0.1110" width="2.8901" height="0.2219" ry="0.1110" fill="currentColor"/>
<rect transform="translate(0.0000, 44.8539)" x="57.7716" y="-0.1110" width="2.8901" height="0.2219" ry="0.1110" fill="currentColor"/>
<rect transform="translate(0.0000, 43.8539)" x="45.0468" y="-0.1110" width="2.5969" height="0.2219" ry="0.1110" fill="currentColor"/>
<rect transform="translate(0.0000, 44.8539)" x="44.7536" y="-0.1110" width="2.8901" height="0.2219" ry="0.1110" fill="currentColor"/>
<rect transform="translate(0.0000, 44.8539)" x="32.0288" y="-0.1110" width="2.5969" height="0.2219" ry="0.1110" fill="currentColor"/>
<rect transform="translate(0.0000, 50.8539)" x="5.9927" y="-0.1110" width="2.5969" height="0.2219" ry="0.1110" fill="currentColor"/>
<path transform="translate(57.1033, 42.8539) scale(0.0040, -0.0040)" d="M31 37l-2 -62v-11c0 -22 2 -43 5 -64c43 38 89 80 89 137c0 32 -14 65 -42 65c-31 0 -49 -32 -50 -65zM-16 -140l-14 590c9 5 20 8 30 8s21 -3 30 -8l-8 -340c25 24 59 38 94 38c50 0 84 -50 84 -104c0 -78 -83 -117 -141 -169c-17 -15 -25 -44 -49 -44
c-15 0 -26 13 -26 29z" fill="currentColor"/>
<a style="color:inherit;" xlink:href="textedit://C:/Users/trocado/OneDrive/Documents/Practice-log/assets/014-rotations.ly:75:2:3">
<path transform="translate(71.2714, 49.8539) scale(0.0040, -0.0040)" d="M210 110c-49 0 -67 -43 -67 -88c0 -74 56 -132 129 -132c49 0 67 43 67 88c0 74 -56 132 -129 132zM482 0c0 -43 -33 -76 -71 -98c-51 -30 -111 -40 -170 -40s-119 10 -170 40c-38 22 -71 55 -71 98s33 76 71 98c51 30 111 40 170 40s119 -10 170 -40
c38 -22 71 -55 71 -98z" fill="currentColor"/>
</a>
<a style="color:inherit;" xlink:href="textedit://C:/Users/trocado/OneDrive/Documents/Practice-log/assets/014-rotations.ly:75:8:9">
<path transform="translate(71.2714, 46.8539) scale(0.0040, -0.0040)" d="M210 110c-49 0 -67 -43 -67 -88c0 -74 56 -132 129 -132c49 0 67 43 67 88c0 74 -56 132 -129 132zM482 0c0 -43 -33 -76 -71 -98c-51 -30 -111 -40 -170 -40s-119 10 -170 40c-38 22 -71 55 -71 98s33 76 71 98c51 30 111 40 170 40s119 -10 170 -40
c38 -22 71 -55 71 -98z" fill="currentColor"/>
</a>
<a style="color:inherit;" xlink:href="textedit://C:/Users/trocado/OneDrive/Documents/Practice-log/assets/014-rotations.ly:75:13:14">
<path transform="translate(71.2714, 44.3539) scale(0.0040, -0.0040)" d="M210 110c-49 0 -67 -43 -67 -88c0 -74 56 -132 129 -132c49 0 67 43 67 88c0 74 -56 132 -129 132zM482 0c0 -43 -33 -76 -71 -98c-51 -30 -111 -40 -170 -40s-119 10 -170 40c-38 22 -71 55 -71 98s33 76 71 98c51 30 111 40 170 40s119 -10 170 -40
c38 -22 71 -55 71 -98z" fill="currentColor"/>
</a>
<text transform="translate(70.4714, 42.0106)" font-family="serif" font-style="italic" font-size="2.1999" text-anchor="start" fill="currentColor">
<tspan>
8va</tspan>
</text>
<line transform="translate(86.8161, 41.3050)" stroke-linejoin="round" stroke-linecap="round" stroke-width="0.1219" stroke="currentColor" x1="0" y1="0" x2="0.0000" y2="0.8000" stroke-dasharray="1.0,0.0"/>
<line transform="translate(73.9126, 41.3050)" stroke-linejoin="round" stroke-linecap="round" stroke-width="0.1219" stroke="currentColor" x1="0" y1="0" x2="0.0000" y2="-0.0000" stroke-dasharray="1.0,0.0"/>
<line transform="translate(73.9126, 41.3050)" stroke-linejoin="round" stroke-linecap="round" stroke-width="0.1219" stroke="currentColor" x1="0" y1="0" x2="12.9036" y2="-0.0000" stroke-dasharray="0.291058084771316,0.679135531133071"/>
<path transform="translate(44.1917, 43.3539) scale(0.0040, -0.0040)" d="M-8 375c8 5 18 7 27 7s18 -2 26 -7l-3 -192l102 23h4c10 0 19 -8 19 -18l8 -563c-8 -5 -18 -7 -27 -7s-18 2 -26 7l2 192l-101 -23h-4c-10 0 -19 8 -19 18zM128 110l-87 -19l-3 -201l88 19z" fill="currentColor"/>
<a style="color:inherit;" xlink:href="textedit://C:/Users/trocado/OneDrive/Documents/Practice-log/assets/014-rotations.ly:73:2:3">
<path transform="translate(58.2533, 46.8539) scale(0.0040, -0.0040)" d="M210 110c-49 0 -67 -43 -67 -88c0 -74 56 -132 129 -132c49 0 67 43 67 88c0 74 -56 132 -129 132zM482 0c0 -43 -33 -76 -71 -98c-51 -30 -111 -40 -170 -40s-119 10 -170 40c-38 22 -71 55 -71 98s33 76 71 98c51 30 111 40 170 40s119 -10 170 -40
c38 -22 71 -55 71 -98z" fill="currentColor"/>
</a>
<a style="color:inherit;" xlink:href="textedit://C:/Users/trocado/OneDrive/Documents/Practice-log/assets/014-rotations.ly:73:6:7">
<path transform="translate(58.2533, 44.3539) scale(0.0040, -0.0040)" d="M210 110c-49 0 -67 -43 -67 -88c0 -74 56 -132 129 -132c49 0 67 43 67 88c0 74 -56 132 -129 132zM482 0c0 -43 -33 -76 -71 -98c-51 -30 -111 -40 -170 -40s-119 10 -170 40c-38 22 -71 55 -71 98s33 76 71 98c51 30 111 40 170 40s119 -10 170 -40
c38 -22 71 -55 71 -98z" fill="currentColor"/>
</a>
<a style="color:inherit;" xlink:href="textedit://C:/Users/trocado/OneDrive/Documents/Practice-log/assets/014-rotations.ly:73:10:11">
<path transform="translate(58.2533, 42.8539) scale(0.0040, -0.0040)" d="M210 110c-49 0 -67 -43 -67 -88c0 -74 56 -132 129 -132c49 0 67 43 67 88c0 74 -56 132 -129 132zM482 0c0 -43 -33 -76 -71 -98c-51 -30 -111 -40 -170 -40s-119 10 -170 40c-38 22 -71 55 -71 98s33 76 71 98c51 30 111 40 170 40s119 -10 170 -40
c38 -22 71 -55 71 -98z" fill="currentColor"/>
</a>
<path transform="translate(83.2458, 43.3539) scale(0.0040, -0.0040)" d="M-8 375c8 5 18 7 27 7s18 -2 26 -7l-3 -192l102 23h4c10 0 19 -8 19 -18l8 -563c-8 -5 -18 -7 -27 -7s-18 2 -26 7l2 192l-101 -23h-4c-10 0 -19 8 -19 18zM128 110l-87 -19l-3 -201l88 19z" fill="currentColor"/>
<path transform="translate(70.2278, 44.3539) scale(0.0040, -0.0040)" d="M-8 375c8 5 18 7 27 7s18 -2 26 -7l-3 -192l102 23h4c10 0 19 -8 19 -18l8 -563c-8 -5 -18 -7 -27 -7s-18 2 -26 7l2 192l-101 -23h-4c-10 0 -19 8 -19 18zM128 110l-87 -19l-3 -201l88 19z" fill="currentColor"/>
<a style="color:inherit;" xlink:href="textedit://C:/Users/trocado/OneDrive/Documents/Practice-log/assets/014-rotations.ly:76:2:3">
<path transform="translate(84.2894, 47.8539) scale(0.0040, -0.0040)" d="M210 110c-49 0 -67 -43 -67 -88c0 -74 56 -132 129 -132c49 0 67 43 67 88c0 74 -56 132 -129 132zM482 0c0 -43 -33 -76 -71 -98c-51 -30 -111 -40 -170 -40s-119 10 -170 40c-38 22 -71 55 -71 98s33 76 71 98c51 30 111 40 170 40s119 -10 170 -40
c38 -22 71 -55 71 -98z" fill="currentColor"/>
</a>
<a style="color:inherit;" xlink:href="textedit://C:/Users/trocado/OneDrive/Documents/Practice-log/assets/014-rotations.ly:76:6:7">
<path transform="translate(84.2894, 46.3539) scale(0.0040, -0.0040)" d="M210 110c-49 0 -67 -43 -67 -88c0 -74 56 -132 129 -132c49 0 67 43 67 88c0 74 -56 132 -129 132zM482 0c0 -43 -33 -76 -71 -98c-51 -30 -111 -40 -170 -40s-119 10 -170 40c-38 22 -71 55 -71 98s33 76 71 98c51 30 111 40 170 40s119 -10 170 -40
c38 -22 71 -55 71 -98z" fill="currentColor"/>
</a>
<a style="color:inherit;" xlink:href="textedit://C:/Users/trocado/OneDrive/Documents/Practice-log/assets/014-rotations.ly:76:13:14">
<path transform="translate(84.2894, 43.3539) scale(0.0040, -0.0040)" d="M210 110c-49 0 -67 -43 -67 -88c0 -74 56 -132 129 -132c49 0 67 43 67 88c0 74 -56 132 -129 132zM482 0c0 -43 -33 -76 -71 -98c-51 -30 -111 -40 -170 -40s-119 10 -170 40c-38 22 -71 55 -71 98s33 76 71 98c51 30 111 40 170 40s119 -10 170 -40
c38 -22 71 -55 71 -98z" fill="currentColor"/>
</a>
<path transform="translate(5.1375, 51.3539) scale(0.0040, -0.0040)" d="M-8 375c8 5 18 7 27 7s18 -2 26 -7l-3 -192l102 23h4c10 0 19 -8 19 -18l8 -563c-8 -5 -18 -7 -27 -7s-18 2 -26 7l2 192l-101 -23h-4c-10 0 -19 8 -19 18zM128 110l-87 -19l-3 -201l88 19z" fill="currentColor"/>
<path transform="translate(4.1055, 49.8539) scale(0.0040, -0.0040)" d="M31 37l-2 -62v-11c0 -22 2 -43 5 -64c43 38 89 80 89 137c0 32 -14 65 -42 65c-31 0 -49 -32 -50 -65zM-16 -140l-14 590c9 5 20 8 30 8s21 -3 30 -8l-8 -340c25 24 59 38 94 38c50 0 84 -50 84 -104c0 -78 -83 -117 -141 -169c-17 -15 -25 -44 -49 -44
c-15 0 -26 13 -26 29z" fill="currentColor"/>
<path transform="translate(5.1375, 46.8539) scale(0.0040, -0.0040)" d="M-8 375c8 5 18 7 27 7s18 -2 26 -7l-3 -192l102 23h4c10 0 19 -8 19 -18l8 -563c-8 -5 -18 -7 -27 -7s-18 2 -26 7l2 192l-101 -23h-4c-10 0 -19 8 -19 18zM128 110l-87 -19l-3 -201l88 19z" fill="currentColor"/>
<a style="color:inherit;" xlink:href="textedit://C:/Users/trocado/OneDrive/Documents/Practice-log/assets/014-rotations.ly:70:2:3">
<path transform="translate(19.1992, 50.3539) scale(0.0040, -0.0040)" d="M210 110c-49 0 -67 -43 -67 -88c0 -74 56 -132 129 -132c49 0 67 43 67 88c0 74 -56 132 -129 132zM482 0c0 -43 -33 -76 -71 -98c-51 -30 -111 -40 -170 -40s-119 10 -170 40c-38 22 -71 55 -71 98s33 76 71 98c51 30 111 40 170 40s119 -10 170 -40
c38 -22 71 -55 71 -98z" fill="currentColor"/>
</a>
<a style="color:inherit;" xlink:href="textedit://C:/Users/trocado/OneDrive/Documents/Practice-log/assets/014-rotations.ly:70:5:6">
<path transform="translate(19.1992, 47.8539) scale(0.0040, -0.0040)" d="M210 110c-49 0 -67 -43 -67 -88c0 -74 56 -132 129 -132c49 0 67 43 67 88c0 74 -56 132 -129 132zM482 0c0 -43 -33 -76 -71 -98c-51 -30 -111 -40 -170 -40s-119 10 -170 40c-38 22 -71 55 -71 98s33 76 71 98c51 30 111 40 170 40s119 -10 170 -40
c38 -22 71 -55 71 -98z" fill="currentColor"/>
</a>
<a style="color:inherit;" xlink:href="textedit://C:/Users/trocado/OneDrive/Documents/Practice-log/assets/014-rotations.ly:70:8:9">
<path transform="translate(19.1992, 46.3539) scale(0.0040, -0.0040)" d="M210 110c-49 0 -67 -43 -67 -88c0 -74 56 -132 129 -132c49 0 67 43 67 88c0 74 -56 132 -129 132zM482 0c0 -43 -33 -76 -71 -98c-51 -30 -111 -40 -170 -40s-119 10 -170 40c-38 22 -71 55 -71 98s33 76 71 98c51 30 111 40 170 40s119 -10 170 -40
c38 -22 71 -55 71 -98z" fill="currentColor"/>
</a>
<path transform="translate(17.1108, 47.8539) scale(0.0040, -0.0040)" d="M-8 375c8 5 18 7 27 7s18 -2 26 -7l-3 -192l102 23h4c10 0 19 -8 19 -18l8 -563c-8 -5 -18 -7 -27 -7s-18 2 -26 7l2 192l-101 -23h-4c-10 0 -19 8 -19 18zM128 110l-87 -19l-3 -201l88 19z" fill="currentColor"/>
<path transform="translate(18.0492, 46.3539) scale(0.0040, -0.0040)" d="M31 37l-2 -62v-11c0 -22 2 -43 5 -64c43 38 89 80 89 137c0 32 -14 65 -42 65c-31 0 -49 -32 -50 -65zM-16 -140l-14 590c9 5 20 8 30 8s21 -3 30 -8l-8 -340c25 24 59 38 94 38c50 0 84 -50 84 -104c0 -78 -83 -117 -141 -169c-17 -15 -25 -44 -49 -44
c-15 0 -26 13 -26 29z" fill="currentColor"/>
<path transform="translate(18.1556, 50.3539) scale(0.0040, -0.0040)" d="M-8 375c8 5 18 7 27 7s18 -2 26 -7l-3 -192l102 23h4c10 0 19 -8 19 -18l8 -563c-8 -5 -18 -7 -27 -7s-18 2 -26 7l2 192l-101 -23h-4c-10 0 -19 8 -19 18zM128 110l-87 -19l-3 -201l88 19z" fill="currentColor"/>
<path transform="translate(0.8000, 48.8539) scale(0.0040, -0.0040)" d="M379 264c3 0 7 1 10 1c157 0 258 -129 258 -263c0 -77 -33 -155 -108 -211c-22 -16 -46 -29 -72 -37c3 -33 4 -66 4 -99c0 -21 0 -41 -1 -62c-7 -121 -91 -229 -211 -229c-108 0 -196 88 -196 197c0 58 54 103 113 103c54 0 95 -47 95 -103c0 -52 -43 -95 -95 -95
c-9 0 -18 1 -27 4c25 -37 66 -61 113 -61c95 0 156 93 162 191c1 19 2 38 2 57c0 29 -1 58 -3 87c-29 -5 -58 -8 -88 -8c-189 0 -333 173 -333 376c0 177 129 308 244 443c-20 62 -40 124 -48 189c-7 52 -7 105 -7 158c0 114 54 221 147 288c4 3 8 4 12 4c5 0 9 -2 13 -5
c72 -83 135 -243 135 -356c0 -142 -84 -255 -176 -364c21 -68 40 -136 57 -205zM463 -201c65 24 110 94 110 161c0 88 -64 175 -167 188c24 -114 44 -227 57 -349zM77 25c0 -133 128 -243 261 -243c27 0 55 1 81 5c-13 126 -35 244 -60 362c-79 -8 -124 -60 -124 -118
c0 -43 25 -88 80 -120c5 -5 7 -11 7 -17c0 -12 -10 -23 -23 -23c-3 0 -7 1 -10 2c-81 43 -118 115 -118 186c0 89 60 177 163 200c-14 57 -30 113 -47 169c-105 -122 -210 -243 -210 -403zM403 1038c-99 -46 -161 -145 -161 -254c0 -71 21 -130 39 -188
c78 97 142 199 142 324c0 51 -4 72 -20 118z" fill="currentColor"/>
<a style="color:inherit;" xlink:href="textedit://C:/Users/trocado/OneDrive/Documents/Practice-log/assets/014-rotations.ly:69:2:3">
<path transform="translate(6.1811, 51.3539) scale(0.0040, -0.0040)" d="M210 110c-49 0 -67 -43 -67 -88c0 -74 56 -132 129 -132c49 0 67 43 67 88c0 74 -56 132 -129 132zM482 0c0 -43 -33 -76 -71 -98c-51 -30 -111 -40 -170 -40s-119 10 -170 40c-38 22 -71 55 -71 98s33 76 71 98c51 30 111 40 170 40s119 -10 170 -40
c38 -22 71 -55 71 -98z" fill="currentColor"/>
</a>
<a style="color:inherit;" xlink:href="textedit://C:/Users/trocado/OneDrive/Documents/Practice-log/assets/014-rotations.ly:69:4:5">
<path transform="translate(6.1811, 49.8539) scale(0.0040, -0.0040)" d="M210 110c-49 0 -67 -43 -67 -88c0 -74 56 -132 129 -132c49 0 67 43 67 88c0 74 -56 132 -129 132zM482 0c0 -43 -33 -76 -71 -98c-51 -30 -111 -40 -170 -40s-119 10 -170 40c-38 22 -71 55 -71 98s33 76 71 98c51 30 111 40 170 40s119 -10 170 -40
c38 -22 71 -55 71 -98z" fill="currentColor"/>
</a>
<a style="color:inherit;" xlink:href="textedit://C:/Users/trocado/OneDrive/Documents/Practice-log/assets/014-rotations.ly:69:9:10">
<path transform="translate(6.1811, 46.8539) scale(0.0040, -0.0040)" d="M210 110c-49 0 -67 -43 -67 -88c0 -74 56 -132 129 -132c49 0 67 43 67 88c0 74 -56 132 -129 132zM482 0c0 -43 -33 -76 -71 -98c-51 -30 -111 -40 -170 -40s-119 10 -170 40c-38 22 -71 55 -71 98s33 76 71 98c51 30 111 40 170 40s119 -10 170 -40
c38 -22 71 -55 71 -98z" fill="currentColor"/>
</a>
<path transform="translate(31.1736, 44.3539) scale(0.0040, -0.0040)" d="M-8 375c8 5 18 7 27 7s18 -2 26 -7l-3 -192l102 23h4c10 0 19 -8 19 -18l8 -563c-8 -5 -18 -7 -27 -7s-18 2 -26 7l2 192l-101 -23h-4c-10 0 -19 8 -19 18zM128 110l-87 -19l-3 -201l88 19z" fill="currentColor"/>
<a style="color:inherit;" xlink:href="textedit://C:/Users/trocado/OneDrive/Documents/Practice-log/assets/014-rotations.ly:72:2:3">
<path transform="translate(45.2353, 47.8539) scale(0.0040, -0.0040)" d="M210 110c-49 0 -67 -43 -67 -88c0 -74 56 -132 129 -132c49 0 67 43 67 88c0 74 -56 132 -129 132zM482 0c0 -43 -33 -76 -71 -98c-51 -30 -111 -40 -170 -40s-119 10 -170 40c-38 22 -71 55 -71 98s33 76 71 98c51 30 111 40 170 40s119 -10 170 -40
c38 -22 71 -55 71 -98z" fill="currentColor"/>
</a>
<a style="color:inherit;" xlink:href="textedit://C:/Users/trocado/OneDrive/Documents/Practice-log/assets/014-rotations.ly:72:5:6">
<path transform="translate(45.2353, 46.3539) scale(0.0040, -0.0040)" d="M210 110c-49 0 -67 -43 -67 -88c0 -74 56 -132 129 -132c49 0 67 43 67 88c0 74 -56 132 -129 132zM482 0c0 -43 -33 -76 -71 -98c-51 -30 -111 -40 -170 -40s-119 10 -170 40c-38 22 -71 55 -71 98s33 76 71 98c51 30 111 40 170 40s119 -10 170 -40
c38 -22 71 -55 71 -98z" fill="currentColor"/>
</a>
<a style="color:inherit;" xlink:href="textedit://C:/Users/trocado/OneDrive/Documents/Practice-log/assets/014-rotations.ly:72:11:12">
<path transform="translate(45.2353, 43.3539) scale(0.0040, -0.0040)" d="M210 110c-49 0 -67 -43 -67 -88c0 -74 56 -132 129 -132c49 0 67 43 67 88c0 74 -56 132 -129 132zM482 0c0 -43 -33 -76 -71 -98c-51 -30 -111 -40 -170 -40s-119 10 -170 40c-38 22 -71 55 -71 98s33 76 71 98c51 30 111 40 170 40s119 -10 170 -40
c38 -22 71 -55 71 -98z" fill="currentColor"/>
</a>
<a style="color:inherit;" xlink:href="textedit://C:/Users/trocado/OneDrive/Documents/Practice-log/assets/014-rotations.ly:71:2:3">
<path transform="translate(32.2172, 49.8539) scale(0.0040, -0.0040)" d="M210 110c-49 0 -67 -43 -67 -88c0 -74 56 -132 129 -132c49 0 67 43 67 88c0 74 -56 132 -129 132zM482 0c0 -43 -33 -76 -71 -98c-51 -30 -111 -40 -170 -40s-119 10 -170 40c-38 22 -71 55 -71 98s33 76 71 98c51 30 111 40 170 40s119 -10 170 -40
c38 -22 71 -55 71 -98z" fill="currentColor"/>
</a>
<a style="color:inherit;" xlink:href="textedit://C:/Users/trocado/OneDrive/Documents/Practice-log/assets/014-rotations.ly:71:7:8">
<path transform="translate(32.2172, 46.8539) scale(0.0040, -0.0040)" d="M210 110c-49 0 -67 -43 -67 -88c0 -74 56 -132 129 -132c49 0 67 43 67 88c0 74 -56 132 -129 132zM482 0c0 -43 -33 -76 -71 -98c-51 -30 -111 -40 -170 -40s-119 10 -170 40c-38 22 -71 55 -71 98s33 76 71 98c51 30 111 40 170 40s119 -10 170 -40
c38 -22 71 -55 71 -98z" fill="currentColor"/>
</a>
<a style="color:inherit;" xlink:href="textedit://C:/Users/trocado/OneDrive/Documents/Practice-log/assets/014-rotations.ly:71:11:12">
<path transform="translate(32.2172, 44.3539) scale(0.0040, -0.0040)" d="M210 110c-49 0 -67 -43 -67 -88c0 -74 56 -132 129 -132c49 0 67 43 67 88c0 74 -56 132 -129 132zM482 0c0 -43 -33 -76 -71 -98c-51 -30 -111 -40 -170 -40s-119 10 -170 40c-38 22 -71 55 -71 98s33 76 71 98c51 30 111 40 170 40s119 -10 170 -40
c38 -22 71 -55 71 -98z" fill="currentColor"/>
</a>
<text transform="translate(0.0000, 54.3220)" font-family="serif" font-size="2.1999" text-anchor="start" fill="currentColor">
<tspan/>
</text>
</svg>
