<svg xmlns="http://www.w3.org/2000/svg" xmlns:xlink="http://www.w3.org/1999/xlink" version="1.2" width="130.00mm" height="16.14mm" viewBox="0 0 98.6362 12.2494">
<!-- Page: 1/1 -->
<text transform="translate(0.0000, -0.0000)" font-family="serif" font-size="2.1999" text-anchor="start" fill="currentColor">
<tspan/>
</text>
<line transform="translate(0.0000, 8.7494)" stroke-linejoin="round" stroke-linecap="round" stroke-width="0.1219" stroke="currentColor" x1="0.0610" y1="-0.0000" x2="78.0362" y2="-0.0000"/>
<line transform="translate(0.0000, 7.7494)" stroke-linejoin="round" stroke-linecap="round" stroke-width="0.1219" stroke="currentColor" x1="0.0610" y1="-0.0000" x2="78.0362" y2="-0.0000"/>
<line transform="translate(0.0000, 6.7494)" stroke-linejoin="round" stroke-linecap="round" stroke-width="0.1219" stroke="currentColor" x1="0.0610" y1="-0.0000" x2="78.0362" y2="-0.0000"/>
<line transform="translate(0.0000, 5.7494)" stroke-linejoin="round" stroke-linecap="round" stroke-width="0.1219" stroke="currentColor" x1="0.0610" y1="-0.0000" x2="78.0362" y2="-0.0000"/>
<line transform="translate(0.0000, 4.7494)" stroke-linejoin="round" stroke-linecap="round" stroke-width="0.1219" stroke="currentColor" x1="0.0610" y1="-0.0000" x2="78.0362" y2="-0.0000"/>
<rect transform="translate(0.0000, 9.7494)" x="11.6498" y="-0.1110" width="2.5834" height="0.2219" ry="0.1110" fill="currentColor"/>
<rect transform="translate(0.0000, 9.7494)" x="5.3183" y="-0.1110" width="2.8901" height="0.2219" ry="0.1110" fill="currentColor"/>
<a style="color:inherit;" xlink:href="textedit://C:/Users/trocado/OneDrive/Documents/Practice-log/assets/014-row.ly:45:21:22">
<path transform="translate(53.9981, 7.2494) scale(0.0040, -0.0040)" d="M210 110c-49 0 -67 -43 -67 -88c0 -74 56 -132 129 -132c49 0 67 43 67 88c0 74 -56 132 -129 132zM482 0c0 -43 -33 -76 -71 -98c-51 -30 -111 -40 -170 -40s-119 10 -170 40c-38 22 -71 55 -71 98s33 76 71 98c51 30 111 40 170 40s119 -10 170 -40
c38 -22 71 -55 71 -98z" fill="currentColor"/>
</a>
<a style="color:inherit;" xlink:href="textedit://C:/Users/trocado/OneDrive/Documents/Practice-log/assets/014-row.ly:43:7:8">
<line transform="translate(23.8743, 3.4275)" stroke-linejoin="round" stroke-linecap="round" stroke-width="0.1219" stroke="currentColor" x1="13.4762" y1="-0.0000" x2="13.9762" y2="1.0000"/>
<line transform="translate(23.8743, 3.4275)" stroke-linejoin="round" stroke-linecap="round" stroke-width="0.1219" stroke="currentColor" x1="0.5000" y1="-0.0000" x2="0.0000" y2="1.0000"/>
<line transform="translate(23.8743, 3.4275)" stroke-linejoin="round" stroke-linecap="round" stroke-width="0.1219" stroke="currentColor" x1="0.5000" y1="-0.0000" x2="13.4762" y2="-0.0000"/>
</a>
<text transform="translate(28.7227, 2.4113)" font-family="serif" font-size="1.9598" text-anchor="start" fill="currentColor">
<tspan>
(014)</tspan>
</text>
<path transform="translate(52.9545, 7.2494) scale(0.0040, -0.0040)" d="M-8 375c8 5 18 7 27 7s18 -2 26 -7l-3 -192l102 23h4c10 0 19 -8 19 -18l8 -563c-8 -5 -18 -7 -27 -7s-18 2 -26 7l2 192l-101 -23h-4c-10 0 -19 8 -19 18zM128 110l-87 -19l-3 -201l88 19z" fill="currentColor"/>
<a style="color:inherit;" xlink:href="textedit://C:/Users/trocado/OneDrive/Documents/Practice-log/assets/014-row.ly:47:4:5">
<path transform="translate(60.0228, 6.7494) scale(0.0040, -0.0040)" d="M210 110c-49 0 -67 -43 -67 -88c0 -74 56 -132 129 -132c49 0 67 43 67 88c0 74 -56 132 -129 132zM482 0c0 -43 -33 -76 -71 -98c-51 -30 -111 -40 -170 -40s-119 10 -170 40c-38 22 -71 55 -71 98s33 76 71 98c51 30 111 40 170 40s119 -10 170 -40
c38 -22 71 -55 71 -98z" fill="currentColor"/>
</a>
<a style="color:inherit;" xlink:href="textedit://C:/Users/trocado/OneDrive/Documents/Practice-log/assets/014-row.ly:45:17:18">
<path transform="translate(47.9733, 7.2494) scale(0.0040, -0.0040)" d="M210 110c-49 0 -67 -43 -67 -88c0 -74 56 -132 129 -132c49 0 67 43 67 88c0 74 -56 132 -129 132zM482 0c0 -43 -33 -76 -71 -98c-51 -30 -111 -40 -170 -40s-119 10 -170 40c-38 22 -71 55 -71 98s33 76 71 98c51 30 111 40 170 40s119 -10 170 -40
c38 -22 71 -55 71 -98z" fill="currentColor"/>
</a>
<a style="color:inherit;" xlink:href="textedit://C:/Users/trocado/OneDrive/Documents/Practice-log/assets/014-row.ly:41:7:8">
<line transform="translate(5.8000, 3.4275)" stroke-linejoin="round" stroke-linecap="round" stroke-width="0.1219" stroke="currentColor" x1="13.4762" y1="-0.0000" x2="13.9762" y2="1.0000"/>
<line transform="translate(5.8000, 3.4275)" stroke-linejoin="round" stroke-linecap="round" stroke-width="0.1219" stroke="currentColor" x1="0.5000" y1="-0.0000" x2="0.0000" y2="1.0000"/>
<line transform="translate(5.8000, 3.4275)" stroke-linejoin="round" stroke-linecap="round" stroke-width="0.1219" stroke="currentColor" x1="0.5000" y1="-0.0000" x2="13.4762" y2="-0.0000"/>
</a>
<path transform="translate(40.9050, 8.2494) scale(0.0040, -0.0040)" d="M-8 375c8 5 18 7 27 7s18 -2 26 -7l-3 -192l102 23h4c10 0 19 -8 19 -18l8 -563c-8 -5 -18 -7 -27 -7s-18 2 -26 7l2 192l-101 -23h-4c-10 0 -19 8 -19 18zM128 110l-87 -19l-3 -201l88 19z" fill="currentColor"/>
<a style="color:inherit;" xlink:href="textedit://C:/Users/trocado/OneDrive/Documents/Practice-log/assets/014-row.ly:45:5:6">
<line transform="translate(41.9486, 3.4275)" stroke-linejoin="round" stroke-linecap="round" stroke-width="0.1219" stroke="currentColor" x1="13.4762" y1="-0.0000" x2="13.9762" y2="1.0000"/>
<line transform="translate(41.9486, 3.4275)" stroke-linejoin="round" stroke-linecap="round" stroke-width="0.1219" stroke="currentColor" x1="0.5000" y1="-0.0000" x2="0.0000" y2="1.0000"/>
<line transform="translate(41.9486, 3.4275)" stroke-linejoin="round" stroke-linecap="round" stroke-width="0.1219" stroke="currentColor" x1="0.5000" y1="-0.0000" x2="13.4762" y2="-0.0000"/>
</a>
<text transform="translate(10.6485, 2.4113)" font-family="serif" font-size="1.9598" text-anchor="start" fill="currentColor">
<tspan>
(014)</tspan>
</text>
<path transform="translate(46.8233, 7.2494) scale(0.0040, -0.0040)" d="M31 37l-2 -62v-11c0 -22 2 -43 5 -64c43 38 89 80 89 137c0 32 -14 65 -42 65c-31 0 -49 -32 -50 -65zM-16 -140l-14 590c9 5 20 8 30 8s21 -3 30 -8l-8 -340c25 24 59 38 94 38c50 0 84 -50 84 -104c0 -78 -83 -117 -141 -169c-17 -15 -25 -44 -49 -44
c-15 0 -26 13 -26 29z" fill="currentColor"/>
<a style="color:inherit;" xlink:href="textedit://C:/Users/trocado/OneDrive/Documents/Practice-log/assets/014-row.ly:47:19:20">
<path transform="translate(72.0724, 5.7494) scale(0.0040, -0.0040)" d="M210 110c-49 0 -67 -43 -67 -88c0 -74 56 -132 129 -132c49 0 67 43 67 88c0 74 -56 132 -129 132zM482 0c0 -43 -33 -76 -71 -98c-51 -30 -111 -40 -170 -40s-119 10 -170 40c-38 22 -71 55 -71 98s33 76 71 98c51 30 111 40 170 40s119 -10 170 -40
c38 -22 71 -55 71 -98z" fill="currentColor"/>
</a>
<path transform="translate(70.6224, 5.7494) scale(0.0040, -0.0040)" d="M198 -329c-12 0 -21 9 -21 21v138l-79 -30v-154c0 -12 -9 -21 -21 -21s-21 9 -21 21v138l-22 -8c-3 -1 -6 -2 -9 -2c-13 0 -25 11 -25 25v54c0 10 6 20 16 24l40 15v155l-22 -9c-3 -1 -6 -1 -9 -1c-13 0 -25 11 -25 25v54c0 10 6 19 16 23l40 15v154c0 12 9 21 21 21
s21 -9 21 -21v-138l79 30v154c0 12 9 21 21 21s21 -9 21 -21v-138l22 8c3 1 6 2 9 2c13 0 25 -11 25 -25v-54c0 -10 -6 -20 -16 -24l-40 -15v-155l22 9c3 1 6 1 9 1c13 0 25 -11 25 -25v-54c0 -10 -6 -19 -16 -23l-40 -15v-154c0 -12 -9 -21 -21 -21zM98 62v-154l79 30v154z
" fill="currentColor"/>
<a style="color:inherit;" xlink:href="textedit://C:/Users/trocado/OneDrive/Documents/Practice-log/assets/014-row.ly:47:17:18">
<path transform="translate(66.0476, 5.7494) scale(0.0040, -0.0040)" d="M210 110c-49 0 -67 -43 -67 -88c0 -74 56 -132 129 -132c49 0 67 43 67 88c0 74 -56 132 -129 132zM482 0c0 -43 -33 -76 -71 -98c-51 -30 -111 -40 -170 -40s-119 10 -170 40c-38 22 -71 55 -71 98s33 76 71 98c51 30 111 40 170 40s119 -10 170 -40
c38 -22 71 -55 71 -98z" fill="currentColor"/>
</a>
<text transform="translate(46.7970, 2.4113)" font-family="serif" font-size="1.9598" text-anchor="start" fill="currentColor">
<tspan>
(014)</tspan>
</text>
<path transform="translate(58.9792, 6.7494) scale(0.0040, -0.0040)" d="M-8 375c8 5 18 7 27 7s18 -2 26 -7l-3 -192l102 23h4c10 0 19 -8 19 -18l8 -563c-8 -5 -18 -7 -27 -7s-18 2 -26 7l2 192l-101 -23h-4c-10 0 -19 8 -19 18zM128 110l-87 -19l-3 -201l88 19z" fill="currentColor"/>
<a style="color:inherit;" xlink:href="textedit://C:/Users/trocado/OneDrive/Documents/Practice-log/assets/014-row.ly:47:5:6">
<line transform="translate(60.0228, 3.4275)" stroke-linejoin="round" stroke-linecap="round" stroke-width="0.1219" stroke="currentColor" x1="13.4762" y1="-0.0000" x2="13.9762" y2="1.0000"/>
<line transform="translate(60.0228, 3.4275)" stroke-linejoin="round" stroke-linecap="round" stroke-width="0.1219" stroke="currentColor" x1="0.5000" y1="-0.0000" x2="0.0000" y2="1.0000"/>
<line transform="translate(60.0228, 3.4275)" stroke-linejoin="round" stroke-linecap="round" stroke-width="0.1219" stroke="currentColor" x1="0.5000" y1="-0.0000" x2="13.4762" y2="-0.0000"/>
</a>
<text transform="translate(64.8713, 2.4113)" font-family="serif" font-size="1.9598" text-anchor="start" fill="currentColor">
<tspan>
(014)</tspan>
</text>
<a style="color:inherit;" xlink:href="textedit://C:/Users/trocado/OneDrive/Documents/Practice-log/assets/014-row.ly:41:23:24">
<path transform="translate(17.8495, 8.7494) scale(0.0040, -0.0040)" d="M210 110c-49 0 -67 -43 -67 -88c0 -74 56 -132 129 -132c49 0 67 43 67 88c0 74 -56 132 -129 132zM482 0c0 -43 -33 -76 -71 -98c-51 -30 -111 -40 -170 -40s-119 10 -170 40c-38 22 -71 55 -71 98s33 76 71 98c51 30 111 40 170 40s119 -10 170 -40
c38 -22 71 -55 71 -98z" fill="currentColor"/>
</a>
<a style="color:inherit;" xlink:href="textedit://C:/Users/trocado/OneDrive/Documents/Practice-log/assets/014-row.ly:43:4:5">
<path transform="translate(23.8743, 8.2494) scale(0.0040, -0.0040)" d="M210 110c-49 0 -67 -43 -67 -88c0 -74 56 -132 129 -132c49 0 67 43 67 88c0 74 -56 132 -129 132zM482 0c0 -43 -33 -76 -71 -98c-51 -30 -111 -40 -170 -40s-119 10 -170 40c-38 22 -71 55 -71 98s33 76 71 98c51 30 111 40 170 40s119 -10 170 -40
c38 -22 71 -55 71 -98z" fill="currentColor"/>
</a>
<a style="color:inherit;" xlink:href="textedit://C:/Users/trocado/OneDrive/Documents/Practice-log/assets/014-row.ly:41:4:5">
<path transform="translate(5.8000, 9.7494) scale(0.0040, -0.0040)" d="M210 110c-49 0 -67 -43 -67 -88c0 -74 56 -132 129 -132c49 0 67 43 67 88c0 74 -56 132 -129 132zM482 0c0 -43 -33 -76 -71 -98c-51 -30 -111 -40 -170 -40s-119 10 -170 40c-38 22 -71 55 -71 98s33 76 71 98c51 30 111 40 170 40s119 -10 170 -40
c38 -22 71 -55 71 -98z" fill="currentColor"/>
</a>
<path transform="translate(0.8000, 7.7494) scale(0.0040, -0.0040)" d="M379 264c3 0 7 1 10 1c157 0 258 -129 258 -263c0 -77 -33 -155 -108 -211c-22 -16 -46 -29 -72 -37c3 -33 4 -66 4 -99c0 -21 0 -41 -1 -62c-7 -121 -91 -229 -211 -229c-108 0 -196 88 -196 197c0 58 54 103 113 103c54 0 95 -47 95 -103c0 -52 -43 -95 -95 -95
c-9 0 -18 1 -27 4c25 -37 66 -61 113 -61c95 0 156 93 162 191c1 19 2 38 2 57c0 29 -1 58 -3 87c-29 -5 -58 -8 -88 -8c-189 0 -333 173 -333 376c0 177 129 308 244 443c-20 62 -40 124 -48 189c-7 52 -7 105 -7 158c0 114 54 221 147 288c4 3 8 4 12 4c5 0 9 -2 13 -5
c72 -83 135 -243 135 -356c0 -142 -84 -255 -176 -364c21 -68 40 -136 57 -205zM463 -201c65 24 110 94 110 161c0 88 -64 175 -167 188c24 -114 44 -227 57 -349zM77 25c0 -133 128 -243 261 -243c27 0 55 1 81 5c-13 126 -35 244 -60 362c-79 -8 -124 -60 -124 -118
c0 -43 25 -88 80 -120c5 -5 7 -11 7 -17c0 -12 -10 -23 -23 -23c-3 0 -7 1 -10 2c-81 43 -118 115 -118 186c0 89 60 177 163 200c-14 57 -30 113 -47 169c-105 -122 -210 -243 -210 -403zM403 1038c-99 -46 -161 -145 -161 -254c0 -71 21 -130 39 -188
c78 97 142 199 142 324c0 51 -4 72 -20 118z" fill="currentColor"/>
<a style="color:inherit;" xlink:href="textedit://C:/Users/trocado/OneDrive/Documents/Practice-log/assets/014-row.ly:41:19:20">
<path transform="translate(11.8248, 9.7494) scale(0.0040, -0.0040)" d="M210 110c-49 0 -67 -43 -67 -88c0 -74 56 -132 129 -132c49 0 67 43 67 88c0 74 -56 132 -129 132zM482 0c0 -43 -33 -76 -71 -98c-51 -30 -111 -40 -170 -40s-119 10 -170 40c-38 22 -71 55 -71 98s33 76 71 98c51 30 111 40 170 40s119 -10 170 -40
c38 -22 71 -55 71 -98z" fill="currentColor"/>
</a>
<path transform="translate(10.3748, 9.7494) scale(0.0040, -0.0040)" d="M198 -329c-12 0 -21 9 -21 21v138l-79 -30v-154c0 -12 -9 -21 -21 -21s-21 9 -21 21v138l-22 -8c-3 -1 -6 -2 -9 -2c-13 0 -25 11 -25 25v54c0 10 6 20 16 24l40 15v155l-22 -9c-3 -1 -6 -1 -9 -1c-13 0 -25 11 -25 25v54c0 10 6 19 16 23l40 15v154c0 12 9 21 21 21
s21 -9 21 -21v-138l79 30v154c0 12 9 21 21 21s21 -9 21 -21v-138l22 8c3 1 6 2 9 2c13 0 25 -11 25 -25v-54c0 -10 -6 -20 -16 -24l-40 -15v-155l22 9c3 1 6 1 9 1c13 0 25 -11 25 -25v-54c0 -10 -6 -19 -16 -23l-40 -15v-154c0 -12 -9 -21 -21 -21zM98 62v-154l79 30v154z
" fill="currentColor"/>
<a style="color:inherit;" xlink:href="textedit://C:/Users/trocado/OneDrive/Documents/Practice-log/assets/014-row.ly:43:21:22">
<path transform="translate(35.9238, 6.7494) scale(0.0040, -0.0040)" d="M210 110c-49 0 -67 -43 -67 -88c0 -74 56 -132 129 -132c49 0 67 43 67 88c0 74 -56 132 -129 132zM482 0c0 -43 -33 -76 -71 -98c-51 -30 -111 -40 -170 -40s-119 10 -170 40c-38 22 -71 55 -71 98s33 76 71 98c51 30 111 40 170 40s119 -10 170 -40
c38 -22 71 -55 71 -98z" fill="currentColor"/>
</a>
<path transform="translate(34.7738, 6.7494) scale(0.0040, -0.0040)" d="M31 37l-2 -62v-11c0 -22 2 -43 5 -64c43 38 89 80 89 137c0 32 -14 65 -42 65c-31 0 -49 -32 -50 -65zM-16 -140l-14 590c9 5 20 8 30 8s21 -3 30 -8l-8 -340c25 24 59 38 94 38c50 0 84 -50 84 -104c0 -78 -83 -117 -141 -169c-17 -15 -25 -44 -49 -44
c-15 0 -26 13 -26 29z" fill="currentColor"/>
<a style="color:inherit;" xlink:href="textedit://C:/Users/trocado/OneDrive/Documents/Practice-log/assets/014-row.ly:45:4:5">
<path transform="translate(41.9486, 8.2494) scale(0.0040, -0.0040)" d="M210 110c-49 0 -67 -43 -67 -88c0 -74 56 -132 129 -132c49 0 67 43 67 88c0 74 -56 132 -129 132zM482 0c0 -43 -33 -76 -71 -98c-51 -30 -111 -40 -170 -40s-119 10 -170 40c-38 22 -71 55 -71 98s33 76 71 98c51 30 111 40 170 40s119 -10 170 -40
c38 -22 71 -55 71 -98z" fill="currentColor"/>
</a>
<a style="color:inherit;" xlink:href="textedit://C:/Users/trocado/OneDrive/Documents/Practice-log/assets/014-row.ly:43:19:20">
<path transform="translate(29.8990, 7.7494) scale(0.0040, -0.0040)" d="M210 110c-49 0 -67 -43 -67 -88c0 -74 56 -132 129 -132c49 0 67 43 67 88c0 74 -56 132 -129 132zM482 0c0 -43 -33 -76 -71 -98c-51 -30 -111 -40 -170 -40s-119 10 -170 40c-38 22 -71 55 -71 98s33 76 71 98c51 30 111 40 170 40s119 -10 170 -40
c38 -22 71 -55 71 -98z" fill="currentColor"/>
</a>
<path transform="translate(22.4243, 8.2494) scale(0.0040, -0.0040)" d="M198 -329c-12 0 -21 9 -21 21v138l-79 -30v-154c0 -12 -9 -21 -21 -21s-21 9 -21 21v138l-22 -8c-3 -1 -6 -2 -9 -2c-13 0 -25 11 -25 25v54c0 10 6 20 16 24l40 15v155l-22 -9c-3 -1 -6 -1 -9 -1c-13 0 -25 11 -25 25v54c0 10 6 19 16 23l40 15v154c0 12 9 21 21 21
s21 -9 21 -21v-138l79 30v154c0 12 9 21 21 21s21 -9 21 -21v-138l22 8c3 1 6 2 9 2c13 0 25 -11 25 -25v-54c0 -10 -6 -20 -16 -24l-40 -15v-155l22 9c3 1 6 1 9 1c13 0 25 -11 25 -25v-54c0 -10 -6 -19 -16 -23l-40 -15v-154c0 -12 -9 -21 -21 -21zM98 62v-154l79 30v154z
" fill="currentColor"/>
<text transform="translate(0.0000, 12.2494)" font-family="serif" font-size="2.1999" text-anchor="start" fill="currentColor">
<tspan/>
</text>
</svg>
