<svg xmlns="http://www.w3.org/2000/svg" xmlns:xlink="http://www.w3.org/1999/xlink" version="1.2" width="130.00mm" height="36.78mm" viewBox="0 0 98.6362 27.9098">
<!-- Page: 1/1 -->
<text transform="translate(0.0000, -0.0000)" font-family="serif" font-size="2.1999" text-anchor="start" fill="currentColor">
<tspan/>
</text>
<line transform="translate(0.0000, 8.0527)" stroke-linejoin="round" stroke-linecap="round" stroke-width="0.1219" stroke="currentColor" x1="0.0610" y1="-0.0000" x2="98.5753" y2="-0.0000"/>
<line transform="translate(0.0000, 7.0527)" stroke-linejoin="round" stroke-linecap="round" stroke-width="0.1219" stroke="currentColor" x1="0.0610" y1="-0.0000" x2="98.5753" y2="-0.0000"/>
<line transform="translate(0.0000, 6.0527)" stroke-linejoin="round" stroke-linecap="round" stroke-width="0.1219" stroke="currentColor" x1="0.0610" y1="-0.0000" x2="98.5753" y2="-0.0000"/>
<line transform="translate(0.0000, 5.0527)" stroke-linejoin="round" stroke-linecap="round" stroke-width="0.1219" stroke="currentColor" x1="0.0610" y1="-0.0000" x2="98.5753" y2="-0.0000"/>
<line transform="translate(0.0000, 4.0527)" stroke-linejoin="round" stroke-linecap="round" stroke-width="0.1219" stroke="currentColor" x1="0.0610" y1="-0.0000" x2="98.5753" y2="-0.0000"/>
<rect transform="translate(0.0000, 2.0527)" x="91.0133" y="-0.1110" width="2.8901" height="0.2219" ry="0.1110" fill="currentColor"/>
<rect transform="translate(0.0000, 3.0527)" x="91.0133" y="-0.1110" width="2.8901" height="0.2219" ry="0.1110" fill="currentColor"/>
<rect transform="translate(0.0000, 3.0527)" x="83.8720" y="-0.1110" width="2.8901" height="0.2219" ry="0.1110" fill="currentColor"/>
<rect transform="translate(0.0000, 2.0527)" x="76.7308" y="-0.1110" width="2.8901" height="0.2219" ry="0.1110" fill="currentColor"/>
<rect transform="translate(0.0000, 3.0527)" x="76.7308" y="-0.1110" width="2.8901" height="0.2219" ry="0.1110" fill="currentColor"/>
<rect transform="translate(0.0000, 9.0527)" x="69.8962" y="-0.1110" width="2.5834" height="0.2219" ry="0.1110" fill="currentColor"/>
<rect transform="translate(0.0000, 3.0527)" x="48.4725" y="-0.1110" width="2.5834" height="0.2219" ry="0.1110" fill="currentColor"/>
<rect transform="translate(0.0000, 9.0527)" x="41.0246" y="-0.1110" width="2.8901" height="0.2219" ry="0.1110" fill="currentColor"/>
<rect transform="translate(0.0000, 10.0527)" x="41.2646" y="-0.1110" width="2.6501" height="0.2219" ry="0.1110" fill="currentColor"/>
<rect transform="translate(0.0000, 9.0527)" x="33.9368" y="-0.1110" width="2.8366" height="0.2219" ry="0.1110" fill="currentColor"/>
<rect transform="translate(0.0000, 9.0527)" x="26.7421" y="-0.1110" width="2.8901" height="0.2219" ry="0.1110" fill="currentColor"/>
<rect transform="translate(0.0000, 10.0527)" x="26.7421" y="-0.1110" width="2.8901" height="0.2219" ry="0.1110" fill="currentColor"/>
<rect transform="translate(0.0000, 9.0527)" x="19.6008" y="-0.1110" width="2.8901" height="0.2219" ry="0.1110" fill="currentColor"/>
<rect transform="translate(0.0000, 10.0527)" x="19.9075" y="-0.1110" width="2.5834" height="0.2219" ry="0.1110" fill="currentColor"/>
<rect transform="translate(0.0000, 9.0527)" x="12.4596" y="-0.1110" width="2.8901" height="0.2219" ry="0.1110" fill="currentColor"/>
<rect transform="translate(0.0000, 9.0527)" x="5.3183" y="-0.1110" width="2.8901" height="0.2219" ry="0.1110" fill="currentColor"/>
<a style="color:inherit;" xlink:href="textedit://C:/Users/trocado/OneDrive/Documents/Practice-log/assets/chord-sequences.ly:40:7:8">
<path transform="translate(70.0712, 5.5527) scale(0.0040, -0.0040)" d="M210 110c-49 0 -67 -43 -67 -88c0 -74 56 -132 129 -132c49 0 67 43 67 88c0 74 -56 132 -129 132zM482 0c0 -43 -33 -76 -71 -98c-51 -30 -111 -40 -170 -40s-119 10 -170 40c-38 22 -71 55 -71 98s33 76 71 98c51 30 111 40 170 40s119 -10 170 -40
c38 -22 71 -55 71 -98z" fill="currentColor"/>
</a>
<path transform="translate(61.7800, 4.5527) scale(0.0040, -0.0040)" d="M31 37l-2 -62v-11c0 -22 2 -43 5 -64c43 38 89 80 89 137c0 32 -14 65 -42 65c-31 0 -49 -32 -50 -65zM-16 -140l-14 590c9 5 20 8 30 8s21 -3 30 -8l-8 -340c25 24 59 38 94 38c50 0 84 -50 84 -104c0 -78 -83 -117 -141 -169c-17 -15 -25 -44 -49 -44
c-15 0 -26 13 -26 29z" fill="currentColor"/>
<path transform="translate(60.8416, 6.0527) scale(0.0040, -0.0040)" d="M-8 375c8 5 18 7 27 7s18 -2 26 -7l-3 -192l102 23h4c10 0 19 -8 19 -18l8 -563c-8 -5 -18 -7 -27 -7s-18 2 -26 7l2 192l-101 -23h-4c-10 0 -19 8 -19 18zM128 110l-87 -19l-3 -201l88 19z" fill="currentColor"/>
<path transform="translate(47.4975, 6.5527) scale(0.0040, -0.0040)" d="M-8 375c8 5 18 7 27 7s18 -2 26 -7l-3 -192l102 23h4c10 0 19 -8 19 -18l8 -563c-8 -5 -18 -7 -27 -7s-18 2 -26 7l2 192l-101 -23h-4c-10 0 -19 8 -19 18zM128 110l-87 -19l-3 -201l88 19z" fill="currentColor"/>
<a style="color:inherit;" xlink:href="textedit://C:/Users/trocado/OneDrive/Documents/Practice-log/assets/chord-sequences.ly:40:2:3">
<path transform="translate(70.0712, 9.0527) scale(0.0040, -0.0040)" d="M210 110c-49 0 -67 -43 -67 -88c0 -74 56 -132 129 -132c49 0 67 43 67 88c0 74 -56 132 -129 132zM482 0c0 -43 -33 -76 -71 -98c-51 -30 -111 -40 -170 -40s-119 10 -170 40c-38 22 -71 55 -71 98s33 76 71 98c51 30 111 40 170 40s119 -10 170 -40
c38 -22 71 -55 71 -98z" fill="currentColor"/>
</a>
<a style="color:inherit;" xlink:href="textedit://C:/Users/trocado/OneDrive/Documents/Practice-log/assets/chord-sequences.ly:40:11:12">
<path transform="translate(70.0712, 4.5527) scale(0.0040, -0.0040)" d="M210 110c-49 0 -67 -43 -67 -88c0 -74 56 -132 129 -132c49 0 67 43 67 88c0 74 -56 132 -129 132zM482 0c0 -43 -33 -76 -71 -98c-51 -30 -111 -40 -170 -40s-119 10 -170 40c-38 22 -71 55 -71 98s33 76 71 98c51 30 111 40 170 40s119 -10 170 -40
c38 -22 71 -55 71 -98z" fill="currentColor"/>
</a>
<path transform="translate(68.6212, 9.0527) scale(0.0040, -0.0040)" d="M198 -329c-12 0 -21 9 -21 21v138l-79 -30v-154c0 -12 -9 -21 -21 -21s-21 9 -21 21v138l-22 -8c-3 -1 -6 -2 -9 -2c-13 0 -25 11 -25 25v54c0 10 6 20 16 24l40 15v155l-22 -9c-3 -1 -6 -1 -9 -1c-13 0 -25 11 -25 25v54c0 10 6 19 16 23l40 15v154c0 12 9 21 21 21
s21 -9 21 -21v-138l79 30v154c0 12 9 21 21 21s21 -9 21 -21v-138l22 8c3 1 6 2 9 2c13 0 25 -11 25 -25v-54c0 -10 -6 -20 -16 -24l-40 -15v-155l22 9c3 1 6 1 9 1c13 0 25 -11 25 -25v-54c0 -10 -6 -19 -16 -23l-40 -15v-154c0 -12 -9 -21 -21 -21zM98 62v-154l79 30v154z
" fill="currentColor"/>
<path transform="translate(68.6212, 5.5527) scale(0.0040, -0.0040)" d="M-8 375c8 5 18 7 27 7s18 -2 26 -7l-3 -192l102 23h4c10 0 19 -8 19 -18l8 -563c-8 -5 -18 -7 -27 -7s-18 2 -26 7l2 192l-101 -23h-4c-10 0 -19 8 -19 18zM128 110l-87 -19l-3 -201l88 19z" fill="currentColor"/>
<path transform="translate(67.7084, 4.5527) scale(0.0040, -0.0040)" d="M-8 375c8 5 18 7 27 7s18 -2 26 -7l-3 -192l102 23h4c10 0 19 -8 19 -18l8 -563c-8 -5 -18 -7 -27 -7s-18 2 -26 7l2 192l-101 -23h-4c-10 0 -19 8 -19 18zM128 110l-87 -19l-3 -201l88 19z" fill="currentColor"/>
<path transform="translate(54.6387, 7.0527) scale(0.0040, -0.0040)" d="M31 37l-2 -62v-11c0 -22 2 -43 5 -64c43 38 89 80 89 137c0 32 -14 65 -42 65c-31 0 -49 -32 -50 -65zM-16 -140l-14 590c9 5 20 8 30 8s21 -3 30 -8l-8 -340c25 24 59 38 94 38c50 0 84 -50 84 -104c0 -78 -83 -117 -141 -169c-17 -15 -25 -44 -49 -44
c-15 0 -26 13 -26 29z" fill="currentColor"/>
<a style="color:inherit;" xlink:href="textedit://C:/Users/trocado/OneDrive/Documents/Practice-log/assets/chord-sequences.ly:38:12:13">
<path transform="translate(55.7887, 3.5527) scale(0.0040, -0.0040)" d="M210 110c-49 0 -67 -43 -67 -88c0 -74 56 -132 129 -132c49 0 67 43 67 88c0 74 -56 132 -129 132zM482 0c0 -43 -33 -76 -71 -98c-51 -30 -111 -40 -170 -40s-119 10 -170 40c-38 22 -71 55 -71 98s33 76 71 98c51 30 111 40 170 40s119 -10 170 -40
c38 -22 71 -55 71 -98z" fill="currentColor"/>
</a>
<a style="color:inherit;" xlink:href="textedit://C:/Users/trocado/OneDrive/Documents/Practice-log/assets/chord-sequences.ly:38:7:8">
<path transform="translate(55.7887, 6.0527) scale(0.0040, -0.0040)" d="M210 110c-49 0 -67 -43 -67 -88c0 -74 56 -132 129 -132c49 0 67 43 67 88c0 74 -56 132 -129 132zM482 0c0 -43 -33 -76 -71 -98c-51 -30 -111 -40 -170 -40s-119 10 -170 40c-38 22 -71 55 -71 98s33 76 71 98c51 30 111 40 170 40s119 -10 170 -40
c38 -22 71 -55 71 -98z" fill="currentColor"/>
</a>
<a style="color:inherit;" xlink:href="textedit://C:/Users/trocado/OneDrive/Documents/Practice-log/assets/chord-sequences.ly:38:2:3">
<path transform="translate(55.7887, 7.0527) scale(0.0040, -0.0040)" d="M210 110c-49 0 -67 -43 -67 -88c0 -74 56 -132 129 -132c49 0 67 43 67 88c0 74 -56 132 -129 132zM482 0c0 -43 -33 -76 -71 -98c-51 -30 -111 -40 -170 -40s-119 10 -170 40c-38 22 -71 55 -71 98s33 76 71 98c51 30 111 40 170 40s119 -10 170 -40
c38 -22 71 -55 71 -98z" fill="currentColor"/>
</a>
<path transform="translate(54.6387, 3.5527) scale(0.0040, -0.0040)" d="M-8 375c8 5 18 7 27 7s18 -2 26 -7l-3 -192l102 23h4c10 0 19 -8 19 -18l8 -563c-8 -5 -18 -7 -27 -7s-18 2 -26 7l2 192l-101 -23h-4c-10 0 -19 8 -19 18zM128 110l-87 -19l-3 -201l88 19z" fill="currentColor"/>
<path transform="translate(47.4975, 3.0527) scale(0.0040, -0.0040)" d="M31 37l-2 -62v-11c0 -22 2 -43 5 -64c43 38 89 80 89 137c0 32 -14 65 -42 65c-31 0 -49 -32 -50 -65zM-16 -140l-14 590c9 5 20 8 30 8s21 -3 30 -8l-8 -340c25 24 59 38 94 38c50 0 84 -50 84 -104c0 -78 -83 -117 -141 -169c-17 -15 -25 -44 -49 -44
c-15 0 -26 13 -26 29z" fill="currentColor"/>
<a style="color:inherit;" xlink:href="textedit://C:/Users/trocado/OneDrive/Documents/Practice-log/assets/chord-sequences.ly:39:2:3">
<path transform="translate(62.9300, 8.5527) scale(0.0040, -0.0040)" d="M210 110c-49 0 -67 -43 -67 -88c0 -74 56 -132 129 -132c49 0 67 43 67 88c0 74 -56 132 -129 132zM482 0c0 -43 -33 -76 -71 -98c-51 -30 -111 -40 -170 -40s-119 10 -170 40c-38 22 -71 55 -71 98s33 76 71 98c51 30 111 40 170 40s119 -10 170 -40
c38 -22 71 -55 71 -98z" fill="currentColor"/>
</a>
<a style="color:inherit;" xlink:href="textedit://C:/Users/trocado/OneDrive/Documents/Practice-log/assets/chord-sequences.ly:39:5:6">
<path transform="translate(62.9300, 6.0527) scale(0.0040, -0.0040)" d="M210 110c-49 0 -67 -43 -67 -88c0 -74 56 -132 129 -132c49 0 67 43 67 88c0 74 -56 132 -129 132zM482 0c0 -43 -33 -76 -71 -98c-51 -30 -111 -40 -170 -40s-119 10 -170 40c-38 22 -71 55 -71 98s33 76 71 98c51 30 111 40 170 40s119 -10 170 -40
c38 -22 71 -55 71 -98z" fill="currentColor"/>
</a>
<a style="color:inherit;" xlink:href="textedit://C:/Users/trocado/OneDrive/Documents/Practice-log/assets/chord-sequences.ly:39:8:9">
<path transform="translate(62.9300, 4.5527) scale(0.0040, -0.0040)" d="M210 110c-49 0 -67 -43 -67 -88c0 -74 56 -132 129 -132c49 0 67 43 67 88c0 74 -56 132 -129 132zM482 0c0 -43 -33 -76 -71 -98c-51 -30 -111 -40 -170 -40s-119 10 -170 40c-38 22 -71 55 -71 98s33 76 71 98c51 30 111 40 170 40s119 -10 170 -40
c38 -22 71 -55 71 -98z" fill="currentColor"/>
</a>
<a style="color:inherit;" xlink:href="textedit://C:/Users/trocado/OneDrive/Documents/Practice-log/assets/chord-sequences.ly:43:2:3">
<path transform="translate(91.4950, 6.0527) scale(0.0040, -0.0040)" d="M210 110c-49 0 -67 -43 -67 -88c0 -74 56 -132 129 -132c49 0 67 43 67 88c0 74 -56 132 -129 132zM482 0c0 -43 -33 -76 -71 -98c-51 -30 -111 -40 -170 -40s-119 10 -170 40c-38 22 -71 55 -71 98s33 76 71 98c51 30 111 40 170 40s119 -10 170 -40
c38 -22 71 -55 71 -98z" fill="currentColor"/>
</a>
<a style="color:inherit;" xlink:href="textedit://C:/Users/trocado/OneDrive/Documents/Practice-log/assets/chord-sequences.ly:43:11:12">
<path transform="translate(91.4950, 1.5527) scale(0.0040, -0.0040)" d="M210 110c-49 0 -67 -43 -67 -88c0 -74 56 -132 129 -132c49 0 67 43 67 88c0 74 -56 132 -129 132zM482 0c0 -43 -33 -76 -71 -98c-51 -30 -111 -40 -170 -40s-119 10 -170 40c-38 22 -71 55 -71 98s33 76 71 98c51 30 111 40 170 40s119 -10 170 -40
c38 -22 71 -55 71 -98z" fill="currentColor"/>
</a>
<a style="color:inherit;" xlink:href="textedit://C:/Users/trocado/OneDrive/Documents/Practice-log/assets/chord-sequences.ly:43:5:6">
<path transform="translate(91.4950, 4.5527) scale(0.0040, -0.0040)" d="M210 110c-49 0 -67 -43 -67 -88c0 -74 56 -132 129 -132c49 0 67 43 67 88c0 74 -56 132 -129 132zM482 0c0 -43 -33 -76 -71 -98c-51 -30 -111 -40 -170 -40s-119 10 -170 40c-38 22 -71 55 -71 98s33 76 71 98c51 30 111 40 170 40s119 -10 170 -40
c38 -22 71 -55 71 -98z" fill="currentColor"/>
</a>
<path transform="translate(83.2037, 8.0527) scale(0.0040, -0.0040)" d="M31 37l-2 -62v-11c0 -22 2 -43 5 -64c43 38 89 80 89 137c0 32 -14 65 -42 65c-31 0 -49 -32 -50 -65zM-16 -140l-14 590c9 5 20 8 30 8s21 -3 30 -8l-8 -340c25 24 59 38 94 38c50 0 84 -50 84 -104c0 -78 -83 -117 -141 -169c-17 -15 -25 -44 -49 -44
c-15 0 -26 13 -26 29z" fill="currentColor"/>
<path transform="translate(90.3450, 4.5527) scale(0.0040, -0.0040)" d="M31 37l-2 -62v-11c0 -22 2 -43 5 -64c43 38 89 80 89 137c0 32 -14 65 -42 65c-31 0 -49 -32 -50 -65zM-16 -140l-14 590c9 5 20 8 30 8s21 -3 30 -8l-8 -340c25 24 59 38 94 38c50 0 84 -50 84 -104c0 -78 -83 -117 -141 -169c-17 -15 -25 -44 -49 -44
c-15 0 -26 13 -26 29z" fill="currentColor"/>
<a style="color:inherit;" xlink:href="textedit://C:/Users/trocado/OneDrive/Documents/Practice-log/assets/chord-sequences.ly:41:11:12">
<path transform="translate(77.2125, 2.0527) scale(0.0040, -0.0040)" d="M210 110c-49 0 -67 -43 -67 -88c0 -74 56 -132 129 -132c49 0 67 43 67 88c0 74 -56 132 -129 132zM482 0c0 -43 -33 -76 -71 -98c-51 -30 -111 -40 -170 -40s-119 10 -170 40c-38 22 -71 55 -71 98s33 76 71 98c51 30 111 40 170 40s119 -10 170 -40
c38 -22 71 -55 71 -98z" fill="currentColor"/>
</a>
<path transform="translate(75.7625, 5.5527) scale(0.0040, -0.0040)" d="M198 -329c-12 0 -21 9 -21 21v138l-79 -30v-154c0 -12 -9 -21 -21 -21s-21 9 -21 21v138l-22 -8c-3 -1 -6 -2 -9 -2c-13 0 -25 11 -25 25v54c0 10 6 20 16 24l40 15v155l-22 -9c-3 -1 -6 -1 -9 -1c-13 0 -25 11 -25 25v54c0 10 6 19 16 23l40 15v154c0 12 9 21 21 21
s21 -9 21 -21v-138l79 30v154c0 12 9 21 21 21s21 -9 21 -21v-138l22 8c3 1 6 2 9 2c13 0 25 -11 25 -25v-54c0 -10 -6 -20 -16 -24l-40 -15v-155l22 9c3 1 6 1 9 1c13 0 25 -11 25 -25v-54c0 -10 -6 -19 -16 -23l-40 -15v-154c0 -12 -9 -21 -21 -21zM98 62v-154l79 30v154z
" fill="currentColor"/>
<a style="color:inherit;" xlink:href="textedit://C:/Users/trocado/OneDrive/Documents/Practice-log/assets/chord-sequences.ly:41:5:6">
<path transform="translate(77.2125, 5.5527) scale(0.0040, -0.0040)" d="M210 110c-49 0 -67 -43 -67 -88c0 -74 56 -132 129 -132c49 0 67 43 67 88c0 74 -56 132 -129 132zM482 0c0 -43 -33 -76 -71 -98c-51 -30 -111 -40 -170 -40s-119 10 -170 40c-38 22 -71 55 -71 98s33 76 71 98c51 30 111 40 170 40s119 -10 170 -40
c38 -22 71 -55 71 -98z" fill="currentColor"/>
</a>
<a style="color:inherit;" xlink:href="textedit://C:/Users/trocado/OneDrive/Documents/Practice-log/assets/chord-sequences.ly:41:2:3">
<path transform="translate(77.2125, 8.0527) scale(0.0040, -0.0040)" d="M210 110c-49 0 -67 -43 -67 -88c0 -74 56 -132 129 -132c49 0 67 43 67 88c0 74 -56 132 -129 132zM482 0c0 -43 -33 -76 -71 -98c-51 -30 -111 -40 -170 -40s-119 10 -170 40c-38 22 -71 55 -71 98s33 76 71 98c51 30 111 40 170 40s119 -10 170 -40
c38 -22 71 -55 71 -98z" fill="currentColor"/>
</a>
<a style="color:inherit;" xlink:href="textedit://C:/Users/trocado/OneDrive/Documents/Practice-log/assets/chord-sequences.ly:42:7:8">
<path transform="translate(84.3537, 5.0527) scale(0.0040, -0.0040)" d="M210 110c-49 0 -67 -43 -67 -88c0 -74 56 -132 129 -132c49 0 67 43 67 88c0 74 -56 132 -129 132zM482 0c0 -43 -33 -76 -71 -98c-51 -30 -111 -40 -170 -40s-119 10 -170 40c-38 22 -71 55 -71 98s33 76 71 98c51 30 111 40 170 40s119 -10 170 -40
c38 -22 71 -55 71 -98z" fill="currentColor"/>
</a>
<a style="color:inherit;" xlink:href="textedit://C:/Users/trocado/OneDrive/Documents/Practice-log/assets/chord-sequences.ly:42:11:12">
<path transform="translate(84.3537, 2.5527) scale(0.0040, -0.0040)" d="M210 110c-49 0 -67 -43 -67 -88c0 -74 56 -132 129 -132c49 0 67 43 67 88c0 74 -56 132 -129 132zM482 0c0 -43 -33 -76 -71 -98c-51 -30 -111 -40 -170 -40s-119 10 -170 40c-38 22 -71 55 -71 98s33 76 71 98c51 30 111 40 170 40s119 -10 170 -40
c38 -22 71 -55 71 -98z" fill="currentColor"/>
</a>
<a style="color:inherit;" xlink:href="textedit://C:/Users/trocado/OneDrive/Documents/Practice-log/assets/chord-sequences.ly:42:2:3">
<path transform="translate(84.3537, 8.0527) scale(0.0040, -0.0040)" d="M210 110c-49 0 -67 -43 -67 -88c0 -74 56 -132 129 -132c49 0 67 43 67 88c0 74 -56 132 -129 132zM482 0c0 -43 -33 -76 -71 -98c-51 -30 -111 -40 -170 -40s-119 10 -170 40c-38 22 -71 55 -71 98s33 76 71 98c51 30 111 40 170 40s119 -10 170 -40
c38 -22 71 -55 71 -98z" fill="currentColor"/>
</a>
<a style="color:inherit;" xlink:href="textedit://C:/Users/trocado/OneDrive/Documents/Practice-log/assets/chord-sequences.ly:33:9:10">
<path transform="translate(20.0825, 6.5527) scale(0.0040, -0.0040)" d="M210 110c-49 0 -67 -43 -67 -88c0 -74 56 -132 129 -132c49 0 67 43 67 88c0 74 -56 132 -129 132zM482 0c0 -43 -33 -76 -71 -98c-51 -30 -111 -40 -170 -40s-119 10 -170 40c-38 22 -71 55 -71 98s33 76 71 98c51 30 111 40 170 40s119 -10 170 -40
c38 -22 71 -55 71 -98z" fill="currentColor"/>
</a>
<path transform="translate(18.9325, 10.0527) scale(0.0040, -0.0040)" d="M31 37l-2 -62v-11c0 -22 2 -43 5 -64c43 38 89 80 89 137c0 32 -14 65 -42 65c-31 0 -49 -32 -50 -65zM-16 -140l-14 590c9 5 20 8 30 8s21 -3 30 -8l-8 -340c25 24 59 38 94 38c50 0 84 -50 84 -104c0 -78 -83 -117 -141 -169c-17 -15 -25 -44 -49 -44
c-15 0 -26 13 -26 29z" fill="currentColor"/>
<a style="color:inherit;" xlink:href="textedit://C:/Users/trocado/OneDrive/Documents/Practice-log/assets/chord-sequences.ly:33:6:7">
<path transform="translate(20.0825, 7.5527) scale(0.0040, -0.0040)" d="M210 110c-49 0 -67 -43 -67 -88c0 -74 56 -132 129 -132c49 0 67 43 67 88c0 74 -56 132 -129 132zM482 0c0 -43 -33 -76 -71 -98c-51 -30 -111 -40 -170 -40s-119 10 -170 40c-38 22 -71 55 -71 98s33 76 71 98c51 30 111 40 170 40s119 -10 170 -40
c38 -22 71 -55 71 -98z" fill="currentColor"/>
</a>
<a style="color:inherit;" xlink:href="textedit://C:/Users/trocado/OneDrive/Documents/Practice-log/assets/chord-sequences.ly:33:2:3">
<path transform="translate(20.0825, 10.0527) scale(0.0040, -0.0040)" d="M210 110c-49 0 -67 -43 -67 -88c0 -74 56 -132 129 -132c49 0 67 43 67 88c0 74 -56 132 -129 132zM482 0c0 -43 -33 -76 -71 -98c-51 -30 -111 -40 -170 -40s-119 10 -170 40c-38 22 -71 55 -71 98s33 76 71 98c51 30 111 40 170 40s119 -10 170 -40
c38 -22 71 -55 71 -98z" fill="currentColor"/>
</a>
<a style="color:inherit;" xlink:href="textedit://C:/Users/trocado/OneDrive/Documents/Practice-log/assets/chord-sequences.ly:34:4:5">
<path transform="translate(27.2237, 7.0527) scale(0.0040, -0.0040)" d="M210 110c-49 0 -67 -43 -67 -88c0 -74 56 -132 129 -132c49 0 67 43 67 88c0 74 -56 132 -129 132zM482 0c0 -43 -33 -76 -71 -98c-51 -30 -111 -40 -170 -40s-119 10 -170 40c-38 22 -71 55 -71 98s33 76 71 98c51 30 111 40 170 40s119 -10 170 -40
c38 -22 71 -55 71 -98z" fill="currentColor"/>
</a>
<path transform="translate(11.4912, 5.5527) scale(0.0040, -0.0040)" d="M198 -329c-12 0 -21 9 -21 21v138l-79 -30v-154c0 -12 -9 -21 -21 -21s-21 9 -21 21v138l-22 -8c-3 -1 -6 -2 -9 -2c-13 0 -25 11 -25 25v54c0 10 6 20 16 24l40 15v155l-22 -9c-3 -1 -6 -1 -9 -1c-13 0 -25 11 -25 25v54c0 10 6 19 16 23l40 15v154c0 12 9 21 21 21
s21 -9 21 -21v-138l79 30v154c0 12 9 21 21 21s21 -9 21 -21v-138l22 8c3 1 6 2 9 2c13 0 25 -11 25 -25v-54c0 -10 -6 -20 -16 -24l-40 -15v-155l22 9c3 1 6 1 9 1c13 0 25 -11 25 -25v-54c0 -10 -6 -19 -16 -23l-40 -15v-154c0 -12 -9 -21 -21 -21zM98 62v-154l79 30v154z
" fill="currentColor"/>
<a style="color:inherit;" xlink:href="textedit://C:/Users/trocado/OneDrive/Documents/Practice-log/assets/chord-sequences.ly:34:2:3">
<path transform="translate(27.2237, 10.5527) scale(0.0040, -0.0040)" d="M210 110c-49 0 -67 -43 -67 -88c0 -74 56 -132 129 -132c49 0 67 43 67 88c0 74 -56 132 -129 132zM482 0c0 -43 -33 -76 -71 -98c-51 -30 -111 -40 -170 -40s-119 10 -170 40c-38 22 -71 55 -71 98s33 76 71 98c51 30 111 40 170 40s119 -10 170 -40
c38 -22 71 -55 71 -98z" fill="currentColor"/>
</a>
<path transform="translate(0.8000, 7.0527) scale(0.0040, -0.0040)" d="M379 264c3 0 7 1 10 1c157 0 258 -129 258 -263c0 -77 -33 -155 -108 -211c-22 -16 -46 -29 -72 -37c3 -33 4 -66 4 -99c0 -21 0 -41 -1 -62c-7 -121 -91 -229 -211 -229c-108 0 -196 88 -196 197c0 58 54 103 113 103c54 0 95 -47 95 -103c0 -52 -43 -95 -95 -95
c-9 0 -18 1 -27 4c25 -37 66 -61 113 -61c95 0 156 93 162 191c1 19 2 38 2 57c0 29 -1 58 -3 87c-29 -5 -58 -8 -88 -8c-189 0 -333 173 -333 376c0 177 129 308 244 443c-20 62 -40 124 -48 189c-7 52 -7 105 -7 158c0 114 54 221 147 288c4 3 8 4 12 4c5 0 9 -2 13 -5
c72 -83 135 -243 135 -356c0 -142 -84 -255 -176 -364c21 -68 40 -136 57 -205zM463 -201c65 24 110 94 110 161c0 88 -64 175 -167 188c24 -114 44 -227 57 -349zM77 25c0 -133 128 -243 261 -243c27 0 55 1 81 5c-13 126 -35 244 -60 362c-79 -8 -124 -60 -124 -118
c0 -43 25 -88 80 -120c5 -5 7 -11 7 -17c0 -12 -10 -23 -23 -23c-3 0 -7 1 -10 2c-81 43 -118 115 -118 186c0 89 60 177 163 200c-14 57 -30 113 -47 169c-105 -122 -210 -243 -210 -403zM403 1038c-99 -46 -161 -145 -161 -254c0 -71 21 -130 39 -188
c78 97 142 199 142 324c0 51 -4 72 -20 118z" fill="currentColor"/>
<path transform="translate(4.6500, 8.0527) scale(0.0040, -0.0040)" d="M31 37l-2 -62v-11c0 -22 2 -43 5 -64c43 38 89 80 89 137c0 32 -14 65 -42 65c-31 0 -49 -32 -50 -65zM-16 -140l-14 590c9 5 20 8 30 8s21 -3 30 -8l-8 -340c25 24 59 38 94 38c50 0 84 -50 84 -104c0 -78 -83 -117 -141 -169c-17 -15 -25 -44 -49 -44
c-15 0 -26 13 -26 29z" fill="currentColor"/>
<a style="color:inherit;" xlink:href="textedit://C:/Users/trocado/OneDrive/Documents/Practice-log/assets/chord-sequences.ly:31:9:10">
<path transform="translate(5.8000, 5.0527) scale(0.0040, -0.0040)" d="M210 110c-49 0 -67 -43 -67 -88c0 -74 56 -132 129 -132c49 0 67 43 67 88c0 74 -56 132 -129 132zM482 0c0 -43 -33 -76 -71 -98c-51 -30 -111 -40 -170 -40s-119 10 -170 40c-38 22 -71 55 -71 98s33 76 71 98c51 30 111 40 170 40s119 -10 170 -40
c38 -22 71 -55 71 -98z" fill="currentColor"/>
</a>
<a style="color:inherit;" xlink:href="textedit://C:/Users/trocado/OneDrive/Documents/Practice-log/assets/chord-sequences.ly:31:4:5">
<path transform="translate(5.8000, 8.0527) scale(0.0040, -0.0040)" d="M210 110c-49 0 -67 -43 -67 -88c0 -74 56 -132 129 -132c49 0 67 43 67 88c0 74 -56 132 -129 132zM482 0c0 -43 -33 -76 -71 -98c-51 -30 -111 -40 -170 -40s-119 10 -170 40c-38 22 -71 55 -71 98s33 76 71 98c51 30 111 40 170 40s119 -10 170 -40
c38 -22 71 -55 71 -98z" fill="currentColor"/>
</a>
<a style="color:inherit;" xlink:href="textedit://C:/Users/trocado/OneDrive/Documents/Practice-log/assets/chord-sequences.ly:31:2:3">
<path transform="translate(5.8000, 9.5527) scale(0.0040, -0.0040)" d="M210 110c-49 0 -67 -43 -67 -88c0 -74 56 -132 129 -132c49 0 67 43 67 88c0 74 -56 132 -129 132zM482 0c0 -43 -33 -76 -71 -98c-51 -30 -111 -40 -170 -40s-119 10 -170 40c-38 22 -71 55 -71 98s33 76 71 98c51 30 111 40 170 40s119 -10 170 -40
c38 -22 71 -55 71 -98z" fill="currentColor"/>
</a>
<path transform="translate(10.9232, 8.0527) scale(0.0040, -0.0040)" d="M-8 375c8 5 18 7 27 7s18 -2 26 -7l-3 -192l102 23h4c10 0 19 -8 19 -18l8 -563c-8 -5 -18 -7 -27 -7s-18 2 -26 7l2 192l-101 -23h-4c-10 0 -19 8 -19 18zM128 110l-87 -19l-3 -201l88 19z" fill="currentColor"/>
<a style="color:inherit;" xlink:href="textedit://C:/Users/trocado/OneDrive/Documents/Practice-log/assets/chord-sequences.ly:34:9:10">
<path transform="translate(27.2237, 6.0527) scale(0.0040, -0.0040)" d="M210 110c-49 0 -67 -43 -67 -88c0 -74 56 -132 129 -132c49 0 67 43 67 88c0 74 -56 132 -129 132zM482 0c0 -43 -33 -76 -71 -98c-51 -30 -111 -40 -170 -40s-119 10 -170 40c-38 22 -71 55 -71 98s33 76 71 98c51 30 111 40 170 40s119 -10 170 -40
c38 -22 71 -55 71 -98z" fill="currentColor"/>
</a>
<a style="color:inherit;" xlink:href="textedit://C:/Users/trocado/OneDrive/Documents/Practice-log/assets/chord-sequences.ly:32:8:9">
<path transform="translate(12.9412, 5.5527) scale(0.0040, -0.0040)" d="M210 110c-49 0 -67 -43 -67 -88c0 -74 56 -132 129 -132c49 0 67 43 67 88c0 74 -56 132 -129 132zM482 0c0 -43 -33 -76 -71 -98c-51 -30 -111 -40 -170 -40s-119 10 -170 40c-38 22 -71 55 -71 98s33 76 71 98c51 30 111 40 170 40s119 -10 170 -40
c38 -22 71 -55 71 -98z" fill="currentColor"/>
</a>
<a style="color:inherit;" xlink:href="textedit://C:/Users/trocado/OneDrive/Documents/Practice-log/assets/chord-sequences.ly:32:5:6">
<path transform="translate(12.9412, 8.0527) scale(0.0040, -0.0040)" d="M210 110c-49 0 -67 -43 -67 -88c0 -74 56 -132 129 -132c49 0 67 43 67 88c0 74 -56 132 -129 132zM482 0c0 -43 -33 -76 -71 -98c-51 -30 -111 -40 -170 -40s-119 10 -170 40c-38 22 -71 55 -71 98s33 76 71 98c51 30 111 40 170 40s119 -10 170 -40
c38 -22 71 -55 71 -98z" fill="currentColor"/>
</a>
<a style="color:inherit;" xlink:href="textedit://C:/Users/trocado/OneDrive/Documents/Practice-log/assets/chord-sequences.ly:32:2:3">
<path transform="translate(12.9412, 9.0527) scale(0.0040, -0.0040)" d="M210 110c-49 0 -67 -43 -67 -88c0 -74 56 -132 129 -132c49 0 67 43 67 88c0 74 -56 132 -129 132zM482 0c0 -43 -33 -76 -71 -98c-51 -30 -111 -40 -170 -40s-119 10 -170 40c-38 22 -71 55 -71 98s33 76 71 98c51 30 111 40 170 40s119 -10 170 -40
c38 -22 71 -55 71 -98z" fill="currentColor"/>
</a>
<a style="color:inherit;" xlink:href="textedit://C:/Users/trocado/OneDrive/Documents/Practice-log/assets/chord-sequences.ly:36:9:10">
<path transform="translate(41.5062, 4.0527) scale(0.0040, -0.0040)" d="M210 110c-49 0 -67 -43 -67 -88c0 -74 56 -132 129 -132c49 0 67 43 67 88c0 74 -56 132 -129 132zM482 0c0 -43 -33 -76 -71 -98c-51 -30 -111 -40 -170 -40s-119 10 -170 40c-38 22 -71 55 -71 98s33 76 71 98c51 30 111 40 170 40s119 -10 170 -40
c38 -22 71 -55 71 -98z" fill="currentColor"/>
</a>
<path transform="translate(40.3562, 10.0527) scale(0.0040, -0.0040)" d="M-8 375c8 5 18 7 27 7s18 -2 26 -7l-3 -192l102 23h4c10 0 19 -8 19 -18l8 -563c-8 -5 -18 -7 -27 -7s-18 2 -26 7l2 192l-101 -23h-4c-10 0 -19 8 -19 18zM128 110l-87 -19l-3 -201l88 19z" fill="currentColor"/>
<a style="color:inherit;" xlink:href="textedit://C:/Users/trocado/OneDrive/Documents/Practice-log/assets/chord-sequences.ly:36:4:5">
<path transform="translate(41.5062, 6.5527) scale(0.0040, -0.0040)" d="M210 110c-49 0 -67 -43 -67 -88c0 -74 56 -132 129 -132c49 0 67 43 67 88c0 74 -56 132 -129 132zM482 0c0 -43 -33 -76 -71 -98c-51 -30 -111 -40 -170 -40s-119 10 -170 40c-38 22 -71 55 -71 98s33 76 71 98c51 30 111 40 170 40s119 -10 170 -40
c38 -22 71 -55 71 -98z" fill="currentColor"/>
</a>
<a style="color:inherit;" xlink:href="textedit://C:/Users/trocado/OneDrive/Documents/Practice-log/assets/chord-sequences.ly:36:2:3">
<path transform="translate(41.5062, 10.0527) scale(0.0040, -0.0040)" d="M210 110c-49 0 -67 -43 -67 -88c0 -74 56 -132 129 -132c49 0 67 43 67 88c0 74 -56 132 -129 132zM482 0c0 -43 -33 -76 -71 -98c-51 -30 -111 -40 -170 -40s-119 10 -170 40c-38 22 -71 55 -71 98s33 76 71 98c51 30 111 40 170 40s119 -10 170 -40
c38 -22 71 -55 71 -98z" fill="currentColor"/>
</a>
<path transform="translate(40.3562, 6.5527) scale(0.0040, -0.0040)" d="M31 37l-2 -62v-11c0 -22 2 -43 5 -64c43 38 89 80 89 137c0 32 -14 65 -42 65c-31 0 -49 -32 -50 -65zM-16 -140l-14 590c9 5 20 8 30 8s21 -3 30 -8l-8 -340c25 24 59 38 94 38c50 0 84 -50 84 -104c0 -78 -83 -117 -141 -169c-17 -15 -25 -44 -49 -44
c-15 0 -26 13 -26 29z" fill="currentColor"/>
<a style="color:inherit;" xlink:href="textedit://C:/Users/trocado/OneDrive/Documents/Practice-log/assets/chord-sequences.ly:37:2:3">
<path transform="translate(48.6475, 7.5527) scale(0.0040, -0.0040)" d="M210 110c-49 0 -67 -43 -67 -88c0 -74 56 -132 129 -132c49 0 67 43 67 88c0 74 -56 132 -129 132zM482 0c0 -43 -33 -76 -71 -98c-51 -30 -111 -40 -170 -40s-119 10 -170 40c-38 22 -71 55 -71 98s33 76 71 98c51 30 111 40 170 40s119 -10 170 -40
c38 -22 71 -55 71 -98z" fill="currentColor"/>
</a>
<a style="color:inherit;" xlink:href="textedit://C:/Users/trocado/OneDrive/Documents/Practice-log/assets/chord-sequences.ly:37:5:6">
<path transform="translate(48.6475, 6.5527) scale(0.0040, -0.0040)" d="M210 110c-49 0 -67 -43 -67 -88c0 -74 56 -132 129 -132c49 0 67 43 67 88c0 74 -56 132 -129 132zM482 0c0 -43 -33 -76 -71 -98c-51 -30 -111 -40 -170 -40s-119 10 -170 40c-38 22 -71 55 -71 98s33 76 71 98c51 30 111 40 170 40s119 -10 170 -40
c38 -22 71 -55 71 -98z" fill="currentColor"/>
</a>
<a style="color:inherit;" xlink:href="textedit://C:/Users/trocado/OneDrive/Documents/Practice-log/assets/chord-sequences.ly:37:8:9">
<path transform="translate(48.6475, 3.0527) scale(0.0040, -0.0040)" d="M210 110c-49 0 -67 -43 -67 -88c0 -74 56 -132 129 -132c49 0 67 43 67 88c0 74 -56 132 -129 132zM482 0c0 -43 -33 -76 -71 -98c-51 -30 -111 -40 -170 -40s-119 10 -170 40c-38 22 -71 55 -71 98s33 76 71 98c51 30 111 40 170 40s119 -10 170 -40
c38 -22 71 -55 71 -98z" fill="currentColor"/>
</a>
<path transform="translate(25.0097, 7.0527) scale(0.0040, -0.0040)" d="M31 37l-2 -62v-11c0 -22 2 -43 5 -64c43 38 89 80 89 137c0 32 -14 65 -42 65c-31 0 -49 -32 -50 -65zM-16 -140l-14 590c9 5 20 8 30 8s21 -3 30 -8l-8 -340c25 24 59 38 94 38c50 0 84 -50 84 -104c0 -78 -83 -117 -141 -169c-17 -15 -25 -44 -49 -44
c-15 0 -26 13 -26 29z" fill="currentColor"/>
<a style="color:inherit;" xlink:href="textedit://C:/Users/trocado/OneDrive/Documents/Practice-log/assets/chord-sequences.ly:35:2:3">
<path transform="translate(34.3650, 9.5527) scale(0.0040, -0.0040)" d="M210 110c-49 0 -67 -43 -67 -88c0 -74 56 -132 129 -132c49 0 67 43 67 88c0 74 -56 132 -129 132zM482 0c0 -43 -33 -76 -71 -98c-51 -30 -111 -40 -170 -40s-119 10 -170 40c-38 22 -71 55 -71 98s33 76 71 98c51 30 111 40 170 40s119 -10 170 -40
c38 -22 71 -55 71 -98z" fill="currentColor"/>
</a>
<a style="color:inherit;" xlink:href="textedit://C:/Users/trocado/OneDrive/Documents/Practice-log/assets/chord-sequences.ly:35:6:7">
<path transform="translate(34.3650, 7.0527) scale(0.0040, -0.0040)" d="M210 110c-49 0 -67 -43 -67 -88c0 -74 56 -132 129 -132c49 0 67 43 67 88c0 74 -56 132 -129 132zM482 0c0 -43 -33 -76 -71 -98c-51 -30 -111 -40 -170 -40s-119 10 -170 40c-38 22 -71 55 -71 98s33 76 71 98c51 30 111 40 170 40s119 -10 170 -40
c38 -22 71 -55 71 -98z" fill="currentColor"/>
</a>
<a style="color:inherit;" xlink:href="textedit://C:/Users/trocado/OneDrive/Documents/Practice-log/assets/chord-sequences.ly:35:9:10">
<path transform="translate(34.3650, 3.5527) scale(0.0040, -0.0040)" d="M210 110c-49 0 -67 -43 -67 -88c0 -74 56 -132 129 -132c49 0 67 43 67 88c0 74 -56 132 -129 132zM482 0c0 -43 -33 -76 -71 -98c-51 -30 -111 -40 -170 -40s-119 10 -170 40c-38 22 -71 55 -71 98s33 76 71 98c51 30 111 40 170 40s119 -10 170 -40
c38 -22 71 -55 71 -98z" fill="currentColor"/>
</a>
<path transform="translate(32.7086, 9.5527) scale(0.0040, -0.0040)" d="M31 37l-2 -62v-11c0 -22 2 -43 5 -64c43 38 89 80 89 137c0 32 -14 65 -42 65c-31 0 -49 -32 -50 -65zM-16 -140l-14 590c9 5 20 8 30 8s21 -3 30 -8l-8 -340c25 24 59 38 94 38c50 0 84 -50 84 -104c0 -78 -83 -117 -141 -169c-17 -15 -25 -44 -49 -44
c-15 0 -26 13 -26 29z" fill="currentColor"/>
<path transform="translate(26.0737, 6.0527) scale(0.0040, -0.0040)" d="M31 37l-2 -62v-11c0 -22 2 -43 5 -64c43 38 89 80 89 137c0 32 -14 65 -42 65c-31 0 -49 -32 -50 -65zM-16 -140l-14 590c9 5 20 8 30 8s21 -3 30 -8l-8 -340c25 24 59 38 94 38c50 0 84 -50 84 -104c0 -78 -83 -117 -141 -169c-17 -15 -25 -44 -49 -44
c-15 0 -26 13 -26 29z" fill="currentColor"/>
<path transform="translate(33.2150, 3.5527) scale(0.0040, -0.0040)" d="M31 37l-2 -62v-11c0 -22 2 -43 5 -64c43 38 89 80 89 137c0 32 -14 65 -42 65c-31 0 -49 -32 -50 -65zM-16 -140l-14 590c9 5 20 8 30 8s21 -3 30 -8l-8 -340c25 24 59 38 94 38c50 0 84 -50 84 -104c0 -78 -83 -117 -141 -169c-17 -15 -25 -44 -49 -44
c-15 0 -26 13 -26 29z" fill="currentColor"/>
<path transform="translate(33.2150, 7.0527) scale(0.0040, -0.0040)" d="M-8 375c8 5 18 7 27 7s18 -2 26 -7l-3 -192l102 23h4c10 0 19 -8 19 -18l8 -563c-8 -5 -18 -7 -27 -7s-18 2 -26 7l2 192l-101 -23h-4c-10 0 -19 8 -19 18zM128 110l-87 -19l-3 -201l88 19z" fill="currentColor"/>
<line transform="translate(0.0000, 24.3418)" stroke-linejoin="round" stroke-linecap="round" stroke-width="0.1219" stroke="currentColor" x1="0.0610" y1="-0.0000" x2="98.5753" y2="-0.0000"/>
<line transform="translate(0.0000, 23.3418)" stroke-linejoin="round" stroke-linecap="round" stroke-width="0.1219" stroke="currentColor" x1="0.0610" y1="-0.0000" x2="98.5753" y2="-0.0000"/>
<line transform="translate(0.0000, 22.3418)" stroke-linejoin="round" stroke-linecap="round" stroke-width="0.1219" stroke="currentColor" x1="0.0610" y1="-0.0000" x2="98.5753" y2="-0.0000"/>
<line transform="translate(0.0000, 21.3418)" stroke-linejoin="round" stroke-linecap="round" stroke-width="0.1219" stroke="currentColor" x1="0.0610" y1="-0.0000" x2="98.5753" y2="-0.0000"/>
<line transform="translate(0.0000, 20.3418)" stroke-linejoin="round" stroke-linecap="round" stroke-width="0.1219" stroke="currentColor" x1="0.0610" y1="-0.0000" x2="98.5753" y2="-0.0000"/>
<rect transform="translate(0.0000, 19.3418)" x="91.8511" y="-0.1110" width="2.6501" height="0.2219" ry="0.1110" fill="currentColor"/>
<rect transform="translate(0.0000, 18.3418)" x="85.3743" y="-0.1110" width="2.5834" height="0.2219" ry="0.1110" fill="currentColor"/>
<rect transform="translate(0.0000, 19.3418)" x="85.0676" y="-0.1110" width="2.8901" height="0.2219" ry="0.1110" fill="currentColor"/>
<rect transform="translate(0.0000, 18.3418)" x="78.5242" y="-0.1110" width="2.8901" height="0.2219" ry="0.1110" fill="currentColor"/>
<rect transform="translate(0.0000, 19.3418)" x="78.5242" y="-0.1110" width="2.8901" height="0.2219" ry="0.1110" fill="currentColor"/>
<rect transform="translate(0.0000, 19.3418)" x="71.9807" y="-0.1110" width="2.8901" height="0.2219" ry="0.1110" fill="currentColor"/>
<rect transform="translate(0.0000, 18.3418)" x="65.4373" y="-0.1110" width="2.8901" height="0.2219" ry="0.1110" fill="currentColor"/>
<rect transform="translate(0.0000, 19.3418)" x="65.4373" y="-0.1110" width="2.8901" height="0.2219" ry="0.1110" fill="currentColor"/>
<rect transform="translate(0.0000, 25.3418)" x="59.2005" y="-0.1110" width="2.5834" height="0.2219" ry="0.1110" fill="currentColor"/>
<rect transform="translate(0.0000, 19.3418)" x="39.5701" y="-0.1110" width="2.5834" height="0.2219" ry="0.1110" fill="currentColor"/>
<rect transform="translate(0.0000, 17.3418)" x="32.7200" y="-0.1110" width="2.8901" height="0.2219" ry="0.1110" fill="currentColor"/>
<rect transform="translate(0.0000, 18.3418)" x="32.7200" y="-0.1110" width="2.8901" height="0.2219" ry="0.1110" fill="currentColor"/>
<rect transform="translate(0.0000, 19.3418)" x="32.7200" y="-0.1110" width="2.8901" height="0.2219" ry="0.1110" fill="currentColor"/>
<rect transform="translate(0.0000, 16.3418)" x="26.4832" y="-0.1110" width="2.5834" height="0.2219" ry="0.1110" fill="currentColor"/>
<rect transform="translate(0.0000, 17.3418)" x="26.1765" y="-0.1110" width="2.8901" height="0.2219" ry="0.1110" fill="currentColor"/>
<rect transform="translate(0.0000, 18.3418)" x="26.1765" y="-0.1110" width="2.8901" height="0.2219" ry="0.1110" fill="currentColor"/>
<rect transform="translate(0.0000, 19.3418)" x="26.1765" y="-0.1110" width="2.8901" height="0.2219" ry="0.1110" fill="currentColor"/>
<rect transform="translate(0.0000, 19.3418)" x="19.6331" y="-0.1110" width="2.8901" height="0.2219" ry="0.1110" fill="currentColor"/>
<rect transform="translate(0.0000, 19.3418)" x="13.3296" y="-0.1110" width="2.6501" height="0.2219" ry="0.1110" fill="currentColor"/>
<rect transform="translate(0.0000, 18.3418)" x="6.8528" y="-0.1110" width="2.5834" height="0.2219" ry="0.1110" fill="currentColor"/>
<rect transform="translate(0.0000, 19.3418)" x="6.5461" y="-0.1110" width="2.8901" height="0.2219" ry="0.1110" fill="currentColor"/>
<path transform="translate(71.3124, 24.3418) scale(0.0040, -0.0040)" d="M31 37l-2 -62v-11c0 -22 2 -43 5 -64c43 38 89 80 89 137c0 32 -14 65 -42 65c-31 0 -49 -32 -50 -65zM-16 -140l-14 590c9 5 20 8 30 8s21 -3 30 -8l-8 -340c25 24 59 38 94 38c50 0 84 -50 84 -104c0 -78 -83 -117 -141 -169c-17 -15 -25 -44 -49 -44
c-15 0 -26 13 -26 29z" fill="currentColor"/>
<a style="color:inherit;" xlink:href="textedit://C:/Users/trocado/OneDrive/Documents/Practice-log/assets/chord-sequences.ly:55:13:14">
<path transform="translate(72.4624, 18.8418) scale(0.0040, -0.0040)" d="M210 110c-49 0 -67 -43 -67 -88c0 -74 56 -132 129 -132c49 0 67 43 67 88c0 74 -56 132 -129 132zM482 0c0 -43 -33 -76 -71 -98c-51 -30 -111 -40 -170 -40s-119 10 -170 40c-38 22 -71 55 -71 98s33 76 71 98c51 30 111 40 170 40s119 -10 170 -40
c38 -22 71 -55 71 -98z" fill="currentColor"/>
</a>
<a style="color:inherit;" xlink:href="textedit://C:/Users/trocado/OneDrive/Documents/Practice-log/assets/chord-sequences.ly:55:8:9">
<path transform="translate(72.4624, 21.3418) scale(0.0040, -0.0040)" d="M210 110c-49 0 -67 -43 -67 -88c0 -74 56 -132 129 -132c49 0 67 43 67 88c0 74 -56 132 -129 132zM482 0c0 -43 -33 -76 -71 -98c-51 -30 -111 -40 -170 -40s-119 10 -170 40c-38 22 -71 55 -71 98s33 76 71 98c51 30 111 40 170 40s119 -10 170 -40
c38 -22 71 -55 71 -98z" fill="currentColor"/>
</a>
<a style="color:inherit;" xlink:href="textedit://C:/Users/trocado/OneDrive/Documents/Practice-log/assets/chord-sequences.ly:55:2:3">
<path transform="translate(72.4624, 24.3418) scale(0.0040, -0.0040)" d="M210 110c-49 0 -67 -43 -67 -88c0 -74 56 -132 129 -132c49 0 67 43 67 88c0 74 -56 132 -129 132zM482 0c0 -43 -33 -76 -71 -98c-51 -30 -111 -40 -170 -40s-119 10 -170 40c-38 22 -71 55 -71 98s33 76 71 98c51 30 111 40 170 40s119 -10 170 -40
c38 -22 71 -55 71 -98z" fill="currentColor"/>
</a>
<a style="color:inherit;" xlink:href="textedit://C:/Users/trocado/OneDrive/Documents/Practice-log/assets/chord-sequences.ly:56:13:14">
<path transform="translate(79.0058, 17.8418) scale(0.0040, -0.0040)" d="M210 110c-49 0 -67 -43 -67 -88c0 -74 56 -132 129 -132c49 0 67 43 67 88c0 74 -56 132 -129 132zM482 0c0 -43 -33 -76 -71 -98c-51 -30 -111 -40 -170 -40s-119 10 -170 40c-38 22 -71 55 -71 98s33 76 71 98c51 30 111 40 170 40s119 -10 170 -40
c38 -22 71 -55 71 -98z" fill="currentColor"/>
</a>
<a style="color:inherit;" xlink:href="textedit://C:/Users/trocado/OneDrive/Documents/Practice-log/assets/chord-sequences.ly:56:6:7">
<path transform="translate(79.0058, 20.8418) scale(0.0040, -0.0040)" d="M210 110c-49 0 -67 -43 -67 -88c0 -74 56 -132 129 -132c49 0 67 43 67 88c0 74 -56 132 -129 132zM482 0c0 -43 -33 -76 -71 -98c-51 -30 -111 -40 -170 -40s-119 10 -170 40c-38 22 -71 55 -71 98s33 76 71 98c51 30 111 40 170 40s119 -10 170 -40
c38 -22 71 -55 71 -98z" fill="currentColor"/>
</a>
<a style="color:inherit;" xlink:href="textedit://C:/Users/trocado/OneDrive/Documents/Practice-log/assets/chord-sequences.ly:56:2:3">
<path transform="translate(79.0058, 22.3418) scale(0.0040, -0.0040)" d="M210 110c-49 0 -67 -43 -67 -88c0 -74 56 -132 129 -132c49 0 67 43 67 88c0 74 -56 132 -129 132zM482 0c0 -43 -33 -76 -71 -98c-51 -30 -111 -40 -170 -40s-119 10 -170 40c-38 22 -71 55 -71 98s33 76 71 98c51 30 111 40 170 40s119 -10 170 -40
c38 -22 71 -55 71 -98z" fill="currentColor"/>
</a>
<text transform="translate(38.9451, 17.0265)" font-family="serif" font-style="italic" font-size="2.1999" text-anchor="start" fill="currentColor">
<tspan>
8va</tspan>
</text>
<line transform="translate(94.6195, 16.3209)" stroke-linejoin="round" stroke-linecap="round" stroke-width="0.1219" stroke="currentColor" x1="0" y1="0" x2="0.0000" y2="0.8000" stroke-dasharray="1.0,0.0"/>
<line transform="translate(42.3863, 16.3209)" stroke-linejoin="round" stroke-linecap="round" stroke-width="0.1219" stroke="currentColor" x1="0" y1="0" x2="0.0000" y2="-0.0000" stroke-dasharray="1.0,0.0"/>
<line transform="translate(42.3863, 16.3209)" stroke-linejoin="round" stroke-linecap="round" stroke-width="0.1219" stroke="currentColor" x1="0" y1="0" x2="52.2332" y2="-0.0000" stroke-dasharray="0.29961676120387,0.699105776142363"/>
<path transform="translate(57.9255, 21.8418) scale(0.0040, -0.0040)" d="M-8 375c8 5 18 7 27 7s18 -2 26 -7l-3 -192l102 23h4c10 0 19 -8 19 -18l8 -563c-8 -5 -18 -7 -27 -7s-18 2 -26 7l2 192l-101 -23h-4c-10 0 -19 8 -19 18zM128 110l-87 -19l-3 -201l88 19z" fill="currentColor"/>
<path transform="translate(57.0127, 20.8418) scale(0.0040, -0.0040)" d="M-8 375c8 5 18 7 27 7s18 -2 26 -7l-3 -192l102 23h4c10 0 19 -8 19 -18l8 -563c-8 -5 -18 -7 -27 -7s-18 2 -26 7l2 192l-101 -23h-4c-10 0 -19 8 -19 18zM128 110l-87 -19l-3 -201l88 19z" fill="currentColor"/>
<a style="color:inherit;" xlink:href="textedit://C:/Users/trocado/OneDrive/Documents/Practice-log/assets/chord-sequences.ly:54:2:3">
<path transform="translate(65.9189, 24.3418) scale(0.0040, -0.0040)" d="M210 110c-49 0 -67 -43 -67 -88c0 -74 56 -132 129 -132c49 0 67 43 67 88c0 74 -56 132 -129 132zM482 0c0 -43 -33 -76 -71 -98c-51 -30 -111 -40 -170 -40s-119 10 -170 40c-38 22 -71 55 -71 98s33 76 71 98c51 30 111 40 170 40s119 -10 170 -40
c38 -22 71 -55 71 -98z" fill="currentColor"/>
</a>
<path transform="translate(57.9255, 25.3418) scale(0.0040, -0.0040)" d="M198 -329c-12 0 -21 9 -21 21v138l-79 -30v-154c0 -12 -9 -21 -21 -21s-21 9 -21 21v138l-22 -8c-3 -1 -6 -2 -9 -2c-13 0 -25 11 -25 25v54c0 10 6 20 16 24l40 15v155l-22 -9c-3 -1 -6 -1 -9 -1c-13 0 -25 11 -25 25v54c0 10 6 19 16 23l40 15v154c0 12 9 21 21 21
s21 -9 21 -21v-138l79 30v154c0 12 9 21 21 21s21 -9 21 -21v-138l22 8c3 1 6 2 9 2c13 0 25 -11 25 -25v-54c0 -10 -6 -20 -16 -24l-40 -15v-155l22 9c3 1 6 1 9 1c13 0 25 -11 25 -25v-54c0 -10 -6 -19 -16 -23l-40 -15v-154c0 -12 -9 -21 -21 -21zM98 62v-154l79 30v154z
" fill="currentColor"/>
<a style="color:inherit;" xlink:href="textedit://C:/Users/trocado/OneDrive/Documents/Practice-log/assets/chord-sequences.ly:53:8:9">
<path transform="translate(59.3755, 21.8418) scale(0.0040, -0.0040)" d="M210 110c-49 0 -67 -43 -67 -88c0 -74 56 -132 129 -132c49 0 67 43 67 88c0 74 -56 132 -129 132zM482 0c0 -43 -33 -76 -71 -98c-51 -30 -111 -40 -170 -40s-119 10 -170 40c-38 22 -71 55 -71 98s33 76 71 98c51 30 111 40 170 40s119 -10 170 -40
c38 -22 71 -55 71 -98z" fill="currentColor"/>
</a>
<path transform="translate(64.4689, 21.8418) scale(0.0040, -0.0040)" d="M198 -329c-12 0 -21 9 -21 21v138l-79 -30v-154c0 -12 -9 -21 -21 -21s-21 9 -21 21v138l-22 -8c-3 -1 -6 -2 -9 -2c-13 0 -25 11 -25 25v54c0 10 6 20 16 24l40 15v155l-22 -9c-3 -1 -6 -1 -9 -1c-13 0 -25 11 -25 25v54c0 10 6 19 16 23l40 15v154c0 12 9 21 21 21
s21 -9 21 -21v-138l79 30v154c0 12 9 21 21 21s21 -9 21 -21v-138l22 8c3 1 6 2 9 2c13 0 25 -11 25 -25v-54c0 -10 -6 -20 -16 -24l-40 -15v-155l22 9c3 1 6 1 9 1c13 0 25 -11 25 -25v-54c0 -10 -6 -19 -16 -23l-40 -15v-154c0 -12 -9 -21 -21 -21zM98 62v-154l79 30v154z
" fill="currentColor"/>
<a style="color:inherit;" xlink:href="textedit://C:/Users/trocado/OneDrive/Documents/Practice-log/assets/chord-sequences.ly:53:2:3">
<path transform="translate(59.3755, 25.3418) scale(0.0040, -0.0040)" d="M210 110c-49 0 -67 -43 -67 -88c0 -74 56 -132 129 -132c49 0 67 43 67 88c0 74 -56 132 -129 132zM482 0c0 -43 -33 -76 -71 -98c-51 -30 -111 -40 -170 -40s-119 10 -170 40c-38 22 -71 55 -71 98s33 76 71 98c51 30 111 40 170 40s119 -10 170 -40
c38 -22 71 -55 71 -98z" fill="currentColor"/>
</a>
<a style="color:inherit;" xlink:href="textedit://C:/Users/trocado/OneDrive/Documents/Practice-log/assets/chord-sequences.ly:53:13:14">
<path transform="translate(59.3755, 20.8418) scale(0.0040, -0.0040)" d="M210 110c-49 0 -67 -43 -67 -88c0 -74 56 -132 129 -132c49 0 67 43 67 88c0 74 -56 132 -129 132zM482 0c0 -43 -33 -76 -71 -98c-51 -30 -111 -40 -170 -40s-119 10 -170 40c-38 22 -71 55 -71 98s33 76 71 98c51 30 111 40 170 40s119 -10 170 -40
c38 -22 71 -55 71 -98z" fill="currentColor"/>
</a>
<a style="color:inherit;" xlink:href="textedit://C:/Users/trocado/OneDrive/Documents/Practice-log/assets/chord-sequences.ly:54:13:14">
<path transform="translate(65.9189, 18.3418) scale(0.0040, -0.0040)" d="M210 110c-49 0 -67 -43 -67 -88c0 -74 56 -132 129 -132c49 0 67 43 67 88c0 74 -56 132 -129 132zM482 0c0 -43 -33 -76 -71 -98c-51 -30 -111 -40 -170 -40s-119 10 -170 40c-38 22 -71 55 -71 98s33 76 71 98c51 30 111 40 170 40s119 -10 170 -40
c38 -22 71 -55 71 -98z" fill="currentColor"/>
</a>
<a style="color:inherit;" xlink:href="textedit://C:/Users/trocado/OneDrive/Documents/Practice-log/assets/chord-sequences.ly:54:6:7">
<path transform="translate(65.9189, 21.8418) scale(0.0040, -0.0040)" d="M210 110c-49 0 -67 -43 -67 -88c0 -74 56 -132 129 -132c49 0 67 43 67 88c0 74 -56 132 -129 132zM482 0c0 -43 -33 -76 -71 -98c-51 -30 -111 -40 -170 -40s-119 10 -170 40c-38 22 -71 55 -71 98s33 76 71 98c51 30 111 40 170 40s119 -10 170 -40
c38 -22 71 -55 71 -98z" fill="currentColor"/>
</a>
<path transform="translate(90.9428, 19.3418) scale(0.0040, -0.0040)" d="M-8 375c8 5 18 7 27 7s18 -2 26 -7l-3 -192l102 23h4c10 0 19 -8 19 -18l8 -563c-8 -5 -18 -7 -27 -7s-18 2 -26 7l2 192l-101 -23h-4c-10 0 -19 8 -19 18zM128 110l-87 -19l-3 -201l88 19z" fill="currentColor"/>
<path transform="translate(90.9428, 22.8418) scale(0.0040, -0.0040)" d="M31 37l-2 -62v-11c0 -22 2 -43 5 -64c43 38 89 80 89 137c0 32 -14 65 -42 65c-31 0 -49 -32 -50 -65zM-16 -140l-14 590c9 5 20 8 30 8s21 -3 30 -8l-8 -340c25 24 59 38 94 38c50 0 84 -50 84 -104c0 -78 -83 -117 -141 -169c-17 -15 -25 -44 -49 -44
c-15 0 -26 13 -26 29z" fill="currentColor"/>
<path transform="translate(51.6820, 20.8418) scale(0.0040, -0.0040)" d="M31 37l-2 -62v-11c0 -22 2 -43 5 -64c43 38 89 80 89 137c0 32 -14 65 -42 65c-31 0 -49 -32 -50 -65zM-16 -140l-14 590c9 5 20 8 30 8s21 -3 30 -8l-8 -340c25 24 59 38 94 38c50 0 84 -50 84 -104c0 -78 -83 -117 -141 -169c-17 -15 -25 -44 -49 -44
c-15 0 -26 13 -26 29z" fill="currentColor"/>
<a style="color:inherit;" xlink:href="textedit://C:/Users/trocado/OneDrive/Documents/Practice-log/assets/chord-sequences.ly:44:2:3">
<path transform="translate(7.0278, 21.8418) scale(0.0040, -0.0040)" d="M210 110c-49 0 -67 -43 -67 -88c0 -74 56 -132 129 -132c49 0 67 43 67 88c0 74 -56 132 -129 132zM482 0c0 -43 -33 -76 -71 -98c-51 -30 -111 -40 -170 -40s-119 10 -170 40c-38 22 -71 55 -71 98s33 76 71 98c51 30 111 40 170 40s119 -10 170 -40
c38 -22 71 -55 71 -98z" fill="currentColor"/>
</a>
<a style="color:inherit;" xlink:href="textedit://C:/Users/trocado/OneDrive/Documents/Practice-log/assets/chord-sequences.ly:44:6:7">
<path transform="translate(7.0278, 20.8418) scale(0.0040, -0.0040)" d="M210 110c-49 0 -67 -43 -67 -88c0 -74 56 -132 129 -132c49 0 67 43 67 88c0 74 -56 132 -129 132zM482 0c0 -43 -33 -76 -71 -98c-51 -30 -111 -40 -170 -40s-119 10 -170 40c-38 22 -71 55 -71 98s33 76 71 98c51 30 111 40 170 40s119 -10 170 -40
c38 -22 71 -55 71 -98z" fill="currentColor"/>
</a>
<a style="color:inherit;" xlink:href="textedit://C:/Users/trocado/OneDrive/Documents/Practice-log/assets/chord-sequences.ly:44:10:11">
<path transform="translate(7.0278, 18.3418) scale(0.0040, -0.0040)" d="M210 110c-49 0 -67 -43 -67 -88c0 -74 56 -132 129 -132c49 0 67 43 67 88c0 74 -56 132 -129 132zM482 0c0 -43 -33 -76 -71 -98c-51 -30 -111 -40 -170 -40s-119 10 -170 40c-38 22 -71 55 -71 98s33 76 71 98c51 30 111 40 170 40s119 -10 170 -40
c38 -22 71 -55 71 -98z" fill="currentColor"/>
</a>
<path transform="translate(5.5778, 21.8418) scale(0.0040, -0.0040)" d="M-8 375c8 5 18 7 27 7s18 -2 26 -7l-3 -192l102 23h4c10 0 19 -8 19 -18l8 -563c-8 -5 -18 -7 -27 -7s-18 2 -26 7l2 192l-101 -23h-4c-10 0 -19 8 -19 18zM128 110l-87 -19l-3 -201l88 19z" fill="currentColor"/>
<path transform="translate(4.6650, 20.8418) scale(0.0040, -0.0040)" d="M-8 375c8 5 18 7 27 7s18 -2 26 -7l-3 -192l102 23h4c10 0 19 -8 19 -18l8 -563c-8 -5 -18 -7 -27 -7s-18 2 -26 7l2 192l-101 -23h-4c-10 0 -19 8 -19 18zM128 110l-87 -19l-3 -201l88 19z" fill="currentColor"/>
<path transform="translate(5.5778, 18.3418) scale(0.0040, -0.0040)" d="M198 -329c-12 0 -21 9 -21 21v138l-79 -30v-154c0 -12 -9 -21 -21 -21s-21 9 -21 21v138l-22 -8c-3 -1 -6 -2 -9 -2c-13 0 -25 11 -25 25v54c0 10 6 20 16 24l40 15v155l-22 -9c-3 -1 -6 -1 -9 -1c-13 0 -25 11 -25 25v54c0 10 6 19 16 23l40 15v154c0 12 9 21 21 21
s21 -9 21 -21v-138l79 30v154c0 12 9 21 21 21s21 -9 21 -21v-138l22 8c3 1 6 2 9 2c13 0 25 -11 25 -25v-54c0 -10 -6 -20 -16 -24l-40 -15v-155l22 9c3 1 6 1 9 1c13 0 25 -11 25 -25v-54c0 -10 -6 -19 -16 -23l-40 -15v-154c0 -12 -9 -21 -21 -21zM98 62v-154l79 30v154z
" fill="currentColor"/>
<a style="color:inherit;" xlink:href="textedit://C:/Users/trocado/OneDrive/Documents/Practice-log/assets/chord-sequences.ly:45:2:3">
<path transform="translate(13.5713, 22.8418) scale(0.0040, -0.0040)" d="M210 110c-49 0 -67 -43 -67 -88c0 -74 56 -132 129 -132c49 0 67 43 67 88c0 74 -56 132 -129 132zM482 0c0 -43 -33 -76 -71 -98c-51 -30 -111 -40 -170 -40s-119 10 -170 40c-38 22 -71 55 -71 98s33 76 71 98c51 30 111 40 170 40s119 -10 170 -40
c38 -22 71 -55 71 -98z" fill="currentColor"/>
</a>
<a style="color:inherit;" xlink:href="textedit://C:/Users/trocado/OneDrive/Documents/Practice-log/assets/chord-sequences.ly:45:7:8">
<path transform="translate(13.5713, 20.3418) scale(0.0040, -0.0040)" d="M210 110c-49 0 -67 -43 -67 -88c0 -74 56 -132 129 -132c49 0 67 43 67 88c0 74 -56 132 -129 132zM482 0c0 -43 -33 -76 -71 -98c-51 -30 -111 -40 -170 -40s-119 10 -170 40c-38 22 -71 55 -71 98s33 76 71 98c51 30 111 40 170 40s119 -10 170 -40
c38 -22 71 -55 71 -98z" fill="currentColor"/>
</a>
<a style="color:inherit;" xlink:href="textedit://C:/Users/trocado/OneDrive/Documents/Practice-log/assets/chord-sequences.ly:45:11:12">
<path transform="translate(13.5713, 19.3418) scale(0.0040, -0.0040)" d="M210 110c-49 0 -67 -43 -67 -88c0 -74 56 -132 129 -132c49 0 67 43 67 88c0 74 -56 132 -129 132zM482 0c0 -43 -33 -76 -71 -98c-51 -30 -111 -40 -170 -40s-119 10 -170 40c-38 22 -71 55 -71 98s33 76 71 98c51 30 111 40 170 40s119 -10 170 -40
c38 -22 71 -55 71 -98z" fill="currentColor"/>
</a>
<a style="color:inherit;" xlink:href="textedit://C:/Users/trocado/OneDrive/Documents/Practice-log/assets/chord-sequences.ly:57:12:13">
<path transform="translate(85.5493, 18.3418) scale(0.0040, -0.0040)" d="M210 110c-49 0 -67 -43 -67 -88c0 -74 56 -132 129 -132c49 0 67 43 67 88c0 74 -56 132 -129 132zM482 0c0 -43 -33 -76 -71 -98c-51 -30 -111 -40 -170 -40s-119 10 -170 40c-38 22 -71 55 -71 98s33 76 71 98c51 30 111 40 170 40s119 -10 170 -40
c38 -22 71 -55 71 -98z" fill="currentColor"/>
</a>
<a style="color:inherit;" xlink:href="textedit://C:/Users/trocado/OneDrive/Documents/Practice-log/assets/chord-sequences.ly:57:7:8">
<path transform="translate(85.5493, 20.8418) scale(0.0040, -0.0040)" d="M210 110c-49 0 -67 -43 -67 -88c0 -74 56 -132 129 -132c49 0 67 43 67 88c0 74 -56 132 -129 132zM482 0c0 -43 -33 -76 -71 -98c-51 -30 -111 -40 -170 -40s-119 10 -170 40c-38 22 -71 55 -71 98s33 76 71 98c51 30 111 40 170 40s119 -10 170 -40
c38 -22 71 -55 71 -98z" fill="currentColor"/>
</a>
<a style="color:inherit;" xlink:href="textedit://C:/Users/trocado/OneDrive/Documents/Practice-log/assets/chord-sequences.ly:57:2:3">
<path transform="translate(85.5493, 21.8418) scale(0.0040, -0.0040)" d="M210 110c-49 0 -67 -43 -67 -88c0 -74 56 -132 129 -132c49 0 67 43 67 88c0 74 -56 132 -129 132zM482 0c0 -43 -33 -76 -71 -98c-51 -30 -111 -40 -170 -40s-119 10 -170 40c-38 22 -71 55 -71 98s33 76 71 98c51 30 111 40 170 40s119 -10 170 -40
c38 -22 71 -55 71 -98z" fill="currentColor"/>
</a>
<path transform="translate(77.8558, 20.8418) scale(0.0040, -0.0040)" d="M31 37l-2 -62v-11c0 -22 2 -43 5 -64c43 38 89 80 89 137c0 32 -14 65 -42 65c-31 0 -49 -32 -50 -65zM-16 -140l-14 590c9 5 20 8 30 8s21 -3 30 -8l-8 -340c25 24 59 38 94 38c50 0 84 -50 84 -104c0 -78 -83 -117 -141 -169c-17 -15 -25 -44 -49 -44
c-15 0 -26 13 -26 29z" fill="currentColor"/>
<a style="color:inherit;" xlink:href="textedit://C:/Users/trocado/OneDrive/Documents/Practice-log/assets/chord-sequences.ly:58:13:14">
<path transform="translate(92.0928, 19.3418) scale(0.0040, -0.0040)" d="M210 110c-49 0 -67 -43 -67 -88c0 -74 56 -132 129 -132c49 0 67 43 67 88c0 74 -56 132 -129 132zM482 0c0 -43 -33 -76 -71 -98c-51 -30 -111 -40 -170 -40s-119 10 -170 40c-38 22 -71 55 -71 98s33 76 71 98c51 30 111 40 170 40s119 -10 170 -40
c38 -22 71 -55 71 -98z" fill="currentColor"/>
</a>
<a style="color:inherit;" xlink:href="textedit://C:/Users/trocado/OneDrive/Documents/Practice-log/assets/chord-sequences.ly:58:8:9">
<path transform="translate(92.0928, 20.3418) scale(0.0040, -0.0040)" d="M210 110c-49 0 -67 -43 -67 -88c0 -74 56 -132 129 -132c49 0 67 43 67 88c0 74 -56 132 -129 132zM482 0c0 -43 -33 -76 -71 -98c-51 -30 -111 -40 -170 -40s-119 10 -170 40c-38 22 -71 55 -71 98s33 76 71 98c51 30 111 40 170 40s119 -10 170 -40
c38 -22 71 -55 71 -98z" fill="currentColor"/>
</a>
<a style="color:inherit;" xlink:href="textedit://C:/Users/trocado/OneDrive/Documents/Practice-log/assets/chord-sequences.ly:58:2:3">
<path transform="translate(92.0928, 22.8418) scale(0.0040, -0.0040)" d="M210 110c-49 0 -67 -43 -67 -88c0 -74 56 -132 129 -132c49 0 67 43 67 88c0 74 -56 132 -129 132zM482 0c0 -43 -33 -76 -71 -98c-51 -30 -111 -40 -170 -40s-119 10 -170 40c-38 22 -71 55 -71 98s33 76 71 98c51 30 111 40 170 40s119 -10 170 -40
c38 -22 71 -55 71 -98z" fill="currentColor"/>
</a>
<path transform="translate(84.0993, 18.3418) scale(0.0040, -0.0040)" d="M198 -329c-12 0 -21 9 -21 21v138l-79 -30v-154c0 -12 -9 -21 -21 -21s-21 9 -21 21v138l-22 -8c-3 -1 -6 -2 -9 -2c-13 0 -25 11 -25 25v54c0 10 6 20 16 24l40 15v155l-22 -9c-3 -1 -6 -1 -9 -1c-13 0 -25 11 -25 25v54c0 10 6 19 16 23l40 15v154c0 12 9 21 21 21
s21 -9 21 -21v-138l79 30v154c0 12 9 21 21 21s21 -9 21 -21v-138l22 8c3 1 6 2 9 2c13 0 25 -11 25 -25v-54c0 -10 -6 -20 -16 -24l-40 -15v-155l22 9c3 1 6 1 9 1c13 0 25 -11 25 -25v-54c0 -10 -6 -19 -16 -23l-40 -15v-154c0 -12 -9 -21 -21 -21zM98 62v-154l79 30v154z
" fill="currentColor"/>
<path transform="translate(83.1865, 20.8418) scale(0.0040, -0.0040)" d="M-8 375c8 5 18 7 27 7s18 -2 26 -7l-3 -192l102 23h4c10 0 19 -8 19 -18l8 -563c-8 -5 -18 -7 -27 -7s-18 2 -26 7l2 192l-101 -23h-4c-10 0 -19 8 -19 18zM128 110l-87 -19l-3 -201l88 19z" fill="currentColor"/>
<path transform="translate(84.0993, 21.8418) scale(0.0040, -0.0040)" d="M-8 375c8 5 18 7 27 7s18 -2 26 -7l-3 -192l102 23h4c10 0 19 -8 19 -18l8 -563c-8 -5 -18 -7 -27 -7s-18 2 -26 7l2 192l-101 -23h-4c-10 0 -19 8 -19 18zM128 110l-87 -19l-3 -201l88 19z" fill="currentColor"/>
<a style="color:inherit;" xlink:href="textedit://C:/Users/trocado/OneDrive/Documents/Practice-log/assets/chord-sequences.ly:47:2:3">
<path transform="translate(26.6582, 22.3418) scale(0.0040, -0.0040)" d="M210 110c-49 0 -67 -43 -67 -88c0 -74 56 -132 129 -132c49 0 67 43 67 88c0 74 -56 132 -129 132zM482 0c0 -43 -33 -76 -71 -98c-51 -30 -111 -40 -170 -40s-119 10 -170 40c-38 22 -71 55 -71 98s33 76 71 98c51 30 111 40 170 40s119 -10 170 -40
c38 -22 71 -55 71 -98z" fill="currentColor"/>
</a>
<a style="color:inherit;" xlink:href="textedit://C:/Users/trocado/OneDrive/Documents/Practice-log/assets/chord-sequences.ly:47:11:12">
<path transform="translate(26.6582, 16.3418) scale(0.0040, -0.0040)" d="M210 110c-49 0 -67 -43 -67 -88c0 -74 56 -132 129 -132c49 0 67 43 67 88c0 74 -56 132 -129 132zM482 0c0 -43 -33 -76 -71 -98c-51 -30 -111 -40 -170 -40s-119 10 -170 40c-38 22 -71 55 -71 98s33 76 71 98c51 30 111 40 170 40s119 -10 170 -40
c38 -22 71 -55 71 -98z" fill="currentColor"/>
</a>
<a style="color:inherit;" xlink:href="textedit://C:/Users/trocado/OneDrive/Documents/Practice-log/assets/chord-sequences.ly:47:7:8">
<path transform="translate(26.6582, 19.8418) scale(0.0040, -0.0040)" d="M210 110c-49 0 -67 -43 -67 -88c0 -74 56 -132 129 -132c49 0 67 43 67 88c0 74 -56 132 -129 132zM482 0c0 -43 -33 -76 -71 -98c-51 -30 -111 -40 -170 -40s-119 10 -170 40c-38 22 -71 55 -71 98s33 76 71 98c51 30 111 40 170 40s119 -10 170 -40
c38 -22 71 -55 71 -98z" fill="currentColor"/>
</a>
<path transform="translate(25.0018, 22.3418) scale(0.0040, -0.0040)" d="M31 37l-2 -62v-11c0 -22 2 -43 5 -64c43 38 89 80 89 137c0 32 -14 65 -42 65c-31 0 -49 -32 -50 -65zM-16 -140l-14 590c9 5 20 8 30 8s21 -3 30 -8l-8 -340c25 24 59 38 94 38c50 0 84 -50 84 -104c0 -78 -83 -117 -141 -169c-17 -15 -25 -44 -49 -44
c-15 0 -26 13 -26 29z" fill="currentColor"/>
<path transform="translate(17.8447, 18.8418) scale(0.0040, -0.0040)" d="M31 37l-2 -62v-11c0 -22 2 -43 5 -64c43 38 89 80 89 137c0 32 -14 65 -42 65c-31 0 -49 -32 -50 -65zM-16 -140l-14 590c9 5 20 8 30 8s21 -3 30 -8l-8 -340c25 24 59 38 94 38c50 0 84 -50 84 -104c0 -78 -83 -117 -141 -169c-17 -15 -25 -44 -49 -44
c-15 0 -26 13 -26 29z" fill="currentColor"/>
<path transform="translate(18.9647, 19.8418) scale(0.0040, -0.0040)" d="M31 37l-2 -62v-11c0 -22 2 -43 5 -64c43 38 89 80 89 137c0 32 -14 65 -42 65c-31 0 -49 -32 -50 -65zM-16 -140l-14 590c9 5 20 8 30 8s21 -3 30 -8l-8 -340c25 24 59 38 94 38c50 0 84 -50 84 -104c0 -78 -83 -117 -141 -169c-17 -15 -25 -44 -49 -44
c-15 0 -26 13 -26 29z" fill="currentColor"/>
<a style="color:inherit;" xlink:href="textedit://C:/Users/trocado/OneDrive/Documents/Practice-log/assets/chord-sequences.ly:48:5:6">
<path transform="translate(33.2016, 19.3418) scale(0.0040, -0.0040)" d="M210 110c-49 0 -67 -43 -67 -88c0 -74 56 -132 129 -132c49 0 67 43 67 88c0 74 -56 132 -129 132zM482 0c0 -43 -33 -76 -71 -98c-51 -30 -111 -40 -170 -40s-119 10 -170 40c-38 22 -71 55 -71 98s33 76 71 98c51 30 111 40 170 40s119 -10 170 -40
c38 -22 71 -55 71 -98z" fill="currentColor"/>
</a>
<a style="color:inherit;" xlink:href="textedit://C:/Users/trocado/OneDrive/Documents/Practice-log/assets/chord-sequences.ly:48:2:3">
<path transform="translate(33.2016, 22.8418) scale(0.0040, -0.0040)" d="M210 110c-49 0 -67 -43 -67 -88c0 -74 56 -132 129 -132c49 0 67 43 67 88c0 74 -56 132 -129 132zM482 0c0 -43 -33 -76 -71 -98c-51 -30 -111 -40 -170 -40s-119 10 -170 40c-38 22 -71 55 -71 98s33 76 71 98c51 30 111 40 170 40s119 -10 170 -40
c38 -22 71 -55 71 -98z" fill="currentColor"/>
</a>
<path transform="translate(25.5082, 16.3418) scale(0.0040, -0.0040)" d="M31 37l-2 -62v-11c0 -22 2 -43 5 -64c43 38 89 80 89 137c0 32 -14 65 -42 65c-31 0 -49 -32 -50 -65zM-16 -140l-14 590c9 5 20 8 30 8s21 -3 30 -8l-8 -340c25 24 59 38 94 38c50 0 84 -50 84 -104c0 -78 -83 -117 -141 -169c-17 -15 -25 -44 -49 -44
c-15 0 -26 13 -26 29z" fill="currentColor"/>
<path transform="translate(25.5082, 19.8418) scale(0.0040, -0.0040)" d="M-8 375c8 5 18 7 27 7s18 -2 26 -7l-3 -192l102 23h4c10 0 19 -8 19 -18l8 -563c-8 -5 -18 -7 -27 -7s-18 2 -26 7l2 192l-101 -23h-4c-10 0 -19 8 -19 18zM128 110l-87 -19l-3 -201l88 19z" fill="currentColor"/>
<path transform="translate(12.4213, 22.8418) scale(0.0040, -0.0040)" d="M31 37l-2 -62v-11c0 -22 2 -43 5 -64c43 38 89 80 89 137c0 32 -14 65 -42 65c-31 0 -49 -32 -50 -65zM-16 -140l-14 590c9 5 20 8 30 8s21 -3 30 -8l-8 -340c25 24 59 38 94 38c50 0 84 -50 84 -104c0 -78 -83 -117 -141 -169c-17 -15 -25 -44 -49 -44
c-15 0 -26 13 -26 29z" fill="currentColor"/>
<path transform="translate(0.8000, 23.3418) scale(0.0040, -0.0040)" d="M379 264c3 0 7 1 10 1c157 0 258 -129 258 -263c0 -77 -33 -155 -108 -211c-22 -16 -46 -29 -72 -37c3 -33 4 -66 4 -99c0 -21 0 -41 -1 -62c-7 -121 -91 -229 -211 -229c-108 0 -196 88 -196 197c0 58 54 103 113 103c54 0 95 -47 95 -103c0 -52 -43 -95 -95 -95
c-9 0 -18 1 -27 4c25 -37 66 -61 113 -61c95 0 156 93 162 191c1 19 2 38 2 57c0 29 -1 58 -3 87c-29 -5 -58 -8 -88 -8c-189 0 -333 173 -333 376c0 177 129 308 244 443c-20 62 -40 124 -48 189c-7 52 -7 105 -7 158c0 114 54 221 147 288c4 3 8 4 12 4c5 0 9 -2 13 -5
c72 -83 135 -243 135 -356c0 -142 -84 -255 -176 -364c21 -68 40 -136 57 -205zM463 -201c65 24 110 94 110 161c0 88 -64 175 -167 188c24 -114 44 -227 57 -349zM77 25c0 -133 128 -243 261 -243c27 0 55 1 81 5c-13 126 -35 244 -60 362c-79 -8 -124 -60 -124 -118
c0 -43 25 -88 80 -120c5 -5 7 -11 7 -17c0 -12 -10 -23 -23 -23c-3 0 -7 1 -10 2c-81 43 -118 115 -118 186c0 89 60 177 163 200c-14 57 -30 113 -47 169c-105 -122 -210 -243 -210 -403zM403 1038c-99 -46 -161 -145 -161 -254c0 -71 21 -130 39 -188
c78 97 142 199 142 324c0 51 -4 72 -20 118z" fill="currentColor"/>
<a style="color:inherit;" xlink:href="textedit://C:/Users/trocado/OneDrive/Documents/Practice-log/assets/chord-sequences.ly:46:5:6">
<path transform="translate(20.1147, 19.8418) scale(0.0040, -0.0040)" d="M210 110c-49 0 -67 -43 -67 -88c0 -74 56 -132 129 -132c49 0 67 43 67 88c0 74 -56 132 -129 132zM482 0c0 -43 -33 -76 -71 -98c-51 -30 -111 -40 -170 -40s-119 10 -170 40c-38 22 -71 55 -71 98s33 76 71 98c51 30 111 40 170 40s119 -10 170 -40
c38 -22 71 -55 71 -98z" fill="currentColor"/>
</a>
<path transform="translate(18.9647, 23.3418) scale(0.0040, -0.0040)" d="M-8 375c8 5 18 7 27 7s18 -2 26 -7l-3 -192l102 23h4c10 0 19 -8 19 -18l8 -563c-8 -5 -18 -7 -27 -7s-18 2 -26 7l2 192l-101 -23h-4c-10 0 -19 8 -19 18zM128 110l-87 -19l-3 -201l88 19z" fill="currentColor"/>
<a style="color:inherit;" xlink:href="textedit://C:/Users/trocado/OneDrive/Documents/Practice-log/assets/chord-sequences.ly:46:11:12">
<path transform="translate(20.1147, 18.8418) scale(0.0040, -0.0040)" d="M210 110c-49 0 -67 -43 -67 -88c0 -74 56 -132 129 -132c49 0 67 43 67 88c0 74 -56 132 -129 132zM482 0c0 -43 -33 -76 -71 -98c-51 -30 -111 -40 -170 -40s-119 10 -170 40c-38 22 -71 55 -71 98s33 76 71 98c51 30 111 40 170 40s119 -10 170 -40
c38 -22 71 -55 71 -98z" fill="currentColor"/>
</a>
<a style="color:inherit;" xlink:href="textedit://C:/Users/trocado/OneDrive/Documents/Practice-log/assets/chord-sequences.ly:48:11:12">
<path transform="translate(33.2016, 16.8418) scale(0.0040, -0.0040)" d="M210 110c-49 0 -67 -43 -67 -88c0 -74 56 -132 129 -132c49 0 67 43 67 88c0 74 -56 132 -129 132zM482 0c0 -43 -33 -76 -71 -98c-51 -30 -111 -40 -170 -40s-119 10 -170 40c-38 22 -71 55 -71 98s33 76 71 98c51 30 111 40 170 40s119 -10 170 -40
c38 -22 71 -55 71 -98z" fill="currentColor"/>
</a>
<a style="color:inherit;" xlink:href="textedit://C:/Users/trocado/OneDrive/Documents/Practice-log/assets/chord-sequences.ly:46:2:3">
<path transform="translate(20.1147, 23.3418) scale(0.0040, -0.0040)" d="M210 110c-49 0 -67 -43 -67 -88c0 -74 56 -132 129 -132c49 0 67 43 67 88c0 74 -56 132 -129 132zM482 0c0 -43 -33 -76 -71 -98c-51 -30 -111 -40 -170 -40s-119 10 -170 40c-38 22 -71 55 -71 98s33 76 71 98c51 30 111 40 170 40s119 -10 170 -40
c38 -22 71 -55 71 -98z" fill="currentColor"/>
</a>
<path transform="translate(12.4213, 19.3418) scale(0.0040, -0.0040)" d="M-8 375c8 5 18 7 27 7s18 -2 26 -7l-3 -192l102 23h4c10 0 19 -8 19 -18l8 -563c-8 -5 -18 -7 -27 -7s-18 2 -26 7l2 192l-101 -23h-4c-10 0 -19 8 -19 18zM128 110l-87 -19l-3 -201l88 19z" fill="currentColor"/>
<path transform="translate(45.1386, 19.8418) scale(0.0040, -0.0040)" d="M-8 375c8 5 18 7 27 7s18 -2 26 -7l-3 -192l102 23h4c10 0 19 -8 19 -18l8 -563c-8 -5 -18 -7 -27 -7s-18 2 -26 7l2 192l-101 -23h-4c-10 0 -19 8 -19 18zM128 110l-87 -19l-3 -201l88 19z" fill="currentColor"/>
<path transform="translate(45.1386, 23.3418) scale(0.0040, -0.0040)" d="M31 37l-2 -62v-11c0 -22 2 -43 5 -64c43 38 89 80 89 137c0 32 -14 65 -42 65c-31 0 -49 -32 -50 -65zM-16 -140l-14 590c9 5 20 8 30 8s21 -3 30 -8l-8 -340c25 24 59 38 94 38c50 0 84 -50 84 -104c0 -78 -83 -117 -141 -169c-17 -15 -25 -44 -49 -44
c-15 0 -26 13 -26 29z" fill="currentColor"/>
<a style="color:inherit;" xlink:href="textedit://C:/Users/trocado/OneDrive/Documents/Practice-log/assets/chord-sequences.ly:51:14:15">
<path transform="translate(46.2886, 19.8418) scale(0.0040, -0.0040)" d="M210 110c-49 0 -67 -43 -67 -88c0 -74 56 -132 129 -132c49 0 67 43 67 88c0 74 -56 132 -129 132zM482 0c0 -43 -33 -76 -71 -98c-51 -30 -111 -40 -170 -40s-119 10 -170 40c-38 22 -71 55 -71 98s33 76 71 98c51 30 111 40 170 40s119 -10 170 -40
c38 -22 71 -55 71 -98z" fill="currentColor"/>
</a>
<a style="color:inherit;" xlink:href="textedit://C:/Users/trocado/OneDrive/Documents/Practice-log/assets/chord-sequences.ly:51:8:9">
<path transform="translate(46.2886, 22.3418) scale(0.0040, -0.0040)" d="M210 110c-49 0 -67 -43 -67 -88c0 -74 56 -132 129 -132c49 0 67 43 67 88c0 74 -56 132 -129 132zM482 0c0 -43 -33 -76 -71 -98c-51 -30 -111 -40 -170 -40s-119 10 -170 40c-38 22 -71 55 -71 98s33 76 71 98c51 30 111 40 170 40s119 -10 170 -40
c38 -22 71 -55 71 -98z" fill="currentColor"/>
</a>
<path transform="translate(50.7436, 22.3418) scale(0.0040, -0.0040)" d="M-8 375c8 5 18 7 27 7s18 -2 26 -7l-3 -192l102 23h4c10 0 19 -8 19 -18l8 -563c-8 -5 -18 -7 -27 -7s-18 2 -26 7l2 192l-101 -23h-4c-10 0 -19 8 -19 18zM128 110l-87 -19l-3 -201l88 19z" fill="currentColor"/>
<a style="color:inherit;" xlink:href="textedit://C:/Users/trocado/OneDrive/Documents/Practice-log/assets/chord-sequences.ly:51:2:3">
<path transform="translate(46.2886, 23.3418) scale(0.0040, -0.0040)" d="M210 110c-49 0 -67 -43 -67 -88c0 -74 56 -132 129 -132c49 0 67 43 67 88c0 74 -56 132 -129 132zM482 0c0 -43 -33 -76 -71 -98c-51 -30 -111 -40 -170 -40s-119 10 -170 40c-38 22 -71 55 -71 98s33 76 71 98c51 30 111 40 170 40s119 -10 170 -40
c38 -22 71 -55 71 -98z" fill="currentColor"/>
</a>
<a style="color:inherit;" xlink:href="textedit://C:/Users/trocado/OneDrive/Documents/Practice-log/assets/chord-sequences.ly:52:10:11">
<path transform="translate(52.8320, 20.8418) scale(0.0040, -0.0040)" d="M210 110c-49 0 -67 -43 -67 -88c0 -74 56 -132 129 -132c49 0 67 43 67 88c0 74 -56 132 -129 132zM482 0c0 -43 -33 -76 -71 -98c-51 -30 -111 -40 -170 -40s-119 10 -170 40c-38 22 -71 55 -71 98s33 76 71 98c51 30 111 40 170 40s119 -10 170 -40
c38 -22 71 -55 71 -98z" fill="currentColor"/>
</a>
<a style="color:inherit;" xlink:href="textedit://C:/Users/trocado/OneDrive/Documents/Practice-log/assets/chord-sequences.ly:52:6:7">
<path transform="translate(52.8320, 22.3418) scale(0.0040, -0.0040)" d="M210 110c-49 0 -67 -43 -67 -88c0 -74 56 -132 129 -132c49 0 67 43 67 88c0 74 -56 132 -129 132zM482 0c0 -43 -33 -76 -71 -98c-51 -30 -111 -40 -170 -40s-119 10 -170 40c-38 22 -71 55 -71 98s33 76 71 98c51 30 111 40 170 40s119 -10 170 -40
c38 -22 71 -55 71 -98z" fill="currentColor"/>
</a>
<a style="color:inherit;" xlink:href="textedit://C:/Users/trocado/OneDrive/Documents/Practice-log/assets/chord-sequences.ly:52:2:3">
<path transform="translate(52.8320, 24.8418) scale(0.0040, -0.0040)" d="M210 110c-49 0 -67 -43 -67 -88c0 -74 56 -132 129 -132c49 0 67 43 67 88c0 74 -56 132 -129 132zM482 0c0 -43 -33 -76 -71 -98c-51 -30 -111 -40 -170 -40s-119 10 -170 40c-38 22 -71 55 -71 98s33 76 71 98c51 30 111 40 170 40s119 -10 170 -40
c38 -22 71 -55 71 -98z" fill="currentColor"/>
</a>
<a style="color:inherit;" xlink:href="textedit://C:/Users/trocado/OneDrive/Documents/Practice-log/assets/chord-sequences.ly:50:6:7">
<path transform="translate(39.7451, 22.8418) scale(0.0040, -0.0040)" d="M210 110c-49 0 -67 -43 -67 -88c0 -74 56 -132 129 -132c49 0 67 43 67 88c0 74 -56 132 -129 132zM482 0c0 -43 -33 -76 -71 -98c-51 -30 -111 -40 -170 -40s-119 10 -170 40c-38 22 -71 55 -71 98s33 76 71 98c51 30 111 40 170 40s119 -10 170 -40
c38 -22 71 -55 71 -98z" fill="currentColor"/>
</a>
<path transform="translate(32.0516, 22.8418) scale(0.0040, -0.0040)" d="M-8 375c8 5 18 7 27 7s18 -2 26 -7l-3 -192l102 23h4c10 0 19 -8 19 -18l8 -563c-8 -5 -18 -7 -27 -7s-18 2 -26 7l2 192l-101 -23h-4c-10 0 -19 8 -19 18zM128 110l-87 -19l-3 -201l88 19z" fill="currentColor"/>
<path transform="translate(32.0516, 19.3418) scale(0.0040, -0.0040)" d="M31 37l-2 -62v-11c0 -22 2 -43 5 -64c43 38 89 80 89 137c0 32 -14 65 -42 65c-31 0 -49 -32 -50 -65zM-16 -140l-14 590c9 5 20 8 30 8s21 -3 30 -8l-8 -340c25 24 59 38 94 38c50 0 84 -50 84 -104c0 -78 -83 -117 -141 -169c-17 -15 -25 -44 -49 -44
c-15 0 -26 13 -26 29z" fill="currentColor"/>
<a style="color:inherit;" xlink:href="textedit://C:/Users/trocado/OneDrive/Documents/Practice-log/assets/chord-sequences.ly:50:2:3">
<path transform="translate(39.7451, 23.8418) scale(0.0040, -0.0040)" d="M210 110c-49 0 -67 -43 -67 -88c0 -74 56 -132 129 -132c49 0 67 43 67 88c0 74 -56 132 -129 132zM482 0c0 -43 -33 -76 -71 -98c-51 -30 -111 -40 -170 -40s-119 10 -170 40c-38 22 -71 55 -71 98s33 76 71 98c51 30 111 40 170 40s119 -10 170 -40
c38 -22 71 -55 71 -98z" fill="currentColor"/>
</a>
<a style="color:inherit;" xlink:href="textedit://C:/Users/trocado/OneDrive/Documents/Practice-log/assets/chord-sequences.ly:50:10:11">
<path transform="translate(39.7451, 19.3418) scale(0.0040, -0.0040)" d="M210 110c-49 0 -67 -43 -67 -88c0 -74 56 -132 129 -132c49 0 67 43 67 88c0 74 -56 132 -129 132zM482 0c0 -43 -33 -76 -71 -98c-51 -30 -111 -40 -170 -40s-119 10 -170 40c-38 22 -71 55 -71 98s33 76 71 98c51 30 111 40 170 40s119 -10 170 -40
c38 -22 71 -55 71 -98z" fill="currentColor"/>
</a>
<path transform="translate(38.5951, 22.8418) scale(0.0040, -0.0040)" d="M-8 375c8 5 18 7 27 7s18 -2 26 -7l-3 -192l102 23h4c10 0 19 -8 19 -18l8 -563c-8 -5 -18 -7 -27 -7s-18 2 -26 7l2 192l-101 -23h-4c-10 0 -19 8 -19 18zM128 110l-87 -19l-3 -201l88 19z" fill="currentColor"/>
<path transform="translate(38.5951, 19.3418) scale(0.0040, -0.0040)" d="M31 37l-2 -62v-11c0 -22 2 -43 5 -64c43 38 89 80 89 137c0 32 -14 65 -42 65c-31 0 -49 -32 -50 -65zM-16 -140l-14 590c9 5 20 8 30 8s21 -3 30 -8l-8 -340c25 24 59 38 94 38c50 0 84 -50 84 -104c0 -78 -83 -117 -141 -169c-17 -15 -25 -44 -49 -44
c-15 0 -26 13 -26 29z" fill="currentColor"/>
<text transform="translate(0.0000, 27.9098)" font-family="serif" font-size="2.1999" text-anchor="start" fill="currentColor">
<tspan/>
</text>
</svg>
